<svg xmlns="http://www.w3.org/2000/svg" height="300" width="300" fill="#15845a" viewBox="0 0 100 100"  xmlns:v="https://vecta.io/nano"><path d="M87.5 59l10.7-3.1V43.2l-10.7-3.3c-1.4-.4-7.6-2.5-4.1-9.2l5.5-10-9.7-9.7-10 5.2C68 17 62 20 59.9 12.4L56.6.9H42.9l-3.6 11.7s-1.7 8-9 3.9l-10.1-5.3-9.7 9.7 5.4 9.7s4.6 7-3.5 9.6L1.7 43.3V56l10.7 3.3c1.4.4 7.6 2.5 4.1 9.2l-5.5 10 9.7 9.7 10-5.2c1.3-1 7.3-4 9.4 3.6l3.3 11.5h13.7l3.6-11.7s1.7-8 9-3.9l10.1 5.3 9.7-9.7-5.4-9.7c0 .1-4.6-6.9 3.4-9.4zM50 68.4c-10.4 0-18.9-8.4-18.9-18.9h0c0-10.4 8.4-18.9 18.9-18.9 10.4 0 18.9 8.4 18.9 18.9h0c0 10.4-8.5 18.9-18.9 18.9z"/><circle cx="50" cy="49.5" r="12.6"/></svg>