<svg xmlns="http://www.w3.org/2000/svg" height="300" width="300" fill="#15845a" viewBox="0 0 100 100"  xmlns:v="https://vecta.io/nano"><path d="M25.966 40.286l-.002-3.456.002-6.911.017-.71c.045-1.268.085-2.364-1.583-3.155-1.546-.734-3.439-.577-5.269-.427l-1.806.114c-.629-.019-1.309-.079-1.827.134-.235.016-.449.093-.564.141-.461.02-.856.204-1.176.547-1.249 1.342-.99 4.968-.818 7.367l.083 1.518-.024 8.791-.022 10.462-.148 5.892c-.145 3.765-.294 7.658.149 11.531.054.471.116.894.335 1.289.578 1.042 1.358 1.042 2.184 1.042l2.246.023 2.263.023c.756 0 1.515-.012 2.266-.047 3.848-.179 4.044-2.218 4.044-5.529l-.175-14.311-.175-14.328zm61.175 14.327l-.175-14.327-.002-3.456.002-6.911a21.91 21.91 0 0 1 .017-.71c.045-1.268.085-2.364-1.583-3.155-1.546-.734-3.439-.577-5.269-.427l-1.806.114c-.629-.019-1.309-.079-1.827.134-.235.016-.449.093-.564.141-.461.02-.856.204-1.176.547-1.249 1.342-.99 4.968-.818 7.367l.083 1.518-.024 8.791-.022 10.462-.148 5.892c-.145 3.765-.294 7.658.149 11.531.054.471.116.894.335 1.289.578 1.042 1.358 1.042 2.184 1.042l2.246.023 2.263.023c.756 0 1.515-.012 2.266-.047 3.848-.179 4.044-2.218 4.044-5.529l-.175-14.312zm-18.077.963V24.444c0-4.843.728-6.185-5.986-6.088-5.897.086-11.908-.351-17.787.001-3.724.223-8.534-.522-12.024-.016-4.239.615-3.106 3.654-3.106 6.462v32.04 14.873c0 2.867.131 4.947.796 7.782.07.298.151.613.416.834.291.243.739.319 1.159.377 3.146.432 6.458.54 9.632.412 3.006-.122 6.079.386 9.091.386 3.462 0 7.116.45 10.771.3 1.539 0 4.039.15 5.386-.75 2.859-1.911 1.653-7.663 1.653-10.271l-.001-15.21z"/></svg>