<svg xmlns="http://www.w3.org/2000/svg" viewBox="0 0 300 300"  xmlns:v="https://vecta.io/nano"><path d="M15819.3 7200.3v-6c0-8.4-15-12-29.1-12s-29.1 3.9-29.1 12v6c0 5.4 2.1 10.8 6 14.7l15 14.7c.9.9 1.2 1.8 1.2 3v19.2c0 1.2.6 2.1 1.8 2.4l8.7 2.7c1.5.3 3-.6 3-2.4V7233c0-1.2.6-2.1 1.2-3l15.3-15c3.9-3.9 6-9.3 6-14.7zm-29.1-.3c-14.4 0-22.2-3.9-22.5-5.4h0c.3-1.5 8.1-5.4 22.5-5.4s21.9 3.9 22.5 5.4c-.6 1.5-8.1 5.4-22.5 5.4zm15 30.9c-1.8 0-3 1.2-3 3s1.2 3 3 3h12.9c1.8 0 3-1.2 3-3s-1.2-3-3-3h-12.9zm12.9 10.2h-12.9c-1.8 0-3 1.2-3 3s1.2 3 3 3h12.9c1.8 0 3-1.2 3-3s-1.2-3-3-3zm0 9.9h-12.9c-1.8 0-3 1.2-3 3s1.2 3 3 3h12.9c1.8 0 3-1.2 3-3 0-1.5-1.2-3-3-3z"/><path d="M227.4 227.7c0 .6-.6 1.2-1.2 1.2H32.1c-.6 0-1.5-.6-1.5-1.2V100.5h172.2l44.7-44.7c-3.3-4.8-8.7-8.1-15-8.1h-207c-9.9 0-18 8.1-18 18v168.6c0 9.9 8.1 18 18 18h207.3c9.9 0 18-8.1 18-18v-75.6l-23.4 23.4v45.6h0zM84.3 66.3c4.2 0 7.8 3.3 7.8 7.8 0 4.2-3.6 7.8-7.8 7.8s-7.8-3.3-7.8-7.8 3.6-7.8 7.8-7.8zm-23.4 0c4.2 0 7.8 3.3 7.8 7.8 0 4.2-3.6 7.8-7.8 7.8s-7.8-3.3-7.8-7.8 3.3-7.8 7.8-7.8zm-23.7 0c4.2 0 7.8 3.3 7.8 7.8 0 4.2-3.6 7.8-7.8 7.8s-7.8-3.3-7.8-7.8 3.6-7.8 7.8-7.8zm96 107.1a2.69 2.69 0 0 0 2.7-2.7V159a2.69 2.69 0 0 0-2.7-2.7h-6c-.6-2.7-1.8-5.1-3-7.2l4.2-4.2c1.2-.9 1.2-2.7 0-3.9l-8.4-8.1c-.9-1.2-2.7-1.2-3.9 0l-4.2 4.2c-2.4-1.2-4.8-2.4-7.2-3v-6a2.69 2.69 0 0 0-2.7-2.7H90.3a2.69 2.69 0 0 0-2.7 2.7v6c-2.7.6-5.1 1.8-7.2 3l-4.2-4.2c-.9-1.2-2.7-1.2-3.9 0l-8.1 8.1c-1.2.9-1.2 2.7 0 3.9l4.2 4.2c-1.2 2.4-2.4 4.8-3 7.2h-6a2.69 2.69 0 0 0-2.7 2.7v11.7a2.69 2.69 0 0 0 2.7 2.7h6c.6 2.7 1.8 5.1 3 7.2l-4.2 4.2c-1.2.9-1.2 2.7 0 3.9l8.1 8.1c.9 1.2 2.7 1.2 3.9 0l4.2-4.2c2.4 1.2 4.8 2.4 7.2 3v6a2.69 2.69 0 0 0 2.7 2.7H102a2.69 2.69 0 0 0 2.7-2.7v-6c2.7-.6 5.1-1.8 7.2-3l4.2 4.2c.9 1.2 2.7 1.2 3.9 0l8.1-8.1c1.2-.9 1.2-2.7 0-3.9l-4.2-4.2c1.2-2.4 2.4-4.8 3-7.2h6.3 0zM96.3 180c-8.4 0-15-6.6-15-15s6.6-15 15-15 15 6.6 15 15c0 8.1-6.6 15-15 15zm85.039-31.473l60.245-60.245 26.516 26.516-60.245 60.245zM156.9 192.6c-.9 3.9 2.7 7.8 6.6 6.6l24-5.4c.9-.3 2.1-.9 2.7-1.5l6.3-6.3-26.4-26.4-6.3 6.3c-.6.9-1.2 1.8-1.5 2.7l-5.4 24zM291 84.3l-18.6-18.6c-2.1-2.1-5.7-2.1-8.1 0l-11.4 11.4 26.4 26.4 11.4-11.4c2.4-2.1 2.4-5.7.3-7.8z" fill="#15845a"/></svg>