<svg xmlns="http://www.w3.org/2000/svg" height="300" width="300" fill="#15845a" viewBox="0 0 100 100"  fill-rule="evenodd" xmlns:v="https://vecta.io/nano"><path d="M13.277 0h53.805a3.12 3.12 0 0 1 3.108 3.109v2.813H19.199a3.12 3.12 0 0 0-3.108 3.108v50.992h-2.813a3.12 3.12 0 0 1-3.108-3.109V3.109C10.168 1.399 11.568 0 13.277 0zm76.555 82.187L64.293 57.796l4.301 35.35 7.336-6.913L83.083 100l4.832-2.706-7.409-13.723 9.326-1.384zM79.294 11.991H25.49a3.12 3.12 0 0 0-3.108 3.109v53.805a3.12 3.12 0 0 0 3.108 3.107h35.775l-.59-4.85H27.17v-16.13l12.42-12.413 12.803 14.073 8.369-7.776 7.814 6.507 9.037-10.319v23.634l4.766 4.549a3.01 3.01 0 0 0 .023-.381V15.1a3.12 3.12 0 0 0-3.108-3.109zm-7.633 13.1l.596 1.031-1.785 1.031c-.17-.362-.369-.707-.596-1.03l1.785-1.032zM68.2 22.065l1.03.595-1.031 1.786a6.83 6.83 0 0 0-1.03-.596l1.031-1.785zm-4.512-.89h1.19v2.063l-.595-.026-.596.026v-2.063zm-3.32.89l1.03 1.786a6.83 6.83 0 0 0-1.03.596l-1.031-1.786 1.031-.596zm-4.948 7.378h2.063l-.025.595.025.596H55.42v-1.191zm1.485 5.542l-.595-1.031 1.786-1.031c.168.362.368.707.596 1.031l-1.787 1.031zm1.191-7.832l-1.786-1.031.595-1.031 1.787 1.032a6.62 6.62 0 0 0-.596 1.03zm2.272 10.858l-1.031-.595 1.031-1.786a6.83 6.83 0 0 0 1.03.596l-1.03 1.785zm4.51.89h-1.19v-2.063a6.9 6.9 0 0 0 .596.026 7.34 7.34 0 0 0 .595-.026v2.063zm3.322-.89l-1.031-1.785a6.83 6.83 0 0 0 1.03-.596l1.031 1.786-1.03.595zm-3.916-3.026a4.96 4.96 0 0 1-4.947-4.947 4.96 4.96 0 0 1 4.947-4.947 4.96 4.96 0 0 1 4.946 4.947 4.96 4.96 0 0 1-4.946 4.947zm7.377 0l-1.785-1.031c.227-.324.426-.669.596-1.031l1.785 1.031-.596 1.031zm1.485-4.351h-2.063l.027-.596-.027-.595h2.063v1.191z"/></svg>