<svg xmlns="http://www.w3.org/2000/svg" height="300" width="300" fill="#15845a" viewBox="0 0 100 100"  xmlns:v="https://vecta.io/nano"><path d="M45.6 46.9c1.3 1.6 1.4 3.6 1.4 5v17l8-3.3V51.9c0-1.4.1-3.4 1.4-5L67 34H35l10.6 12.9zM92 16.3c0-4-3.3-7.3-7.3-7.3H17.3c-4 0-7.3 3.3-7.3 7.3v67.4c0 4 3.3 7.3 7.3 7.3h67.4c4 0 7.3-3.3 7.3-7.3V16.3zM75.7 35.5L63 51.5v.4 15.9c0 1-.3 3.3-3.4 4.5h-.1l-13 5.4c-.7.3-1.4.4-2 .4-1.1 0-2.2-.3-3.1-.9-1.5-1-2.4-2.6-2.4-4.3v-21-.4l-12.7-16c-1.4-1.8-1.7-4.2-.7-6.2 1-2.1 3-3.3 5.3-3.3h40.2c2.3 0 4.3 1.3 5.3 3.3s.8 4.4-.7 6.2z"/></svg>