<svg xmlns="http://www.w3.org/2000/svg" height="300" width="300" fill="#15845a" viewBox="0 0 24 24"  xmlns:v="https://vecta.io/nano"><path d="M20.34 6.49l-1.46 1.45a8 8 0 1 1-2.82-2.82l1.45-1.46A9.91 9.91 0 0 0 12 2a10 10 0 1 0 10 10 9.91 9.91 0 0 0-1.66-5.51zM12 8a3.81 3.81 0 0 1 1 .15l1.56-1.56a6 6 0 1 0 2.83 2.83L15.85 11a3.81 3.81 0 0 1 .15 1 4 4 0 1 1-4-4zm9.71-5.71a1 1 0 0 0-1.42 0l-7.79 7.8-.79-.8A1 1 0 0 0 10 10v3a1 1 0 0 0 1 1h3a1 1 0 0 0 .71-1.71l-.8-.79 7.8-7.79a1 1 0 0 0 0-1.42z"/></svg>