<svg xmlns="http://www.w3.org/2000/svg" height="80" width="80" fill="#15845a" viewBox="0 0 20 20"  xmlns:v="https://vecta.io/nano"><path d="M10 1c4.968.006 8.994 4.032 9 9a9 9 0 1 1-18 0 9 9 0 0 1 9-9zm-.002 2A7 7 0 1 0 10 17a7 7 0 0 0 7-6.998 7.01 7.01 0 0 0-6.762-6.998L9.998 3zm3.952 8.189a1 1 0 0 1 .346 1.371C13.4 14.061 11.781 15 10 15c-1.747 0-3.34-.904-4.247-2.36a1 1 0 0 1 1.698-1.057C7.996 12.458 8.951 13 10 13c1.069 0 2.04-.563 2.578-1.465a1 1 0 0 1 1.371-.346zM7.5 6a1.5 1.5 0 1 1 0 3 1.5 1.5 0 1 1 0-3zm5 0a1.5 1.5 0 1 1 0 3 1.5 1.5 0 1 1 0-3z" fill-rule="evenodd"/></svg>