<?xml version="1.0" encoding="utf-8"?>
<!-- Generator: Adobe Illustrator 25.4.1, SVG Export Plug-In . SVG Version: 6.00 Build 0)  -->
<svg version="1.1" id="Layer_1" xmlns:v="https://vecta.io/nano"
	 xmlns="http://www.w3.org/2000/svg" xmlns:xlink="http://www.w3.org/1999/xlink" x="0px" y="0px" viewBox="0 0 1069.45 715.33"
	 style="enable-background:new 0 0 1069.45 715.33;" xml:space="preserve">
<style type="text/css">
	.st0{fill:#FFFFFF;stroke:#055168;stroke-width:3;stroke-miterlimit:10;}
	.st1{fill:#005468;}
	.st2{fill:#D45A56;}
	.st3{fill:#FECE2F;}
	.st4{fill:#37D436;}
	.st5{opacity:0.5;fill:#148057;enable-background:new    ;}
	.st6{fill:#0B1A3B;}
	.st7{fill:#EF8F6A;}
	.st8{fill:#AF243B;}
	.st9{fill:#163560;}
	.st10{fill:#233862;}
	.st11{fill:#C62E45;}
	.st12{fill:#E27452;}
	.st13{fill:#56130F;}
	.st14{fill:#CD3072;}
	.st15{fill:#1F3344;}
	.st16{fill:#115C60;}
	.st17{clip-path:url(#SVGID_00000181793667066318242170000015146857402757862046_);}
	.st18{fill:#00749A;}
	.st19{fill:#15845A;}
	.st20{fill:#D8DCDE;}
	.st21{fill:#187C6D;}
	.st22{fill:#FFFFFF;stroke:#E1E6EA;stroke-width:0.75;stroke-miterlimit:10;}
	.st23{fill:#BDC5CB;}
	.st24{font-family:'AsapCondensed-Medium';}
	.st25{font-size:23.0671px;}
	.st26{fill:none;stroke:#E1E6EA;stroke-miterlimit:10;}
	.st27{fill:#00C3FF;}
	.st28{fill:#F0D272;}
	.st29{fill:#108C99;}
	.st30{fill:#84EEB4;}
	.st31{fill:#BFF281;}
	.st32{fill:#F39AD9;}
	.st33{fill:#B14CD6;}
	.st34{fill:#71D9F8;}
	.st35{fill:#FF6700;}
	.st36{fill:#27C840;}
</style>
<g>
	<path class="st0" d="M972.41,19.87v603.49c0,10.56-8.1,19.12-18.09,19.12H28.93c-9.99,0-18.09-8.56-18.09-19.12V19.87
		c0-10.57,8.1-19.12,18.09-19.12h925.39C964.3,0.75,972.41,9.31,972.41,19.87z"/>
	<path class="st1" d="M972.6,18.89v48.58H8.13V18.89c0-10.02,8.12-18.14,18.14-18.14h928.19C964.48,0.75,972.6,8.87,972.6,18.89
		L972.6,18.89z"/>
	<circle class="st2" cx="46.08" cy="34.11" r="8.45"/>
	<circle class="st3" cx="79.36" cy="34.11" r="8.45"/>
	<circle class="st4" cx="113.49" cy="34.11" r="8.45"/>
	<path class="st5" d="M1035.02,394.76l-3.03-1c-0.51-0.17-0.85-0.67-0.81-1.21c0.16-2.23-0.03-4.47-0.57-6.62
		c-0.13-0.51,0.09-1.04,0.52-1.3l4.46-2.76c0.5-0.31,0.69-0.94,0.44-1.47l-2.25-4.7c-0.26-0.55-0.91-0.81-1.48-0.59l-5.33,2
		c-0.46,0.18-0.98,0.05-1.31-0.31c-0.73-0.79-1.52-1.52-2.37-2.18l-1.42-1.03c-0.38-0.25-0.58-0.69-0.53-1.14l0.69-5.41
		c0.08-0.62-0.33-1.21-0.94-1.34l-4.92-1.06l-0.12-0.02c-0.59-0.12-1.19,0.22-1.38,0.79l-1.32,3.98c-0.02,0.07-0.05,0.13-0.08,0.19
		c-0.22,0.41-0.67,0.67-1.14,0.62c-2.78-0.23-5.58,0.09-8.23,0.95c-0.11,0.04-0.22,0.05-0.33,0.06c-0.43,0.01-0.83-0.21-1.06-0.57
		l-1.84-2.98c-0.24-0.38-0.68-0.6-1.13-0.56c-0.14,0.01-0.28,0.05-0.41,0.11l-4.63,2.21c-0.57,0.27-0.84,0.94-0.61,1.54l1.65,4.36
		c0.16,0.43,0.06,0.91-0.26,1.24l-1.31,1.51c-0.78,0.98-1.45,2.02-2.03,3.1h-0.01c-0.23,0.45-0.72,0.7-1.22,0.63l-4.69-0.59
		l-0.24-0.03c-0.61-0.08-1.18,0.32-1.31,0.92l-1.08,5.02c-0.13,0.61,0.22,1.23,0.82,1.43l4.43,1.47c0.49,0.16,0.83,0.62,0.82,1.14
		c0.03,2.17,0.38,4.33,1.06,6.39c0.17,0.53-0.04,1.1-0.51,1.39l-3.53,2.19c-0.53,0.33-0.73,1.01-0.46,1.57l2.21,4.65
		c0.26,0.55,0.91,0.81,1.47,0.59l5.13-1.92c0.44-0.16,0.93-0.07,1.27,0.25l1.31,1.13c0.85,0.67,1.74,1.27,2.68,1.8
		c0.42,0.24,0.66,0.7,0.6,1.18l-0.72,5.64c-0.07,0.62,0.34,1.2,0.94,1.33l5.04,1.08c0.53,0.11,1.08-0.16,1.31-0.63
		c0.03-0.05,0.05-0.11,0.07-0.16l1.63-4.92c0.15-0.46,0.55-0.79,1.03-0.83c0.04,0,0.09-0.01,0.13-0.01
		c0.13,0.01,0.25,0.01,0.38-0.01c1.5,0,2.99-0.17,4.45-0.5c0.48-0.11,0.99,0.11,1.25,0.54l2.31,3.73c0.32,0.53,1.01,0.73,1.57,0.46
		l1.03-0.49l3.59-1.72c0.56-0.27,0.83-0.92,0.61-1.51l-1.62-4.29c-0.18-0.46-0.04-0.97,0.33-1.3c0.99-0.86,1.9-1.81,2.71-2.85
		c0.62-0.78,1.18-1.6,1.66-2.43l0.98,0.13l4.04,0.5c0.5,0.07,0.98-0.19,1.2-0.63c0.05-0.09,0.08-0.19,0.1-0.29l1.1-5.06
		C1035.94,395.55,1035.59,394.96,1035.02,394.76L1035.02,394.76z M1015.11,401.31l-0.5,0.24c-1.57,0.75-4.26,1.05-5.96,0.7
		c-0.89-0.19-1.72-0.45-2.49-0.77c-7.69-3.24-9.35-12.8-3.79-18.43c0.98-0.98,2.17-1.84,3.59-2.54c0.33-0.16,0.68-0.29,1.03-0.4
		c1.63-0.5,3.75-0.65,5.19-0.34C1023.25,382.22,1025.02,396.14,1015.11,401.31L1015.11,401.31z"/>
	<g>
		<path class="st6" d="M1000.51,698.77L1000.51,698.77c-1.02,0.01-2.09-0.73-2.39-1.65l-61.4-186.96c-0.3-0.91,0.28-1.66,1.3-1.67
			l0,0c1.02-0.01,2.09,0.73,2.39,1.65l61.4,186.96C1002.11,698.01,1001.53,698.76,1000.51,698.77L1000.51,698.77z M1050,698.48
			L1050,698.48c-1.02,0.01-2.09-0.73-2.39-1.65L986.2,509.87c-0.3-0.92,0.28-1.66,1.3-1.67l0,0c1.02-0.01,2.09,0.73,2.39,1.65
			l61.4,186.96C1051.6,697.73,1051.02,698.47,1050,698.48z"/>
		<path class="st6" d="M996.71,535.92l-49.7,0.29c-0.96,0.01-1.97-0.69-2.26-1.55l0,0c-0.28-0.86,0.27-1.57,1.23-1.57l49.7-0.29
			c0.96-0.01,1.97,0.69,2.26,1.55l0,0C998.22,535.21,997.67,535.91,996.71,535.92z M1007.43,568.56l-49.7,0.29
			c-0.96,0.01-1.97-0.69-2.26-1.55l0,0c-0.28-0.86,0.27-1.57,1.23-1.57l49.7-0.29c0.96-0.01,1.97,0.69,2.26,1.55l0,0
			C1008.94,567.85,1008.39,568.56,1007.43,568.56L1007.43,568.56z M1017.76,600l-49.7,0.29c-0.96,0.01-1.97-0.69-2.26-1.55l0,0
			c-0.28-0.86,0.27-1.57,1.23-1.57l49.7-0.29c0.96-0.01,1.97,0.69,2.26,1.55l0,0C1019.27,599.29,1018.72,600,1017.76,600
			L1017.76,600z M1029.38,635.4l-49.69,0.29c-0.96,0.01-1.97-0.69-2.26-1.55l0,0c-0.28-0.86,0.27-1.57,1.23-1.57l49.7-0.29
			c0.96-0.01,1.97,0.69,2.26,1.55l0,0C1030.89,634.68,1030.34,635.39,1029.38,635.4L1029.38,635.4z M1041.55,672.44l-49.7,0.29
			c-0.96,0.01-1.97-0.69-2.26-1.55l0,0c-0.28-0.86,0.27-1.57,1.23-1.57l49.69-0.29c0.96-0.01,1.97,0.69,2.26,1.55l0,0
			C1043.06,671.73,1042.51,672.44,1041.55,672.44z M934.57,424.52L934.57,424.52c-0.39,0.08-0.77-0.18-0.85-0.57l-0.8-4.11
			c-0.07-0.39,0.18-0.77,0.57-0.85l0,0c0.39-0.08,0.77,0.18,0.85,0.57l0.8,4.11C935.22,424.07,934.96,424.45,934.57,424.52
			L934.57,424.52z M931.94,412.15l0.49-0.09l1.15,5.94l-0.49,0.09L931.94,412.15z"/>
	</g>
	<path class="st7" d="M932.4,378.6c0,0-0.47-4.09-1.46-5.65c-0.99-1.56-4.74-2.57-4.97-2.34c-0.73,0.71,2.17,3.22,2.28,4.15
		c0.11,0.93-1.47,0.29-0.71,2.09c0.64,1.52,2.76,3.5,2.76,3.5L932.4,378.6L932.4,378.6z"/>
	<path class="st8" d="M930.6,378.15c1.37-1.07,1.66-1.05,1.66-1.05l13.87,11.92c1.23,0.98,20.21,6.48,20.21,6.48l3.02,15.43
		c0,0-25.68-12.4-28.75-14.94c-5.07-4.18-11.47-15.89-11.47-15.89S929.52,378.99,930.6,378.15z"/>
	<path class="st9" d="M966.74,526.43c0,0-0.22,5.27-1.23,6.56l-14.09,0.08c0.1-0.54,0.16-1.8,2.11-2.14
		c2.46-0.43,5.35-2.14,6.84-5.4C961.94,522.1,966.74,526.43,966.74,526.43z M994.38,525.67c0,0,0.98,7.01-0.35,7.13
		c-0.18,0.02-5.68,0.1-8.06,0.14c-2.8,0.05-7.4-0.05-7.4-0.05c-0.58,0.02-0.96-0.6-0.66-1.1c0.32-0.55,0.94-1.13,2.12-1.36
		c2.45-0.47,6.54-2.27,7.97-5.55C989.5,521.43,994.38,525.67,994.38,525.67L994.38,525.67z"/>
	<path class="st10" d="M959.41,453.88c0,0,3.92,13.71,15.14,37.51c11.23,23.8,11.71,35.27,11.71,35.27s1.7,0.6,3.95,0.36
		c2.44-0.26,4.16-1.35,4.16-1.35s-0.73-28.33-6.03-40.34s-6.38-44.88-6.38-44.88L959.41,453.88L959.41,453.88z"/>
	<path class="st6" d="M953.13,442.09c0,0-0.31,21.22,3.36,47.28c3.67,26.06,1.95,38.18,1.95,38.18s0.97,0.71,3.97,0.7
		c3.5-0.01,5.3-1.46,5.3-1.46s5.26-26.07,3.75-39.11s7.2-44.75,7.2-44.75L953.13,442.09L953.13,442.09z"/>
	<path class="st7" d="M970.48,392.43l-4.15,3.07l-5.99-1.26l0.84-4.86l0.06-0.36l0.58-3.25l5.6-2.79l2.09-1.04
		c-0.01,0.04-0.16,1.94-0.18,2.22C968.93,389.08,970.48,392.43,970.48,392.43z"/>
	<path class="st11" d="M982.36,444.71c-1.36,6.2-30.38,3.48-30-0.31c0.01-0.13,0.09-1.88,0.19-4.24l0.6-13.72c0-0.01,0-0.02,0-0.03
		c0.52-5.27,1.02-10.43,1.06-13.8c0.03-2.92,0.43-5.91,0.97-8.62c0.49-2.5,1.1-4.77,1.63-6.54c0.37-1.25,1.06-2.34,1.98-3.21
		c0.65-0.61,1.42-1.11,2.26-1.44c0.23-0.1,0.47-0.18,0.7-0.25c3.41-0.99,8.14-2.22,9.42-1.84c3.47,1.02,6.05,7.13,7.87,14.92
		C982.46,420.2,983.25,440.67,982.36,444.71L982.36,444.71z"/>
	<path class="st12" d="M968.9,384.24c-1.23,2.35-5.81,4.39-7.72,5.13l0.06-0.36l0.58-3.25l5.6-2.79
		C968.65,382.96,969.4,383.27,968.9,384.24L968.9,384.24z"/>
	<path class="st7" d="M959.09,385.44c0,0,10.1,3.15,11.97-3.17c1.86-6.32,4.43-10.17-1.94-12.45c-6.37-2.28-8.34-0.24-9.48,1.72
		C958.5,373.49,956.51,384.45,959.09,385.44L959.09,385.44z"/>
	<path class="st13" d="M960.04,370.93c0,0,0.64,7.36,2.17,7.04c1.52-0.32,2.9-0.56,2.68,1.66c-0.22,2.22-2.33,4.78,2.36,5.17
		c4.69,0.39,11.43-11.7,10.14-13.99C973.66,364.21,954.66,362.87,960.04,370.93L960.04,370.93z"/>
	<path class="st8" d="M952.55,440.16l0.6-13.72c0-0.01,0-0.02,0-0.03l17.15-10.25C970.3,416.16,970.96,440.09,952.55,440.16z"/>
	<path class="st7" d="M938.92,418.71l-4.15-2.56c-0.66-0.2-2.83-0.43-2.93-0.26s-0.4,0.69-0.02,0.87c0.38,0.18,0.85,0.12,0.71,0.24
		c-0.14,0.12-1.57-0.55-1.89,0.17c-0.33,0.73-0.62,3.22,1.05,3.97c1.67,0.75,5.8,0.07,6.09,0.16
		C940.31,422.03,938.92,418.71,938.92,418.71z"/>
	<path class="st11" d="M938.89,418.07c0,0,17.01,2.89,18.52,2.16c2.4-1.17-0.93-18.43-0.93-18.43s-0.14-3.91,4.42-4.83
		c3.97-0.8,7.8,2.17,7.8,2.17s3.48,3.12,3.04,6.57c-0.99,7.66-2.52,23.25-7.65,25.64c-6.61,3.08-25.74-8.55-25.74-8.55
		s-0.64-0.78-0.55-2.23C937.88,419.3,938.89,418.07,938.89,418.07L938.89,418.07z"/>
	<path class="st7" d="M927.46,376.65l-1.26-2.57c-0.17-0.41,0.25-0.32,0.67-0.09s0.99,1.48,1.64,1.33
		C929.01,375.2,927.46,376.65,927.46,376.65z"/>
	<path class="st13" d="M177.97,477.32c0,0,0.91-9.94-10.2-9.94c0,0,3.37,0.91,5.11,2.74c0,0-7.09-4.16-14.8,2.23
		c-7.71,6.39-2.92,22.43-5.27,25.47c-2.35,3.04-11.48,3.65-10.36,13.5s28.98,22.17,27.19,30.31c0,0,10.92-16.05,3.11-23.38
		c0,0,3.81,3.59,4.19,7.85c0,0,1.03-8.32-4.26-10.98c-4.69-2.36-8.52-10.97-8.12-12.51C164.98,501.07,177.97,477.32,177.97,477.32
		L177.97,477.32z"/>
	<path class="st7" d="M167.03,525.07c0,0,8.3,34.34,16.45,41.21c4.9,4.13,19.46,13.6,19.46,13.6l-6.06,2.2
		c0,0-20.2-6.82-24.72-12.14c-4.52-5.32-16.9-31.96-16.9-31.96L167.03,525.07L167.03,525.07z"/>
	<path class="st6" d="M89.02,585.4l0.23,0.4c1.82,3.16,5.98,10.89,10.57,19.36l6.6,12.13l9.07,16.03l4.08,6.45
		c0.18,0.29,0.22,0.62,0.2,0.95c-0.2,2.84-0.16,5.68,0.13,8.51c2.77,27.54,21.34,42.3,21.34,42.3l5.52,0.82
		c0,0-7.81-28.95-10.12-45.32c-0.39-2.77-0.56-5.02-0.42-6.49c0.41-4.26-0.35-10.52-1.78-17.71c-2.55-12.77-7.23-28.45-11.29-41
		c-0.26-0.8-8.02-28.89-8.02-28.89c-6.52,5.7-30.29,8.05-30.29,8.05S80.8,570.78,89.02,585.4L89.02,585.4z"/>
	<path class="st14" d="M158.35,699.33H135.3c0,0-0.55-3.51,0.65-6.18c1.15-2.56,2.8-2.64,0.21-6.65c1.47,1.51,6.17,2.13,9.5,1.68
		c0.41,0.66,2.63,5.1,4,6.08C151.17,695.36,157.88,694.97,158.35,699.33z"/>
	<path class="st15" d="M89.02,585.4l0.23,0.4c1.82,3.16,11.64,21.3,16.23,29.77c-5.32-21.88-1.62-43.76-1.62-43.76L89.02,585.4
		L89.02,585.4z"/>
	<path class="st13" d="M174.83,475.92c0.15-0.61-13.16,6.02-13.84,6.77c-6.24,6.93-4.46,15.96-0.89,16.05
		c2.29,0.06,1.85,3.86,1.85,3.86l25.53-10.8C187.47,491.81,184.4,473.88,174.83,475.92z"/>
	<path class="st16" d="M166.25,519.91c0,0,3.88,7.76,3.4,14.06c0,0-4.68,7.39-16.83,9.27C152.82,543.23,163.26,519.9,166.25,519.91z
		"/>
	<path class="st6" d="M106.98,562.7l0.08-4.31c-8.59,1.08-29.61-10.26-29.61-10.26s-8.98,5.98-10.21,23.04
		c-0.6,8.33-4.4,43.56-4.82,54.08l-0.22,7.62c0,0.34-0.16,0.64-0.36,0.9c-1.75,2.24-3.31,4.63-4.65,7.13
		c-13.1,24.38-6.25,57.51-6.25,57.51l3.04-0.77c0,0,11.08-34.34,18.32-49.2c1.23-2.52,2.35-4.48,3.28-5.61
		c2.72-3.31,5.59-8.92,8.42-15.68C89.35,614.36,106.98,562.7,106.98,562.7L106.98,562.7z"/>
	<path class="st14" d="M69.25,699.33H46.21c0,0-0.55-3.51,0.65-6.18c1.15-2.56,2.96-3.72,2.53-6.81c1.46,1.51,3.85,3.2,7.18,2.75
		c0.41,0.66,2.63,4.2,4,5.18C62.07,695.36,68.79,694.97,69.25,699.33L69.25,699.33z"/>
	<g>
		<path class="st16" d="M151.26,548.18c-3.1,0.53,0.51,2.99-3.75,3.45c-6.06,0.66-12.32,1.11-15.59,2.42
			c-1.2,0.48-1.99,1.07-2.24,1.82c-1.42,4.27-10.42,11.61-10.42,11.61c-40.13-1.83-42.71-19.71-42.71-19.71
			c26.05-25.3,48.2-39.08,66.52-40.79c4.46-0.41,10.46,0.14,13.28,1.4c6.41,2.85,9.91,11.53,9.91,11.53S163.02,546.18,151.26,548.18
			L151.26,548.18z"/>
		<path class="st16" d="M147.51,551.64c-6.06,0.66-12.32,1.11-15.59,2.42c-1.34-20.01,8.11-35.07,8.11-35.07L147.51,551.64
			L147.51,551.64z"/>
	</g>
	<path class="st7" d="M155.99,510.03c1.15,3.59,4.96,13.81,10.26,9.88c-0.18-0.76,0.93-2.98,2.24-5.24
		c1.68-2.88,3.67-5.82,3.67-5.82l-8.63-7.56l-0.52-0.45c-2.26,3.94-4.47,5.83-6.42,7.28C156.02,508.57,155.77,509.33,155.99,510.03z
		"/>
	<path class="st12" d="M172.16,508.86l-3.67,5.82c-5.36-3.31-5.37-9.94-4.95-13.38L172.16,508.86z"/>
	<path class="st7" d="M172.4,512.64c0,0-13.02-7.24-8.38-15.28c4.63-8.04,6.08-14.38,14.58-10.1s8.34,8.28,7.44,11.33
		C185.15,501.65,175.91,514.32,172.4,512.64L172.4,512.64z"/>
	<path class="st13" d="M188.25,493.91c-0.6-3.57-2.41-3.91-3.67-3.67c-4.81-7.95-12.66-4.85-12.66-4.85
		c-4.19,5.26-10.26,6.16-10.26,6.16s1.51,2.81,7.73,4.55c1.9,0.53,4.06,0.21,6.14-0.49c-4.32,2.41-8.83,3.33-8.83,3.33
		c8.2,0.75,16-6.75,16.81-7.55c0.38,1.16,1.04,3.6,0.64,5.37c-0.54,2.42-2.69,6.79-1.37,7.36
		C182.78,504.13,189.14,499.26,188.25,493.91L188.25,493.91z"/>
	<g>
		<path class="st7" d="M164.95,602.03c0,0,0.28,2.43,1.31,3.68c1.03,1.25,4.01,4.28,4.06,6.06c0,0-0.15,0.79-0.79,0.64
			c-0.64-0.14-2.86-2.34-4-2.19c0,0,0.61,3.56,1.21,4.56c0.6,1,1.71,4.77,1.35,5.64c-0.36,0.86-6.4-4.17-8.22-6.62
			s-0.03-12.43-0.03-12.43L164.95,602.03L164.95,602.03z"/>
		<path class="st7" d="M152.74,515.6c0,0-15.24-0.83-17.95,8.74c-2.71,9.57,5.08,47.76,6.76,51.7c3.06,7.18,17.93,27.66,17.93,27.66
			l5.47-1.66c0,0-9.92-31.29-12.13-34.39C149.34,562.78,157.3,519.76,152.74,515.6z"/>
	</g>
	<path class="st16" d="M131.78,537.13c0.04,0.22,14.42,2.65,23.42-1.92c0,0,7.51-23.54-3.22-22.41c-10.74,1.13-17.1,4.51-17.37,9.65
		C134.34,527.58,131.78,537.13,131.78,537.13z"/>
	<g>
		<defs>
			<rect id="SVGID_1_" x="164.6" y="569.83" width="72.66" height="72.66"/>
		</defs>
		<clipPath id="SVGID_00000155859572621107856540000013116671884734707842_">
			<use xlink:href="#SVGID_1_"  style="overflow:visible;"/>
		</clipPath>
		<g style="clip-path:url(#SVGID_00000155859572621107856540000013116671884734707842_);">
			<path class="st18" d="M164.8,606.16c0,12.34,7.17,23,17.56,28.05l-14.87-40.73C165.72,597.46,164.8,601.79,164.8,606.16
				L164.8,606.16z M217.01,604.58c0-3.85-1.38-6.52-2.57-8.6c-1.58-2.57-3.06-4.74-3.06-7.31c0-2.86,2.17-5.53,5.23-5.53
				c0.14,0,0.27,0.02,0.4,0.02c-5.55-5.08-12.93-8.18-21.05-8.18c-10.89,0-20.47,5.59-26.04,14.05l2.01,0.04
				c3.26,0,8.31-0.4,8.31-0.4c1.68-0.1,1.88,2.37,0.2,2.57c0,0-1.69,0.2-3.57,0.3l11.35,33.76l6.82-20.46l-4.86-13.3
				c-1.68-0.1-3.27-0.3-3.27-0.3c-1.68-0.1-1.48-2.67,0.2-2.57c0,0,5.15,0.4,8.21,0.4c3.26,0,8.31-0.4,8.31-0.4
				c1.68-0.1,1.88,2.37,0.2,2.57c0,0-1.69,0.2-3.57,0.3l11.26,33.5l3.11-10.39C215.98,610.35,217.01,607.25,217.01,604.58
				L217.01,604.58L217.01,604.58z M196.51,608.88l-9.35,27.17c2.86,0.84,5.82,1.27,8.8,1.27c3.53,0,7.02-0.6,10.35-1.77
				c-0.09-0.14-0.16-0.28-0.22-0.43L196.51,608.88L196.51,608.88z M223.32,591.2c0.13,0.99,0.21,2.06,0.21,3.2
				c0,3.16-0.59,6.72-2.37,11.16l-9.52,27.53c9.27-5.4,15.5-15.44,15.5-26.94C227.14,600.93,225.83,595.79,223.32,591.2
				L223.32,591.2L223.32,591.2z M195.97,569.83c-20.03,0-36.33,16.3-36.33,36.33s16.3,36.33,36.33,36.33s36.33-16.3,36.33-36.33
				S216,569.83,195.97,569.83z M195.97,640.82c-19.11,0-34.66-15.55-34.66-34.67s15.55-34.66,34.66-34.66s34.66,15.55,34.66,34.66
				S215.08,640.82,195.97,640.82L195.97,640.82z"/>
		</g>
	</g>
	<path class="st16" d="M1069.45,707.08c0,4.14-3.36,7.5-7.5,7.5H7.5c-4.14,0-7.5-3.36-7.5-7.5l0,0c0-4.14,3.36-7.5,7.5-7.5h1054.45
		C1066.09,699.58,1069.45,702.94,1069.45,707.08L1069.45,707.08z"/>
	<path class="st19" d="M1042.53,73.14h-44.25c-6.56,0-11.88,5.31-11.88,11.88v44.25c0,6.56,5.31,11.88,11.88,11.88h44.25
		c6.56,0,11.88-5.31,11.88-11.88V85.01c0-6.56-5.31-11.87-11.86-11.88C1042.54,73.14,1042.53,73.14,1042.53,73.14z M1005.89,119.75
		c0,1.51-1.23,2.71-2.72,2.71h-4.96c-1.51,0-2.72-1.23-2.72-2.71V94.53c0-1.51,1.23-2.71,2.72-2.71h4.96c1.51,0,2.72,1.23,2.72,2.71
		V119.75z M1032.26,124.49c0,1.51-1.23,2.71-2.71,2.71h-18.28c-1.51,0-2.72-1.23-2.72-2.71V89.78c0-1.51,1.23-2.71,2.72-2.71h18.28
		c1.51,0,2.71,1.23,2.71,2.71C1032.26,89.78,1032.26,124.49,1032.26,124.49z M1045.32,119.75c0,1.51-1.23,2.71-2.71,2.71h-4.96
		c-1.51,0-2.71-1.23-2.71-2.71V94.53c0-1.51,1.23-2.71,2.71-2.71h4.96c1.51,0,2.71,1.23,2.71,2.71V119.75z"/>
	<g>
		<circle class="st20" cx="471.54" cy="504.83" r="7.45"/>
		<circle class="st21" cx="492.02" cy="504.83" r="7.45"/>
		<circle class="st20" cx="512.49" cy="504.83" r="7.45"/>
	</g>
	<g>
		<rect x="824.1" y="130.96" class="st22" width="31.28" height="31.28"/>
		<g>
			<g>
				<path class="st23" d="M838.43,146.6l5.03-5.03c0.17-0.17,0.17-0.34,0.17-0.5c0-0.17,0-0.34-0.17-0.5l-0.5-0.5
					c-0.17-0.17-0.34-0.17-0.5-0.17c-0.17,0-0.34,0-0.5,0.17l-6.04,6.04c-0.17,0.17-0.17,0.34-0.17,0.5c0,0.17,0,0.34,0.17,0.5
					l6.04,6.04c0.17,0.17,0.34,0.17,0.5,0.17c0.17,0,0.34,0,0.5-0.17l0.5-0.5c0.34-0.34,0.34-0.84,0-1.01L838.43,146.6z"/>
			</g>
		</g>
	</g>
	<g>
		
			<rect x="864.61" y="130.96" transform="matrix(-1 -8.979896e-11 8.979896e-11 -1 1760.5048 293.1968)" class="st22" width="31.28" height="31.28"/>
		<g>
			<g>
				<path class="st23" d="M881.58,146.6l-5.12,5.12c-0.17,0.17-0.17,0.34-0.17,0.51c0,0.17,0,0.34,0.17,0.51l0.51,0.51
					c0.17,0.17,0.34,0.17,0.51,0.17s0.34,0,0.51-0.17l6.15-6.15c0.17-0.17,0.17-0.34,0.17-0.51c0-0.17,0-0.34-0.17-0.51l-6.15-6.15
					c-0.17-0.17-0.34-0.17-0.51-0.17s-0.34,0-0.51,0.17l-0.51,0.51c-0.34,0.34-0.34,0.85,0,1.02L881.58,146.6z"/>
			</g>
		</g>
	</g>
	<text transform="matrix(1 0 0 1 88.7331 146.5986)" class="st24 st25">Logo Carousel</text>
	<text transform="matrix(1 0 0 1 88.6608 376.1748)" class="st24 st25">Top Brands</text>
	<rect x="88.73" y="176.32" class="st26" width="187.83" height="108.75"/>
	<path class="st27" d="M178.35,244.17l-8.95-7.79l-27.79,25.11h87.2l-32.56-36.39L178.35,244.17L178.35,244.17z M134.51,261.5h1.98
		l32.91-29.76l8.84,7.67l18.25-19.42l34.3,38.25v-58.37h-96.27V261.5z M150.09,209.64c3.6,0,6.4,2.91,6.4,6.4
		c0,3.49-2.91,6.4-6.4,6.4c-3.6,0-6.4-2.91-6.4-6.4C143.7,212.55,146.49,209.64,150.09,209.64z"/>
	<path class="st28" d="M130.91,460.15l-8.95-7.79l-27.79,25.11h87.2l-32.56-36.39L130.91,460.15L130.91,460.15z M87.08,477.47h1.98
		l32.91-29.76l8.84,7.67l18.25-19.42l34.3,38.25v-58.37H87.08V477.47z M102.66,425.61c3.6,0,6.4,2.91,6.4,6.4
		c0,3.49-2.91,6.4-6.4,6.4c-3.6,0-6.4-2.91-6.4-6.4S99.05,425.61,102.66,425.61z"/>
	<rect x="294.71" y="176.32" class="st26" width="187.83" height="108.75"/>
	<path class="st29" d="M384.32,244.17l-8.95-7.79l-27.79,25.11h87.2l-32.56-36.39L384.32,244.17L384.32,244.17z M340.49,261.5h1.98
		l32.91-29.76l8.84,7.67l18.25-19.42l34.3,38.25v-58.37h-96.27V261.5z M356.07,209.64c3.6,0,6.4,2.91,6.4,6.4
		c0,3.49-2.91,6.4-6.4,6.4c-3.6,0-6.4-2.91-6.4-6.4C349.67,212.55,352.46,209.64,356.07,209.64z"/>
	<path class="st30" d="M271.82,460.15l-8.95-7.79l-27.79,25.11h87.2l-32.56-36.39L271.82,460.15L271.82,460.15z M227.98,477.47h1.98
		l32.91-29.76l8.84,7.67l18.25-19.42l34.3,38.25v-58.37h-96.27V477.47z M243.56,425.61c3.6,0,6.4,2.91,6.4,6.4
		c0,3.49-2.91,6.4-6.4,6.4c-3.6,0-6.4-2.91-6.4-6.4S239.96,425.61,243.56,425.61z"/>
	<path class="st31" d="M412.72,460.15l-8.95-7.79l-27.79,25.11h87.2l-32.56-36.39L412.72,460.15L412.72,460.15z M368.88,477.47h1.98
		l32.91-29.76l8.84,7.67l18.25-19.42l34.3,38.25v-58.37h-96.27V477.47z M384.46,425.61c3.6,0,6.4,2.91,6.4,6.4
		c0,3.49-2.91,6.4-6.4,6.4c-3.6,0-6.4-2.91-6.4-6.4S380.86,425.61,384.46,425.61z"/>
	<path class="st32" d="M553.62,460.15l-8.95-7.79l-27.79,25.11h87.2l-32.56-36.39L553.62,460.15L553.62,460.15z M509.79,477.47h1.98
		l32.91-29.76l8.84,7.67l18.25-19.42l34.3,38.25v-58.37h-96.27V477.47z M525.37,425.61c3.6,0,6.4,2.91,6.4,6.4
		c0,3.49-2.91,6.4-6.4,6.4c-3.6,0-6.4-2.91-6.4-6.4S521.76,425.61,525.37,425.61z"/>
	<path class="st33" d="M694.53,460.15l-8.95-7.79l-27.79,25.11h87.2l-32.56-36.39L694.53,460.15L694.53,460.15z M650.69,477.47h1.98
		l32.91-29.76l8.84,7.67l18.25-19.42l34.3,38.25v-58.37h-96.27V477.47z M666.27,425.61c3.6,0,6.4,2.91,6.4,6.4
		c0,3.49-2.91,6.4-6.4,6.4c-3.6,0-6.4-2.91-6.4-6.4S662.67,425.61,666.27,425.61z"/>
	<path class="st34" d="M835.43,460.15l-8.95-7.79l-27.79,25.11h87.2l-32.56-36.39L835.43,460.15L835.43,460.15z M791.6,477.47h1.98
		l32.91-29.76l8.84,7.67l18.25-19.42l34.3,38.25v-58.37H791.6V477.47z M807.18,425.61c3.6,0,6.4,2.91,6.4,6.4
		c0,3.49-2.91,6.4-6.4,6.4c-3.6,0-6.4-2.91-6.4-6.4S803.57,425.61,807.18,425.61z"/>
	<rect x="500.95" y="176.32" class="st26" width="187.83" height="108.75"/>
	<path class="st35" d="M590.56,244.17l-8.95-7.79l-27.79,25.11h87.2l-32.56-36.39L590.56,244.17L590.56,244.17z M546.73,261.5h1.98
		l32.91-29.76l8.84,7.67l18.25-19.42l34.3,38.25v-58.37h-96.27V261.5z M562.31,209.64c3.6,0,6.4,2.91,6.4,6.4
		c0,3.49-2.91,6.4-6.4,6.4c-3.6,0-6.4-2.91-6.4-6.4C555.91,212.55,558.71,209.64,562.31,209.64z"/>
	<rect x="707.19" y="176.32" class="st26" width="187.83" height="108.75"/>
	<path class="st36" d="M796.81,244.17l-8.95-7.79l-27.79,25.11h87.2l-32.56-36.39L796.81,244.17L796.81,244.17z M752.97,261.5h1.98
		l32.91-29.76l8.84,7.67l18.25-19.42l34.3,38.25v-58.37h-96.27V261.5z M768.55,209.64c3.6,0,6.4,2.91,6.4,6.4
		c0,3.49-2.91,6.4-6.4,6.4c-3.6,0-6.4-2.91-6.4-6.4C762.16,212.55,764.95,209.64,768.55,209.64z"/>
</g>
</svg>
