<?xml version="1.0" encoding="utf-8"?>
<!-- Generator: Adobe Illustrator 25.4.1, SVG Export Plug-In . SVG Version: 6.00 Build 0)  -->
<svg version="1.1" id="Layer_1" xmlns:v="https://vecta.io/nano"
	 xmlns="http://www.w3.org/2000/svg" xmlns:xlink="http://www.w3.org/1999/xlink" x="0px" y="0px" viewBox="0 0 960 560"
	 style="enable-background:new 0 0 960 560;" xml:space="preserve">
<style type="text/css">
	.st0{fill:#FFFFFF;stroke:#055168;stroke-width:3;stroke-miterlimit:10;}
	.st1{fill:#005468;}
	.st2{fill:#D45A56;}
	.st3{fill:#FECE2F;}
	.st4{fill:#37D436;}
	.st5{opacity:0.5;fill:#148057;enable-background:new    ;}
	.st6{fill:#CC2229;}
	.st7{fill:#23835A;}
	.st8{fill:#78AB4B;}
	.st9{fill:#D52B1E;}
	.st10{fill:#003478;}
	.st11{fill:#ED1B2D;}
	.st12{fill:#006BB6;}
	.st13{fill:#C42B05;}
	.st14{fill:#76B900;}
	.st15{fill:#AD292F;}
	.st16{fill:#B3D6F2;}
	.st17{fill:#FADF3C;}
	.st18{fill:#E19636;}
	.st19{fill:#CD3072;}
	.st20{fill:#92B949;}
	.st21{fill:#2CA2E1;}
	.st22{fill:#1D5693;}
	.st23{fill:#2D8CFF;}
	.st24{fill:#FF0025;}
	.st25{fill:#00ACEC;}
	.st26{fill:#333333;}
	.st27{opacity:0.8;fill:#15845A;enable-background:new    ;}
	.st28{fill:#15845A;}
	.st29{opacity:0.3;fill:#15845A;enable-background:new    ;}
	.st30{display:none;fill:#FFFFFF;stroke:#DEE1E6;stroke-width:3;stroke-miterlimit:10;}
	.st31{fill:#FFFFFF;stroke:#D2D2D2;stroke-miterlimit:10;}
	.st32{fill:#E0E0E0;}
	.st33{fill:#FF5F57;}
	.st34{fill:#FEBC2D;}
	.st35{fill:#27C840;}
	.st36{fill:#D8DCDE;}
	.st37{fill:#187C6D;}
	.st38{fill:#FFFFFF;stroke:#E1E6EA;stroke-width:0.75;stroke-miterlimit:10;}
	.st39{fill:#BDC5CB;}
	.st40{font-family:'AsapCondensed-Medium';}
	.st41{font-size:15.7516px;}
	.st42{fill:none;stroke:#E1E6EA;stroke-miterlimit:10;}
	.st43{fill:#00C3FF;}
	.st44{fill:#F0D272;}
	.st45{fill:#108C99;}
	.st46{fill:#84EEB4;}
	.st47{fill:#BFF281;}
	.st48{fill:#F39AD9;}
	.st49{fill:#B14CD6;}
	.st50{fill:#71D9F8;}
	.st51{fill:#FF6700;}
</style>
<path class="st0" d="M-476.66,601.29v492.14c0,8.61-8.02,15.59-17.9,15.59h-916.05c-9.89,0-17.91-6.98-17.91-15.59V601.29
	c0-8.62,8.02-15.59,17.91-15.59h916.05C-484.68,585.7-476.66,592.67-476.66,601.29L-476.66,601.29z"/>
<path class="st1" d="M-473.04,574.21v48.58h-964.47v-48.58c0-10.03,8.12-18.14,18.14-18.14h928.19
	C-481.16,556.06-473.04,564.18-473.04,574.21L-473.04,574.21z"/>
<circle class="st2" cx="-1392.06" cy="589.42" r="8.45"/>
<circle class="st3" cx="-1358.78" cy="589.42" r="8.45"/>
<circle class="st4" cx="-1324.65" cy="589.42" r="8.45"/>
<path class="st5" d="M-399.94,929.67l-3.24-1.07c-0.54-0.18-0.91-0.72-0.87-1.29c0.17-2.39-0.04-4.77-0.61-7.08
	c-0.13-0.54,0.09-1.11,0.56-1.38l4.77-2.95c0.53-0.33,0.74-1.01,0.47-1.58l-2.4-5.03c-0.28-0.59-0.97-0.87-1.58-0.64l-5.7,2.14
	c-0.49,0.19-1.05,0.06-1.4-0.33c-0.78-0.84-1.62-1.62-2.53-2.33l-1.52-1.1c-0.4-0.27-0.62-0.74-0.57-1.22l0.73-5.78
	c0.08-0.67-0.35-1.29-1.01-1.43l-5.25-1.13l-0.13-0.02c-0.64-0.13-1.27,0.23-1.48,0.85l-1.41,4.26c-0.02,0.07-0.05,0.13-0.08,0.2
	c-0.24,0.44-0.71,0.71-1.21,0.66c-2.97-0.25-5.96,0.09-8.79,1.01c-0.12,0.04-0.24,0.06-0.35,0.06c-0.46,0.01-0.89-0.22-1.13-0.61
	l-1.96-3.18c-0.26-0.41-0.72-0.64-1.21-0.6c-0.15,0.01-0.3,0.05-0.44,0.12l-4.95,2.36c-0.61,0.29-0.9,1.01-0.66,1.65l1.76,4.66
	c0.17,0.46,0.06,0.97-0.28,1.33l-1.4,1.61c-0.82,1.04-1.55,2.14-2.17,3.31h-0.01c-0.25,0.48-0.77,0.75-1.31,0.68l-5.01-0.63
	l-0.25-0.03c-0.65-0.09-1.26,0.34-1.4,0.99l-1.15,5.37c-0.13,0.66,0.24,1.31,0.88,1.53l4.74,1.57c0.52,0.17,0.88,0.66,0.88,1.22
	c0.03,2.32,0.4,4.62,1.13,6.83c0.18,0.57-0.04,1.17-0.54,1.48l-3.78,2.34c-0.57,0.35-0.78,1.08-0.49,1.68l2.36,4.97
	c0.28,0.59,0.97,0.86,1.57,0.63l5.48-2.05c0.47-0.18,0.99-0.07,1.36,0.27l1.4,1.21c0.9,0.71,1.86,1.36,2.87,1.93
	c0.45,0.25,0.71,0.75,0.64,1.26l-0.77,6.03c-0.08,0.66,0.36,1.28,1.01,1.42l5.39,1.16c0.57,0.11,1.15-0.17,1.4-0.68
	c0.03-0.06,0.06-0.11,0.07-0.17l1.74-5.26c0.16-0.49,0.59-0.84,1.1-0.88c0.04,0,0.09-0.01,0.13-0.01c0.14,0.01,0.27,0.01,0.4-0.01
	c1.6,0,3.19-0.18,4.75-0.54c0.52-0.12,1.06,0.11,1.34,0.58l2.47,3.98c0.35,0.57,1.07,0.78,1.67,0.49l1.1-0.52l3.84-1.84
	c0.6-0.29,0.88-0.99,0.65-1.62l-1.73-4.59c-0.19-0.49-0.04-1.04,0.35-1.38c1.06-0.92,2.03-1.94,2.89-3.04
	c0.66-0.83,1.26-1.71,1.77-2.6l1.05,0.13l4.32,0.54c0.54,0.08,1.05-0.21,1.28-0.67c0.05-0.1,0.08-0.21,0.11-0.31l1.17-5.41
	C-398.95,930.52-399.32,929.89-399.94,929.67z M-421.21,936.67l-0.53,0.26c-1.68,0.8-4.55,1.12-6.37,0.75
	c-0.91-0.19-1.8-0.47-2.66-0.83c-8.22-3.47-9.99-13.68-4.05-19.7c1.05-1.05,2.32-1.97,3.84-2.71c0.36-0.17,0.73-0.31,1.1-0.42
	c1.74-0.53,4-0.7,5.55-0.36C-412.51,916.27-410.62,931.15-421.21,936.67z"/>
<path class="st6" d="M-1348.04,786.49l0.47-0.59c0.71-0.35,1.42,0,2.13,0.24c0.82-1.89,0.7-4.48,1.06-6.61l-2.48-0.59
	c-1.42-0.47-3.3,0.47-4.25-0.83l-7.79-19.59l-0.59-0.59l-5.78,2.36l-15.58,38.71c2.71-0.59,5.19-2.01,7.91-2.6
	c4.96-5.31,10.62-9.56,17.35-10.15l5.43,12.51c2.01-0.71,4.13-1.65,5.9-2.72L-1348.04,786.49L-1348.04,786.49z M-1366.57,782.72
	c1.06-3.9,2.95-7.91,4.37-11.8c1.3,2.6,2.48,5.55,3.42,8.5C-1361.49,780.23-1364.09,781.41-1366.57,782.72L-1366.57,782.72z
	 M-1335.77,797.94l-5.31,0.12l-0.35-0.47l0.23-39.41h5.31L-1335.77,797.94L-1335.77,797.94L-1335.77,797.94z M-1308.97,772.09
	c2.83,3.42,3.07,8.61,1.41,12.63c-2.48,6.96-9.79,10.98-16.17,13.1c0-2.24,1.18-4.6,1.77-6.85c4.49-2.48,9.8-6.84,9.8-12.74
	c-0.24-0.94-1.18-1.54-1.89-2.13c-4.48-0.23-7.67,4.13-9.91,7.32c-3.66,7.55-2.95,17.11-2.83,25.96l-5.78,0.12l-0.12-38.24l5.9-0.12
	c0.12,1.53-0.24,3.31,0.24,4.72C-1322.31,770.91-1314.29,768.43-1308.97,772.09L-1308.97,772.09z M-1286.91,770.91
	c2.6,2.6,2.83,6.14,2.6,9.91c-1.65,0.83-3.66,0.59-5.43,1.18c0-1.41,0.94-4.01-0.83-5.19c-2.59,0.35-2.83,3.42-4.25,5.07
	c-1.77,4.37-2.83,8.97-3.9,13.57l-4.95,2.36c-0.59-8.62-0.24-17.47-0.36-26.2l5.43-0.23c0.12,1.89-0.24,3.78,0.24,5.43
	c1.53-2.6,4.01-6.14,7.44-6.61C-1289.38,769.97-1288.09,770.32-1286.91,770.91L-1286.91,770.91L-1286.91,770.91z M-1219.28,773.16
	c2.24,2.59,1.89,6.61,0.24,9.44c-3.19,4.13-7.79,5.78-12.75,6.38c-0.47-1.77,0.47-3.42,0.36-5.08c2.48-1.54,6.02-1.65,7.55-4.49
	c0.47-1.06-0.24-2.36-1.53-2.12c-3.31,0.23-6.02,3.07-8.03,5.78c-1.06,1.77-1.53,4.37-0.71,6.49c0.12,1.3,1.65,2.48,2.83,3.07
	c2.95,0.94,6.14-0.24,8.5-2.12c0.71,1.65,1.06,3.78,1.65,5.55c-2.71,2.12-6.37,3.89-10.27,2.72c-3.42-0.47-6.85-2.83-8.38-6.14
	c-2.36-6.14,0-13.1,5.07-17.7C-1230.62,771.86-1223.77,768.91-1219.28,773.16L-1219.28,773.16z M-1242.3,772.09
	c-0.24,1.77-1.3,3.54-1.89,5.31c-2.36,0.23-6.13-1.3-7.79,1.3c0.83,4.13,6.6,3.07,7.79,7.32c0.95,2.71,0.59,6.25-1.06,8.49
	c-4.49,5.08-11.8,5.43-18.41,4.37c0.24-1.53,0.94-3.18,1.3-4.95c4.48,0.23,9.91,0.94,12.51-3.42c-0.12-4.84-6.37-3.42-7.79-7.79
	c-0.59-1.65-1.41-3.78-0.47-5.67c1.18-3.54,4.96-4.84,8.26-5.66C-1247.14,771.27-1244.66,771.74-1242.3,772.09L-1242.3,772.09
	L-1242.3,772.09z M-1269.44,774.1c-4.96,2.48-9.56,7.67-10.15,13.34c0.23,2.24,0.82,4.84,3.19,5.9c1.54,0.95,3.42,0.36,4.72-0.47
	c2.95-2.24,4.84-5.66,3.78-9.09c-0.35-1.42-1.89-2.48-2.95-3.3l2.01-4.96c2.48,0.23,4.6,2.48,5.78,4.6c1.65,4.6,1.89,10.5-1.3,14.51
	c-3.54,4.13-9.09,5.9-14.4,4.37c-2.24-0.71-4.84-2.72-5.66-5.07c-2.24-5.55-0.59-11.92,3.54-15.93c3.3-3.54,7.55-5.08,11.68-6.14
	L-1269.44,774.1L-1269.44,774.1L-1269.44,774.1z"/>
<path d="M-1326.1,761.06c-0.15-0.53-0.43-1.53-1.96-1.53c-0.89,0-2.2,0.59-2.2,3.1c0,1.59,0.63,3.03,2.2,3.03
	c1.02,0,1.74-0.58,1.96-1.67h1.85c-0.37,1.93-1.63,3.27-3.85,3.27c-2.36,0-4.05-1.59-4.05-4.65c0-3.1,1.79-4.68,4.07-4.68
	c2.66,0,3.73,1.83,3.83,3.14H-1326.1L-1326.1,761.06z M-1314.88,763.05v3.98h-1.85v-8.86h1.85v3.36h3.46v-3.36h1.85v8.86h-1.85
	v-3.98H-1314.88z M-1300.12,762.59c0-2.48,1.41-3.1,2.41-3.1s2.41,0.62,2.41,3.1s-1.41,3.1-2.41,3.1S-1300.12,765.07-1300.12,762.59
	z M-1301.97,762.59c0,4.16,3.09,4.67,4.26,4.67s4.26-0.51,4.26-4.67s-3.09-4.67-4.26-4.67S-1301.97,758.43-1301.97,762.59
	L-1301.97,762.59z M-1280.14,761.06c-0.15-0.53-0.43-1.53-1.96-1.53c-0.89,0-2.2,0.59-2.2,3.1c0,1.59,0.63,3.03,2.2,3.03
	c1.03,0,1.75-0.58,1.96-1.67h1.85c-0.37,1.93-1.63,3.27-3.85,3.27c-2.36,0-4.06-1.59-4.06-4.65c0-3.1,1.79-4.68,4.08-4.68
	c2.66,0,3.73,1.83,3.83,3.14H-1280.14z M-1269.25,762.59c0-2.48,1.41-3.1,2.41-3.1s2.41,0.62,2.41,3.1s-1.41,3.1-2.41,3.1
	S-1269.25,765.07-1269.25,762.59L-1269.25,762.59z M-1271.1,762.59c0,4.16,3.09,4.67,4.26,4.67s4.26-0.51,4.26-4.67
	s-3.09-4.67-4.26-4.67S-1271.1,758.43-1271.1,762.59L-1271.1,762.59z M-1253.07,765.42h4.41v1.61h-6.26v-8.86h1.85V765.42
	L-1253.07,765.42z M-1237.69,760.16h0.02l1.1,3.51h-2.26L-1237.69,760.16z M-1239.32,765.2h3.28l0.57,1.83h2.01l-3.13-8.86h-2.14
	l-3.16,8.86h1.95L-1239.32,765.2z M-1223.45,767.02h-1.85v-7.3h-2.68v-1.57h7.21v1.57h-2.68L-1223.45,767.02L-1223.45,767.02z"/>
<path class="st7" d="M-1108.5,794.51l5.95-32.16h11.85l-4.1,22.2h9.87l-1.81,9.96H-1108.5z M-1060,782.62l-2.16,11.59
	c-0.95,0.34-1.92,0.61-2.91,0.79c-0.96,0.18-1.93,0.27-2.91,0.27c-1.94,0-3.88-0.31-5.6-0.97c-1.81-0.62-3.35-1.54-4.8-2.78
	c-1.54-1.32-2.73-3-3.57-4.98c-0.87-1.98-1.32-4.13-1.32-6.3c0-2.42,0.4-4.67,1.14-6.74c0.7-2.1,1.82-4.04,3.31-5.68
	c1.67-2.07,3.79-3.61,6.26-4.67c2.5-1.11,5.2-1.68,7.93-1.67c1.5,0,2.95,0.22,4.32,0.48c1.32,0.31,2.64,0.75,3.92,1.37l-2.03,10.75
	c-1.02-0.57-2.1-1.03-3.22-1.36c-1.1-0.31-2.11-0.49-3.13-0.49c-1.98,0-3.61,0.62-4.98,1.9c-1.28,1.28-1.9,2.95-1.9,4.93
	c0,1.72,0.53,3.04,1.5,4.01c1.01,1.01,2.42,1.45,4.05,1.45c1.02,0,2.03-0.17,3-0.49C-1061.98,783.68-1060.96,783.23-1060,782.62
	L-1060,782.62L-1060,782.62z M-1021.54,794.56l5.9-32.11h11.8l3.7,10.27c0.09,0.13,0.13,0.4,0.26,0.7c0.84,2.25,1.41,4.14,1.72,5.77
	l3.08-16.74h11.67l-5.95,32.11h-11.8l-5.9-16.56c-0.09,1.54-0.4,3.96-1.01,7.31l-0.09,0.26l-1.63,8.99L-1021.54,794.56
	L-1021.54,794.56L-1021.54,794.56L-1021.54,794.56z"/>
<path class="st8" d="M-1144.14,794.42h12.42l8.9-19.56l1.41,19.52h11.15l-4.14-31.46h-12.73L-1144.14,794.42L-1144.14,794.42
	L-1144.14,794.42z"/>
<path class="st7" d="M-1128.15,761.16l15.11,0.04l4.63,33.44l0.75-4.45l-4.27-30.27h-17.09l-20.05,37.09l19.47,0.09l4.45-9.56
	l0.62,9.6l134.85-0.04l0.13-1.15l-133.61-0.18l-0.84-14.58l-6.39,14.58h-16.43L-1128.15,761.16L-1128.15,761.16L-1128.15,761.16z"/>
<path d="M-1030.96,803.02c0.18-0.53-1.32-0.22-1.32-0.22l-1.54,0.18c-0.84,0.09-1.54,0.26-1.54,0.26c-0.7,0.22-0.53,0.79-0.53,0.79
	c0.18,0.35,0.75,0,0.75,0c0.35-0.18,1.06-0.4,1.06-0.4c0.53-0.13,0.53,0.13,0.53,0.13c0.04,0.17-0.04,0.7-0.04,0.7
	c-0.18,1.37-1.01,2.11-1.01,2.11c-0.53,0.49-1.28,0.13-1.28,0.13c-1.19-0.62-1.23-2.38-1.23-2.38c0.04-2.16,0.79-3.13,0.79-3.13
	c0.66-0.97,1.54-0.92,1.54-0.92c0.44,0,0.22,0.66,0.22,0.66c-0.09,0.35,0.04,0.53,0.04,0.53c0.31,0.31,0.57-0.09,0.57-0.09
	c0.22-0.53,0.57-1.15,0.57-1.15c0.22-0.4,0-0.49,0-0.49c-0.22-0.17-0.48,0.09-0.48,0.09c-0.18,0.18-0.35,0-0.35,0
	c-0.22-0.31-0.75-0.22-0.75-0.22c-1.36,0.27-1.94,1.59-1.94,1.59c-0.75,1.54-0.62,3.52-0.62,3.52c0.18,1.76,1.37,2.55,1.37,2.55
	c1.23,0.75,2.29-0.79,2.29-0.79c0.79-1.06,0.66-3.08,0.66-3.08c0.44-0.09,1.32-0.04,1.32-0.04
	C-1031.1,803.41-1030.96,803.02-1030.96,803.02L-1030.96,803.02z M-1011.14,800.28c0,0-0.48,0-0.44,0.84l-0.04,1.01
	c0,0,0.04,0.26,0.13,0.31c0,0,0.09,0.13,0.09,0.48l-0.13,2.73c0,0-0.09,0.88,0.22,0.88c0,0,0.4,0.13,0.31-0.7l-0.04-2.91
	c0,0,0-0.31,0.09-0.4c0,0,0.09-0.18,0.09-0.44c0,0-0.04-0.35,0-1.06C-1010.87,801.03-1010.74,800.33-1011.14,800.28L-1011.14,800.28
	L-1011.14,800.28z M-1007.84,804.12c0,0-0.79,0.18-1.59,0.66c0,0-0.48,0.4-0.48,0.53c0,0-0.09,0.26,0.35-0.04c0,0,0.53-0.53,1.8-0.7
	c0,0,0.57,0.04,0.62-0.27C-1007.13,804.29-1007.13,803.98-1007.84,804.12z M-988.54,805.57c0,0-0.35-0.35-0.62-0.04
	c0,0-0.22,0.31-0.04,0.57c0,0,0.4,0.4,0.71,0.18C-988.5,806.27-988.23,805.88-988.54,805.57L-988.54,805.57L-988.54,805.57z
	 M-988.89,804.82c0.27-0.13,0.18-1.19,0.18-1.19l0.04-3.3c0-0.66-0.35-0.44-0.35-0.44c-0.4,0.31-0.35,0.84-0.35,0.84l0.04,2.78
	c-0.04,0.35-0.04,1.01-0.04,1.01C-989.29,805.04-988.89,804.82-988.89,804.82z"/>
<path class="st7" d="M-1039.03,761.74c-2.29,0.09-4.54,0.66-6.56,1.59c-2.42,1.1-4.49,2.64-6.12,4.62
	c-1.45,1.72-2.51,3.61-3.26,5.68s-1.1,4.32-1.1,6.7c0,2.25,0.44,4.32,1.28,6.26c0.84,1.98,1.98,3.66,3.52,4.98
	c1.42,1.26,3.09,2.22,4.89,2.82c1.85,0.62,3.92,0.97,6.17,0.97l1.19-0.04c2.42-0.13,4.62-0.66,6.7-1.59
	c2.33-1.01,4.41-2.6,6.12-4.67c1.41-1.65,2.5-3.55,3.22-5.6c0.75-2.07,1.1-4.36,1.1-6.74c0-4.45-1.45-8.11-4.4-10.88
	c-2.91-2.78-6.78-4.14-11.5-4.14C-1038.19,761.69-1038.63,761.69-1039.03,761.74L-1039.03,761.74L-1039.03,761.74z M-1039.03,784.64
	h-0.44c-1.63,0-2.91-0.48-3.88-1.45c-0.93-0.97-1.37-2.33-1.37-4.01c0-1.98,0.53-3.57,1.72-4.89c1.1-1.15,2.42-1.81,3.96-1.89h0.53
	c1.54,0,2.78,0.44,3.79,1.45c0.97,1.06,1.45,2.34,1.45,3.92c0,1.94-0.57,3.61-1.81,4.93
	C-1036.16,783.85-1037.48,784.51-1039.03,784.64L-1039.03,784.64z"/>
<path d="M-1030.17,806.05c-0.12,0-0.22-0.05-0.31-0.13c0,0-0.22-0.18,0.18-0.49l0.13-0.13c0.31-0.26,1.01-1.01,1.06-2.34
	c0,0-0.04-1.1-0.97-0.53c0,0-0.04,0-0.09,0.04c-0.27,0.27-1.06,1.06-1.06,3c0,0,0,1.1,1.06,1.23h0.18c0,0,0.88-0.04,1.37-1.28
	l0.04,0.62c0,0,0,0.31,0.31,0.22c0,0,0.18-0.13,0.18-0.4c0,0,0.18-1.15,0.4-1.8c0,0,0.22-0.88,0.35-0.22v0.88c0,0,0,1.36,0.22,1.76
	c0,0,0.31,0.66,0.79,0.04c0,0,0.31-0.57,0.4-1.01c0,0,0.14-0.57,0.18-0.04c0,0,0.18,0.88,0.44,1.19c0,0,0.4,0.4,0.79-0.09l0.4-0.53
	c0,0,0.18-0.35,0.27,0.04c0,0,0.17,0.57,0.79,0.57c0.09,0.04,0.13,0.04,0.22,0c0,0,0.71,0,1.19-0.88c0,0,0.31-0.71,0.35-1.01
	c0,0,0.17-0.79-0.18-0.26c0,0-0.18,0.31-0.22,0.53c0,0-0.35,1.01-1.28,1.06c0,0-0.05,0-0.09-0.04c-0.12-0.01-0.23-0.05-0.31-0.13
	c0,0-0.17-0.13,0.09-0.35l0.22-0.22c0.35-0.31,0.97-1.01,1.06-1.94c0,0,0.18-1.1-0.48-1.1c0,0-0.27,0-0.57,0.22
	c-0.19,0.2-0.35,0.42-0.48,0.66l-0.71,2.11c0,0-0.53,1.45-0.88,0.71c0,0-0.22-0.62-0.27-1.37l0.04-0.92c0,0,0-0.26,0.26-0.26h1.06
	c0,0,0.35,0.04,0.35-0.35c0,0,0.14-0.27-0.35-0.31l-1.01,0.04c0,0-0.18,0.09-0.09-0.22l0.18-1.01c0,0,0.13-0.71-0.18-0.79
	c0,0-0.31-0.09-0.4,0.57l-0.18,1.32c0,0-0.04,0.18-0.18,0.13l-0.44,0.04c0,0-0.27,0-0.44,0.4c0,0-0.18,0.31,0.27,0.27h0.53
	c0,0,0.35-0.09,0.18,0.26c0,0-0.44,1.41-0.7,1.89c0,0-0.31,0.66-0.4,0.04l-0.09-1.76c0,0,0.04-1.23-0.31-1.41
	c0,0-0.31-0.13-0.44,0.35l-0.31,1.1c0,0-0.18,0.49-0.13-0.04c0,0,0-0.31,0.04-0.84c0,0,0.13-0.62-0.09-0.7c0,0-0.35-0.13-0.4,0.62
	l0.04,1.23c0,0-0.09,0.97-0.66,1.5C-1029.25,805.79-1029.73,806.14-1030.17,806.05L-1030.17,806.05L-1030.17,806.05z
	 M-1023.08,804.73l-0.22,0.22c-0.57,0.53-0.35-0.53-0.35-0.53c0.09-0.53,0.35-0.97,0.57-1.23l0.22-0.22
	c0.48-0.35,0.44,0.35,0.44,0.35C-1022.46,803.98-1022.81,804.47-1023.08,804.73L-1023.08,804.73L-1023.08,804.73z M-1030.17,804.73
	l-0.22,0.22c-0.57,0.53-0.35-0.53-0.35-0.53c0.09-0.53,0.35-0.97,0.57-1.23l0.22-0.22c0.48-0.35,0.4,0.35,0.4,0.35
	C-1029.55,803.98-1029.91,804.47-1030.17,804.73L-1030.17,804.73z M-1018.28,801.74c-0.27,0-0.53,0.13-0.84,0.48
	c0,0-0.66,0.84-0.66,2.86c0,0-0.04,1.32,0.88,1.63c0,0,0.22,0.13,0.62-0.09c0.13-0.04,0.35-0.22,0.53-0.44l0.48-1.06
	c0,0,0.14-0.48,0.18-0.09c0,0,0.04,0.75,0.31,1.32c0,0,0.26,0.49,0.62,0.04c0,0,0.17-0.4,0.26-0.04c0.13,0.25,0.38,0.4,0.66,0.4
	c0.18,0,0.35-0.04,0.62-0.22c0,0,0.62-0.35,1.01-1.32c0,0,0.13-0.35,0.13-0.62c0,0,0-0.53-0.18-0.13c0,0-0.31,0.93-0.57,1.15
	c0,0-0.49,0.57-1.01,0.44c-0.04-0.04-0.13-0.04-0.18-0.09c0,0-0.26-0.18,0-0.4c0,0,0.09-0.04,0.18-0.13
	c0.22-0.22,0.62-0.66,0.79-1.19c0,0,0.31-0.71,0.26-1.41c0,0-0.17-0.97-1.06-0.31l-0.04,0.04c0,0-0.79,0.75-1.01,2.11
	c0,0-0.04,0.53,0,0.88c0,0,0.04,0.44-0.22,0.09c0,0-0.26-0.18-0.31-1.32c0,0,0-1.1,0.13-1.89l0.31-1.94c0,0,0.31-0.84-0.13-0.92
	c0,0-0.26,0-0.44,0.62c0,0-0.13,0.97-0.13,1.76c0,0,0.04,0.62-0.26,0.22C-1017.35,802.18-1017.75,801.69-1018.28,801.74
	L-1018.28,801.74z M-1015.24,804.73c-0.13,0.13-0.26,0.22-0.26,0.22c-0.57,0.53-0.31-0.53-0.31-0.53c0.09-0.53,0.35-0.97,0.57-1.23
	l0.22-0.22c0.49-0.35,0.4,0.35,0.4,0.35C-1014.62,803.98-1014.97,804.47-1015.24,804.73L-1015.24,804.73z M-1018.28,805.97
	c-0.09,0.04-0.14,0.09-0.14,0.09c-0.79,0.4-0.92-1.28-0.92-1.28c-0.09-1.23,0.44-1.98,0.44-1.98c0.17-0.27,0.4-0.35,0.62-0.35
	c0.26,0,0.48,0.13,0.48,0.13c0.79,0.44,0.53,1.28,0.53,1.28c-0.04,0.26-0.4,1.23-0.4,1.23
	C-1017.84,805.57-1018.14,805.83-1018.28,805.97L-1018.28,805.97L-1018.28,805.97z M-1009.24,801.08c-0.09,0.04-0.13,0.09-0.22,0.13
	c0,0-0.71,0.22-0.79,1.59c0,0-0.09,1.1,0.61,1.32c0,0,0.18,0.09,0.4,0c0.13,0,0.26-0.09,0.35-0.22c0,0,0.22-0.53,0.35-0.27
	c0,0,0.13,0.53,0.62,0.27c0,0,0.48-0.31,0.57-0.71c0,0,0.13-0.62-0.13-0.66c0,0-0.22-0.09-0.18,0.31c0,0,0.04,0.13,0,0.22
	c0,0-0.27,0.71-0.62,0.35c0,0-0.18-0.13-0.13-0.62c0,0,0.04-0.4,0.13-0.57c0,0,0.04-0.13,0.13-0.18c0,0,0.22-0.22,0.04-0.48
	c0,0-0.27-0.18-0.31-0.31C-1008.41,801.25-1008.72,800.9-1009.24,801.08L-1009.24,801.08L-1009.24,801.08z M-1009.24,803.63
	c-0.27,0.09-0.44-0.17-0.44-0.17c-0.31-0.35-0.13-1.23-0.13-1.23c0.17-0.4,0.4-0.62,0.57-0.7c0.13-0.04,0.22-0.09,0.22-0.09
	c0.66-0.04,0.35,1.06,0.35,1.06c-0.04,0.18-0.04,0.4-0.04,0.4c0,0.22-0.27,0.57-0.27,0.57
	C-1009.07,803.54-1009.16,803.59-1009.24,803.63L-1009.24,803.63L-1009.24,803.63z M-1001.67,805.88c-0.04,0-0.04-0.04-0.04-0.04
	l-0.31-0.53c-0.09-0.26,0-0.4,0-0.4l0.35-0.35c0.05-0.05,0.11-0.1,0.18-0.13c0.57-0.62,0.75-2.03,0.75-2.03
	c0.18-1.72-0.18-2.51-0.18-2.51c-0.26-0.44-0.53-0.35-0.75-0.22l-0.17,0.18c-0.31,0.35-0.53,1.5-0.53,1.5
	c-0.13,0.57-0.31,2.86-0.31,2.86c0,0.48-0.18,0.88-0.18,0.88c-0.4,0.71-0.93,0.88-0.93,0.88c-0.92,0.26-1.01-0.71-1.01-0.71
	c0-1.59,0.26-2.07,0.26-2.07c0.27-0.62,0.66-0.57,0.66-0.57c0.44,0,0.31,0.62,0.31,0.62c0.04,0.4,0.35,0.31,0.35,0.31
	c0.35-0.18,0.13-0.88,0.13-0.88c-0.22-0.71-0.48-0.66-0.48-0.66c-0.84-0.09-1.37,1.01-1.37,1.01c-0.48,1.36-0.31,2.55-0.31,2.55
	c0.26,1.15,1.06,1.06,1.06,1.06c0.84-0.09,1.5-1.15,1.5-1.15c0.17-0.53,0.26,0,0.26,0c0,0.31,0.4,0.88,0.4,0.88
	c0.1,0.11,0.22,0.19,0.35,0.27c0.27,0.09,0.4,0,0.4,0c0.53-0.18,0.88-0.97,0.88-0.97c0.22-0.53,0.26,0,0.26,0
	c0,0.09,0.04,0.26,0.04,0.26c0.31,0.97,1.19,0.88,1.19,0.88c0.08,0,0.16-0.03,0.22-0.09c0.53-0.18,0.75-0.75,0.75-0.75
	c0.13-0.44,0.31-0.04,0.31-0.04c0,0.13,0.22,0.44,0.22,0.44c0.35,0.4,0.88,0.04,0.88,0.04c0.26-0.18,0.79-1.1,0.79-1.1
	c0.17-0.4,0.09-0.57,0.09-0.57c-0.09-0.22,0.09-0.13,0.09-0.13c0.22,0.09,1.85,0.44,1.85,0.44c0.53,0.18,0.13,0.7,0.13,0.7
	c-0.31,0.4-1.15,0.48-1.15,0.48c-0.48,0.09-0.4-0.18-0.4-0.18c0.04-0.26-0.17-0.4-0.17-0.4c-0.4-0.18-0.66,0.31-0.66,0.31
	c-0.18,0.66,0.53,0.66,0.53,0.66c1.15,0,1.72-0.31,1.72-0.31c0.92-0.53,0.88-1.15,0.88-1.15c-0.04-0.66-1.36-0.79-1.36-0.79
	c-0.31-0.04-1.15-0.26-1.15-0.26c-0.4-0.22-0.04-0.49-0.04-0.49c0.75-0.4,1.67-0.57,1.67-0.57c0.57-0.09,0.48,0.22,0.48,0.22
	c0.09,0.35,0.53,0.13,0.53,0.13c0.35-0.35,0.04-0.75,0.04-0.75c-0.48-0.27-1.59,0-1.59,0c-0.97,0.4-1.67,0.88-1.67,0.88
	c-0.35,0.4-0.18,0.71-0.18,0.71c0.04,0.31,0,0.62,0,0.62c-0.04,0.53-0.48,0.88-0.48,0.88c-0.44,0.31-0.66-0.22-0.66-0.22
	c-0.18-0.57-0.04-1.81-0.04-1.81c0.04-0.35,0.13-0.31,0.13-0.31c0.13-0.04,0.26-0.18,0.26-0.18c0.18-0.4-0.35-1.01-0.35-1.01
	c-0.4-0.57-0.97-0.48-0.97-0.48c-0.18,0-0.35,0-0.48,0.04c-0.62,0.18-0.88,0.57-0.88,0.57c-0.57,0.62-0.79,1.94-0.79,1.94
	c-0.04,0.57-0.22,0.92-0.22,0.92c-0.09,0.13-0.44,0.57-0.44,0.57C-1001.32,806.1-1001.54,806.01-1001.67,805.88L-1001.67,805.88
	L-1001.67,805.88z M-998.67,806.1c-0.44,0.22-0.79-0.22-0.79-0.22c-0.35-0.44-0.35-1.59-0.35-1.59c0.09-1.19,0.79-1.72,0.79-1.72
	c0.13-0.09,0.27-0.13,0.35-0.18c0.36-0.11,0.75-0.04,1.05,0.18c0.22,0.18,0,0.44,0,0.44c-0.13,0.09-0.13,0.57-0.13,0.57
	c0,0.26-0.04,0.35-0.04,0.35c-0.04,0.13-0.04,0.66-0.04,0.66c0,0.79-0.53,1.23-0.53,1.23C-998.45,805.97-998.54,806.05-998.67,806.1
	z M-1001.67,803.85c-0.03,0.11-0.11,0.21-0.22,0.26c0,0-0.31,0.26-0.35-0.13c0,0-0.09-1.1,0.17-2.25c0,0,0.18-0.88,0.27-1.01
	c0,0,0.04-0.22,0.13-0.4c0.14-0.18,0.31-0.26,0.49,0.09c0,0,0.4,0.66-0.09,2.6C-1001.27,803.01-1001.4,803.5-1001.67,803.85
	L-1001.67,803.85L-1001.67,803.85z M-991.49,806.05c-0.12,0-0.23-0.04-0.31-0.13c0,0-0.13-0.13,0.09-0.35c0,0,0.09-0.04,0.22-0.22
	c0.52-0.59,0.87-1.3,1.01-2.07c0,0,0.13-1.01-0.66-0.97c0,0-0.13,0-0.35,0.18c-0.27,0.18-0.57,0.53-0.88,1.32
	c0,0-0.35,1.1-0.09,2.16c0,0,0.22,0.7,0.97,0.7h0.27c0,0,0.79-0.17,1.14-1.06l0.22-0.62c0,0,0.18-0.66,0-0.66
	c0,0-0.13-0.13-0.22,0.31c0,0-0.22,1.01-1.06,1.37C-991.14,806.01-991.32,806.1-991.49,806.05L-991.49,806.05L-991.49,806.05z
	 M-991.49,804.78c-0.09,0.04-0.09,0.09-0.09,0.09c-0.09,0.13-0.35,0.31-0.35,0.31c-0.4,0.22-0.13-0.88-0.13-0.88
	c0.13-0.66,0.4-1.01,0.57-1.19c0.04-0.07,0.1-0.13,0.18-0.18c0.53-0.35,0.44,0.44,0.44,0.44
	C-990.96,804.03-991.36,804.56-991.49,804.78L-991.49,804.78L-991.49,804.78z"/>
<path class="st7" d="M-1145.09,801.82c-0.39-0.24-0.95-0.39-1.44-0.39c-0.96,0-1.75,0.64-1.91,1.61c-0.15,0.93,0.33,1.13,1.08,1.35
	c0.25,0.08,0.72,0.2,0.67,0.55c-0.05,0.34-0.39,0.48-0.68,0.48c-0.43,0-0.76-0.22-1.03-0.49l-0.69,1c0.43,0.34,0.99,0.55,1.59,0.55
	c0.48,0,1.01-0.14,1.43-0.45c0.43-0.32,0.62-0.81,0.7-1.29c0.12-0.77-0.34-1.11-0.97-1.31l-0.3-0.09c-0.2-0.07-0.52-0.18-0.48-0.46
	c0.04-0.27,0.37-0.4,0.6-0.4c0.29,0,0.57,0.12,0.77,0.32L-1145.09,801.82L-1145.09,801.82z M-1141.83,801.39
	c-1.38,0-2.81,1.02-3.04,2.46c-0.24,1.55,0.69,2.64,2.23,2.64s2.82-1.09,3.07-2.64C-1139.35,802.41-1140.46,801.39-1141.83,801.39z
	 M-1142.02,802.6c0.74,0,1.26,0.6,1.15,1.26c-0.13,0.83-0.83,1.43-1.58,1.43s-1.26-0.6-1.13-1.43
	C-1143.47,803.2-1142.77,802.6-1142.02,802.6L-1142.02,802.6z M-1137.39,801.55h-1.24l-0.76,4.79h2.73l0.17-1.05h-1.49
	L-1137.39,801.55L-1137.39,801.55z M-1132.59,801.55l-0.4,2.52c-0.1,0.62-0.25,1.3-1.05,1.3s-0.74-0.68-0.64-1.3l0.4-2.52h-1.24
	l-0.43,2.69c-0.1,0.62-0.17,1.23,0.23,1.69c0.34,0.39,0.94,0.53,1.5,0.53s1.21-0.14,1.67-0.53c0.55-0.46,0.67-1.07,0.77-1.69
	l0.43-2.69H-1132.59L-1132.59,801.55L-1132.59,801.55z M-1127.15,801.66c-0.34-0.16-0.72-0.24-1.1-0.24c-0.67,0-1.4,0.29-1.94,0.77
	c-0.52,0.45-0.87,1.07-0.98,1.75c-0.11,0.71,0.03,1.33,0.48,1.81c0.42,0.45,1.02,0.71,1.69,0.71c0.39,0,0.7-0.09,1.13-0.22
	l0.24-1.49c-0.31,0.31-0.75,0.51-1.15,0.51c-0.77,0-1.21-0.55-1.09-1.3c0.12-0.74,0.73-1.33,1.49-1.33c0.43,0,0.81,0.18,1.01,0.53
	L-1127.15,801.66L-1127.15,801.66L-1127.15,801.66z M-1125.12,801.55h-1.24l-0.76,4.79h1.24L-1125.12,801.55L-1125.12,801.55z
	 M-1121.88,801.39c-1.38,0-2.81,1.02-3.04,2.46c-0.24,1.55,0.69,2.64,2.23,2.64s2.82-1.09,3.07-2.64
	C-1119.4,802.41-1120.5,801.39-1121.88,801.39L-1121.88,801.39z M-1122.07,802.6c0.74,0,1.26,0.6,1.15,1.26
	c-0.13,0.83-0.84,1.43-1.58,1.43s-1.26-0.6-1.13-1.43C-1123.52,803.2-1122.81,802.6-1122.07,802.6z M-1119.44,806.34h1.24l0.46-2.93
	h0.01l1.81,2.93h1.24l0.76-4.79h-1.24l-0.46,2.93h-0.01l-1.81-2.93h-1.24L-1119.44,806.34z M-1110.53,802.6l0.17-1.05h-2.72
	l-0.76,4.79h2.72l0.17-1.05h-1.48l0.13-0.83h1.4l0.17-1.05h-1.4l0.13-0.8L-1110.53,802.6L-1110.53,802.6L-1110.53,802.6z
	 M-1106.52,801.82c-0.39-0.24-0.95-0.39-1.44-0.39c-0.96,0-1.75,0.64-1.9,1.61c-0.15,0.93,0.34,1.13,1.08,1.35
	c0.26,0.08,0.72,0.2,0.67,0.55c-0.05,0.34-0.39,0.48-0.68,0.48c-0.43,0-0.76-0.22-1.03-0.49l-0.69,1c0.43,0.34,0.99,0.55,1.59,0.55
	c0.48,0,1.01-0.14,1.43-0.45c0.43-0.32,0.62-0.81,0.7-1.29c0.12-0.77-0.34-1.11-0.97-1.31l-0.3-0.09c-0.2-0.07-0.52-0.18-0.48-0.46
	c0.04-0.27,0.37-0.4,0.6-0.4c0.29,0,0.57,0.12,0.77,0.32L-1106.52,801.82L-1106.52,801.82z M-1104.27,806.34h1.76
	c1.38-0.03,2.56-1.03,2.81-2.39c0.21-1.34-0.72-2.39-2.05-2.39h-1.77L-1104.27,806.34L-1104.27,806.34z M-1102.44,802.6h0.29
	c0.8,0,1.29,0.48,1.15,1.34c-0.15,0.93-0.85,1.34-1.59,1.34h-0.28L-1102.44,802.6L-1102.44,802.6z M-1096.18,802.6l0.17-1.05h-2.72
	l-0.76,4.79h2.72l0.17-1.05h-1.48l0.13-0.83h1.4l0.17-1.05h-1.4l0.13-0.8L-1096.18,802.6L-1096.18,802.6L-1096.18,802.6z
	 M-1089.67,801.66c-0.34-0.16-0.72-0.24-1.1-0.24c-0.67,0-1.4,0.29-1.94,0.77c-0.52,0.45-0.87,1.07-0.98,1.75
	c-0.11,0.71,0.03,1.33,0.48,1.81c0.42,0.45,1.02,0.71,1.69,0.71c0.39,0,0.7-0.09,1.13-0.22l0.24-1.49
	c-0.31,0.31-0.75,0.51-1.15,0.51c-0.77,0-1.21-0.55-1.09-1.3c0.12-0.74,0.72-1.33,1.49-1.33c0.43,0,0.81,0.18,1.01,0.53
	L-1089.67,801.66L-1089.67,801.66L-1089.67,801.66z M-1087.64,801.55h-1.24l-0.76,4.79h2.74l0.17-1.05h-1.49L-1087.64,801.55
	L-1087.64,801.55L-1087.64,801.55z M-1083.44,805.5l0.18,0.83h1.33l-1.04-4.79h-1.36l-2.6,4.79h1.32l0.46-0.83H-1083.44z
	 M-1083.62,804.55h-1.03l0.76-1.52h0.01L-1083.62,804.55L-1083.62,804.55z M-1077.7,801.82c-0.39-0.24-0.95-0.39-1.44-0.39
	c-0.96,0-1.75,0.64-1.91,1.61c-0.15,0.93,0.34,1.13,1.08,1.35c0.25,0.08,0.72,0.2,0.67,0.55c-0.05,0.34-0.39,0.48-0.68,0.48
	c-0.43,0-0.76-0.22-1.03-0.49l-0.69,1c0.43,0.34,0.99,0.55,1.59,0.55c0.48,0,1-0.14,1.43-0.45c0.43-0.32,0.62-0.81,0.7-1.29
	c0.12-0.77-0.34-1.11-0.97-1.31l-0.3-0.09c-0.2-0.07-0.52-0.18-0.48-0.46c0.04-0.27,0.37-0.4,0.6-0.4c0.29,0,0.57,0.12,0.77,0.32
	L-1077.7,801.82L-1077.7,801.82L-1077.7,801.82z M-1074.32,802.6l0.17-1.05h-2.72l-0.76,4.79h2.72l0.17-1.05h-1.48l0.13-0.83h1.4
	l0.17-1.05h-1.4l0.13-0.8L-1074.32,802.6L-1074.32,802.6L-1074.32,802.6z M-1072.25,806.34h1.24l0.84-2.75h0.01l0.66,2.75h0.49
	l1.59-2.75h0.01l-0.09,2.75h1.24l0.04-4.79h-1.24l-1.43,2.56l-0.57-2.56h-1.22L-1072.25,806.34L-1072.25,806.34z M-1062.06,801.55
	l-0.4,2.52c-0.1,0.62-0.25,1.3-1.05,1.3c-0.8,0-0.74-0.68-0.64-1.3l0.4-2.52h-1.24l-0.43,2.69c-0.1,0.62-0.17,1.23,0.23,1.69
	c0.34,0.39,0.94,0.53,1.51,0.53s1.21-0.14,1.67-0.53c0.55-0.46,0.67-1.07,0.77-1.69l0.43-2.69H-1062.06L-1062.06,801.55
	L-1062.06,801.55z M-1060.79,806.34h1.24l0.46-2.93h0.01l1.81,2.93h1.24l0.76-4.79h-1.24l-0.46,2.93h-0.01l-1.82-2.93h-1.24
	L-1060.79,806.34L-1060.79,806.34z M-1055.2,806.34h1.76c1.33,0,2.6-1.05,2.81-2.39s-0.72-2.39-2.05-2.39h-1.76L-1055.2,806.34z
	 M-1053.36,802.6h0.29c0.8,0,1.29,0.48,1.15,1.34c-0.15,0.93-0.85,1.34-1.59,1.34h-0.28L-1053.36,802.6L-1053.36,802.6
	L-1053.36,802.6z M-1048.42,801.55h-1.24l-0.76,4.79h1.24L-1048.42,801.55L-1048.42,801.55z M-1045.31,805.5l0.18,0.83h1.33
	l-1.04-4.79h-1.36l-2.6,4.79h1.32l0.46-0.83H-1045.31L-1045.31,805.5z M-1045.49,804.55h-1.04l0.76-1.52h0.01L-1045.49,804.55
	L-1045.49,804.55z M-1041.41,801.55h-1.24l-0.76,4.79h2.73l0.17-1.05h-1.49L-1041.41,801.55L-1041.41,801.55L-1041.41,801.55z"/>
<path class="st9" d="M-711.2,769.71c-5.28,3.48-10.8,5.84-11.83,6.26l26.06,18.25c0.03,0.02,0.04,0.05,0.04,0.08v0
	c0,0.03-0.02,0.06-0.04,0.08l-1.16,0.77c-0.03,0.02-0.08,0.02-0.11,0l-9.52-6.55c-3.63-2.45-7.64-1.93-10.36-1.06
	c-2.61,0.83-4.53,2.11-5.01,2.44l19.82,13.85c0.42-0.39,3.27-3,9.26-6.69c6.32-3.89,10.04-5.25,10.91-5.54l-26.11-18.28
	c-0.03-0.02-0.04-0.05-0.04-0.08v0c0-0.03,0.02-0.06,0.04-0.08l1.11-0.74c0.03-0.02,0.08-0.02,0.11,0c0.03,0.02,3.53,2.32,9.83,6.75
	c5.9,4.15,14.13-0.83,15.26-1.55l-20.13-14.02C-703.58,764.01-707.22,767.09-711.2,769.71L-711.2,769.71z"/>
<path class="st10" d="M-613.55,772.76v5.82h12.98c0.05,0,0.1,0.04,0.1,0.1c0,0.03-0.01,0.05-0.03,0.07l-13.5,12.6v4.9h27.28v-5.84
	h-13.58c-0.04,0-0.08-0.02-0.09-0.06c-0.02-0.04-0.01-0.08,0.03-0.11l13.69-12.57v-4.91L-613.55,772.76L-613.55,772.76
	L-613.55,772.76z M-624.47,772.76v14.92c0,2.18-1.91,3.48-5.12,3.48c-3.25,0-5.12-1.29-5.12-3.54v-14.87h-8.37v15.34
	c0,3.26,0.83,5.31,2.7,6.63c2.04,1.45,5.47,2.12,10.8,2.12s8.76-0.67,10.8-2.12c1.87-1.32,2.7-3.37,2.7-6.63v-15.34L-624.47,772.76
	L-624.47,772.76z M-565.63,772.76v14.86c0,2.22-1.91,3.54-5.12,3.54c-3.26,0-5.12-1.29-5.12-3.54v-14.87h-8.37v15.34
	c0,3.26,0.83,5.31,2.7,6.63c2.04,1.45,5.47,2.12,10.8,2.12s8.75-0.67,10.8-2.12c1.86-1.32,2.7-3.37,2.7-6.63v-15.34L-565.63,772.76
	L-565.63,772.76z M-523.39,772.76v23.5h8.75v-23.5H-523.39z M-536.41,772.76c-0.06,0.05-9.48,8.16-9.48,8.16
	c-0.03,0.03-0.07,0.03-0.11,0.02s-0.06-0.05-0.06-0.09v-8.08h-8.75v23.5h8.75v-8.3c0-0.04,0.02-0.08,0.06-0.09s0.08-0.01,0.11,0.02
	l8.81,8.38h11.72l-12.89-11.98c-0.02-0.02-0.03-0.04-0.03-0.07v0c0-0.03,0.01-0.05,0.04-0.07l13.3-11.36L-536.41,772.76
	L-536.41,772.76z M-673.29,779.84c0,2.55,0.99,4.29,3.11,5.45c1.95,1.07,4.88,1.74,9.8,2.23l0.93,0.08
	c2.13,0.17,4.55,0.36,4.55,2.11c0,1.2-1.3,1.86-3.66,1.86c-1.15,0-2.84-0.29-4.26-2.77h-10.98c0.03,2.72,1.03,4.59,3.17,5.86
	c2.42,1.44,6.36,2.14,12.04,2.14c12.68,0,13.67-5.91,13.67-7.72c0-4.2-3.74-6.72-11.44-7.71l-1.21-0.15
	c-3.51-0.44-6.29-0.78-6.29-2.01c0-0.48,0.16-0.88,0.47-1.19c0.81-0.81,2.48-0.81,3.2-0.81h0.07c0.66,0,2.91,0.2,4.45,2.68h9.95
	c-0.07-4.96-5.29-7.81-14.36-7.81C-672,772.09-673.28,777.51-673.29,779.84L-673.29,779.84L-673.29,779.84z"/>
<path class="st11" d="M-881.48,788.73c0-8.72,7.07-15.8,15.79-15.8s15.79,7.08,15.79,15.8c0,8.72-7.07,15.79-15.79,15.79
	C-874.41,804.52-881.48,797.46-881.48,788.73 M-865.7,795.98c4,0,7.25-3.24,7.25-7.24c0-4-3.24-7.25-7.24-7.25
	c-4,0-7.25,3.24-7.25,7.24c0,0,0,0,0,0.01c-0.01,3.99,3.22,7.24,7.22,7.24C-865.71,795.98-865.71,795.98-865.7,795.98z"/>
<path class="st12" d="M-925.84,762.9h13.21l7.47,25.02h0.11l7.58-25.02h12.84v40.75h-8.49v-28.82h-0.11l-8.15,28.82h-7.8
	l-8.04-28.82h-0.11v28.82h-8.49L-925.84,762.9L-925.84,762.9z M-811.09,770.94h8.49v-8.03h-8.49V770.94z M-811.09,803.65h8.49
	v-29.85h-8.49V803.65z M-797.88,803.65h8.49V762.9h-8.49V803.65z M-846.33,803.65h8.49V801c2.18,2.41,4.94,3.34,8.15,3.34
	c8.55,0,15.04-7.17,15.04-15.55c0-8.37-6.43-15.66-15.04-15.66c-3.1,0-5.79,0.97-8.15,2.98v-13.2h-8.49V803.65L-846.33,803.65z
	 M-837.74,788.73c0-4,3.24-7.24,7.24-7.24c4,0,7.24,3.25,7.24,7.24c0.01,4-3.23,7.25-7.23,7.25c-4,0.01-7.25-3.23-7.25-7.23
	C-837.74,788.75-837.74,788.74-837.74,788.73z"/>
<path class="st13" d="M-1110.52,887c0-2.71-0.13-3.61-3.36-3.61c-0.64,0-1.26-0.52-1.26-0.95c0-0.37,0.74-0.66,0.99-0.66h10.93
	c0.31,0,1,0.14,1,0.58c0,0.34-0.41,1.03-0.66,1.03h-0.61c-2.66,0-3.09-0.2-3.09,3.61v10.27c0,3.58,0.48,4.09,3.69,4.09
	c3.3,0,6.28-1.93,7.79-4.8c0.14-0.27,0.84-1.79,1.2-1.79s0.97,0.59,0.6,1.37l-3.6,8.38c-0.59,1.37-1.48,0.89-1.54,0.43
	c-0.34-1.26-1.2-1.63-4.34-1.63h-11.41c-0.44,0-0.77-0.13-0.77-0.37c0-0.61,0.4-1,1.05-1c2.99,0,3.41-1.65,3.41-4.35L-1110.52,887
	L-1110.52,887L-1110.52,887z M-1071.68,881.77c0.31,0,0.63,0.24,0.63,0.67c0,0.48-0.69,0.6-1,0.6c-1.36,0-3.02,0.43-3.02,6.26v8.03
	c0,4.11-3.17,6.6-8.14,6.6c-8.84,0-8.54-5.22-8.54-5.95V887.6c0-4.81-0.61-4.56-3.84-4.56c-0.66,0-0.92-0.2-0.92-0.64
	c0-0.37,0.4-0.63,0.65-0.63h12.42c0.24,0,0.54,0.26,0.54,0.63c0,0.43-0.34,0.64-0.81,0.64c-3.59,0-4.15,0.87-4.15,4.56v10.44
	c0,3.22,1.7,4.45,5.63,4.45c2.37,0,5.37-1.47,5.37-5.4v-6.27c0-7.08-0.72-7.77-3.48-7.77c-0.3,0-1.14-0.17-1.14-0.6
	c0-0.37,0.22-0.67,0.51-0.67L-1071.68,881.77L-1071.68,881.77z M-1065.06,885.79c-1.05-1.47-2.21-2.74-4.29-2.74
	c-0.3,0-1.2-0.22-1.2-0.6c0-0.43,0.45-0.67,0.74-0.67h10.87c0.24,0,0.89,0.21,0.89,0.67c0,0.34-0.38,0.6-0.69,0.6
	c-0.81,0-2.57-0.09-2.57,1.2c0,0.8,0.85,1.72,1.28,2.4l2.48,3.08l1.63-1.97c0.94-1.14,2.14-2.44,2.17-3.65
	c0.01-0.63-1.46-1.03-2.75-1.03c-0.35,0.04-0.75-0.22-0.75-0.59c0-0.44,0.45-0.7,0.76-0.7h9.61c0.92,0,0.92,1.27,0.02,1.27
	c-1.19,0-3.51,0.66-7.95,5.92l-1.88,2.22l5.9,7.93c2.19,2.97,2.8,2.86,3.75,2.86c0.3,0,0.79,0.37,0.79,0.68
	c0,0.48-0.3,0.68-0.63,0.68h-10.24c-0.32,0-0.75-0.23-0.75-0.62c0-0.4,0.85-0.75,1.15-0.75c0.9,0,2.3,0.15,2.3-1.08
	c0-0.61-0.43-1.39-0.75-1.88l-3.75-5.31c-1.12,1.7-4.46,5.2-4.46,6.91c0,1.23,0.64,1.24,1.81,1.36c0.24,0,1.18,0.15,1.18,0.53
	c0,0.43-0.14,0.84-0.77,0.84h-9.81c-0.58,0-1.04-0.2-1.04-0.62c0-0.4,0.43-0.74,0.61-0.75c3.43-0.17,6.26-3.02,8.18-5.81l3.25-3.86
	L-1065.06,885.79L-1065.06,885.79z M-1010.1,893.74l2.96-7.63l2.82,7.63H-1010.1z M-971.43,883.04c0.26,0,0.59-0.22,0.59-0.65
	c0-0.38-0.31-0.62-0.55-0.62h-8.69c-0.32,0-0.74,0.2-0.74,0.62c0,0.4,0.48,0.65,0.8,0.65c2.67,0,3.33,1.12,3.33,4.75v9.73h-0.06
	l-6.71-10.4c-0.3-0.51-2.57-4.03-2.71-4.62c-0.09-0.34,0-0.74-0.49-0.74h-7.5c-0.27,0-0.8,0.22-0.8,0.62c0,0.52,0.52,0.65,0.92,0.65
	c2.32,0,2.65,0.15,2.65,3.41v9.18c0,5.76-1.05,6.33-2.99,6.33c-2.81,0-2.71-0.04-5.4-7.01l-5.42-14.08
	c-0.07-0.22-0.18-0.68-0.52-0.68c-0.13,0-0.4-0.2-1.15,0.6c-0.54,0.57-2.4,1.22-4.05,1.65c-0.2,0.04-0.59,0.12-0.59,0.6
	c0,0.43,0.65,0.4,0.92,0.49c0.4,0.12,1.43-0.17,1.95,0.68l-1.71,4.86l-3.46,8.73c-1.02,2.34-2.44,3.83-4.64,4.16
	c-2.96,0.46-3.54-1.04-3.54-3.76v-11.74c0-2.71,0.7-3.41,3.69-3.41c0.64,0,0.92-0.33,0.92-0.77c0-0.37-0.36-0.54-0.61-0.54h-6.44
	c-1.57,0-1.7-0.17-2.25,1.05l-5.7,12.16l-2.68-6.4c-0.4-0.99-2.29-5.46-2.29-5.46c-0.69-1.33-0.58-1.33-2.24-1.33l-4.86,0.01
	c-0.24,0-0.87,0.22-0.87,0.59c0,0.43,0.4,0.68,0.82,0.68c1.76,0,2.69,0.71,2.69,3.41v9.34c0.06,5.09-0.9,6.18-2.49,6.18
	c-0.66,0-1.04,0.26-1.04,0.68c0,0.37,0.17,0.68,0.76,0.68h8.2c0.51,0,0.61-0.25,0.61-0.62c0-0.43-0.27-0.75-0.92-0.75
	c-1.13,0-3.12-0.33-3.12-6.18v-8.43l0.28-0.01l2.17,4.91c0.34,0.92,2.97,6.92,3.42,8c0.45,1.08,0.86,0.86,1.66-0.18
	c0.63-0.81,1.59-1.71,2.45-2.33c0.28-0.21,1.26-0.69-0.17-1.03c-0.3-0.07-0.59-0.21-0.84-0.4l4.88-10.85l0.24,0.18v12.49
	c0,2.83-0.66,3.82-3.1,3.82c-0.33,0-0.95,0.17-0.95,0.68c0,0.4,0.45,0.68,0.71,0.68h19.24c0.3-0.05,0.88-0.21,0.88-0.68
	c0-0.5-0.79-0.68-1.07-0.68c-1.32-0.07-2.12-0.41-2.12-1.77c0-1.2,0.87-3.88,1.31-4.73h7l0.58,1.3c0.3,0.87,0.93,2.06,0.93,2.91
	c0,0.9-0.64,2.29-3.59,2.29c-0.34,0.02-0.62,0.29-0.64,0.63c0,0.43,0.33,0.68,0.93,0.73l11.54,0.01h7.94c0.64,0,0.81-0.34,0.81-0.68
	c0-0.43-0.43-0.69-0.74-0.69c-1.96,0-3.37-0.56-3.37-6.33V884.5h0.06l10.95,16.69c0.31,0.49,1.03,1.6,1.14,2.06
	c0.56,1.08,0.66,0.8,1.15,0.32c0.77-0.96,2.98-2.38,4.22-2.69c0.61-0.12,0.8-0.97-0.22-1.08c-0.9-0.1-1.72,0.06-2.78-0.23v-10.78
	C-974.87,883.06-973.56,883.04-971.43,883.04 M-1151.21,874.24h17.2c-0.66,4-1.4,5.46-1.94,6.67c-3.54,8.02-10.01,15.33-10.67,16.12
	c-0.75,0.91-1.34,2.12-0.81,2.66c0.53,0.54,1.75-0.06,2.66-0.8c0.79-0.65,8.11-7.14,16.12-10.67c1.23-0.53,2.68-1.28,6.67-1.94
	v17.19h-29.23V874.24z"/>
<path d="M-1258.53,878.11v24.78h6.99v-24.78H-1258.53z M-1313.54,878.07v24.8h7.06v-19.26l5.5,0.02c1.81,0,3.07,0.44,3.93,1.36
	c1.11,1.18,1.55,3.09,1.55,6.55v11.32h6.84v-13.69c0-9.78-6.24-11.11-12.33-11.11L-1313.54,878.07L-1313.54,878.07L-1313.54,878.07z
	 M-1247.25,878.11v24.78h11.34c6.05,0,8.02-1.01,10.14-3.26c1.51-1.58,2.48-5.06,2.48-8.86c0-3.49-0.82-6.59-2.27-8.53
	c-2.56-3.47-6.3-4.14-11.89-4.14L-1247.25,878.11L-1247.25,878.11L-1247.25,878.11z M-1240.32,883.48h3c4.37,0,7.18,1.95,7.18,7.03
	s-2.81,7.05-7.18,7.05h-3V883.48z M-1268.61,878.11l-5.84,19.63l-5.58-19.63h-7.56l7.98,24.78h10.08l8.06-24.78H-1268.61z
	 M-1220.02,902.89h6.99v-24.78h-6.99V902.89z M-1200.4,878.11l-9.76,24.76h6.89l1.55-4.39h11.55l1.47,4.37h7.5l-9.85-24.74H-1200.4
	L-1200.4,878.11z M-1195.87,882.62l4.24,11.59h-8.61L-1195.87,882.62L-1195.87,882.62z"/>
<path class="st14" d="M-1358.67,882.22v-3.4l1.01-0.04c9.32-0.29,15.43,8.02,15.43,8.02s-6.59,9.16-13.67,9.16
	c-0.94,0-1.87-0.15-2.75-0.44v-10.33c3.63,0.44,4.37,2.04,6.53,5.67l4.85-4.07c0,0-3.55-4.64-9.51-4.64
	C-1357.41,882.12-1358.04,882.16-1358.67,882.22 M-1358.67,870.97v5.08l1.01-0.06c12.96-0.44,21.42,10.62,21.42,10.62
	s-9.7,11.8-19.8,11.8c-0.87,0-1.74-0.08-2.6-0.23v3.15c0.72,0.09,1.44,0.14,2.16,0.15c9.41,0,16.21-4.81,22.8-10.48
	c1.09,0.88,5.56,3,6.49,3.93c-6.26,5.25-20.85,9.47-29.12,9.47c-0.77,0-1.54-0.04-2.31-0.13v4.43h35.74v-37.73L-1358.67,870.97
	L-1358.67,870.97L-1358.67,870.97z M-1358.67,895.52v2.69c-8.69-1.55-11.11-10.6-11.11-10.6s4.18-4.62,11.11-5.38v2.94h-0.02
	c-3.63-0.44-6.49,2.96-6.49,2.96S-1363.56,893.86-1358.67,895.52 M-1374.1,887.22c0,0,5.15-7.6,15.45-8.4v-2.77
	c-11.42,0.92-21.29,10.58-21.29,10.58s5.58,16.17,21.27,17.64v-2.94C-1370.18,899.9-1374.1,887.22-1374.1,887.22L-1374.1,887.22z"/>
<path d="M-893.75,886.62l-0.71-0.11c-2.31-7.28-4.43-14.62-6.36-22c-0.53,0.11-1.08,0.17-1.62,0.18c-0.54-0.01-1.07-0.07-1.59-0.18
	c-3.3,10.52-6.89,20.96-10.74,31.29c0.64-0.08,1.29-0.13,1.93-0.14c0.62,0.01,1.24,0.07,1.85,0.18l0.37-1.43l5.86-20.06l6.21,21.39
	l0.52-0.04l0.4-0.02l0.67,0.07l14.85-21.35l-2.2,21.46c1.15-0.12,2.3-0.18,3.46-0.19c1.12,0.01,2.23,0.07,3.35,0.2
	c0.46-9.57,1.11-19.12,1.98-28.66l0.22-2.66c-0.52,0.09-1.04,0.15-1.56,0.16l-0.16,0c-0.46-0.02-0.92-0.09-1.37-0.19
	C-883.35,871.98-888.46,879.36-893.75,886.62L-893.75,886.62L-893.75,886.62z M-854.68,886.36c0.71-2.51,1.18-5.08,1.39-7.67
	c0.03-0.99-0.22-1.97-0.72-2.82c-0.09-0.14-0.19-0.28-0.3-0.41c-0.7-0.8-1.62-1.38-2.65-1.65c-1.04-0.29-2.12-0.43-3.21-0.41
	c-3.21,0.09-6.32,1.14-8.94,3c0,0.21-0.01,0.41-0.03,0.61c-0.03,0.5-0.05,1-0.05,1.51c0.81-0.68,1.72-1.22,2.71-1.59
	c1.1-0.46,2.27-0.71,3.46-0.77h0.06c0.86-0.03,1.72,0.16,2.5,0.54c0.99,0.51,1.61,1.53,1.61,2.64c0.01,0.2,0,0.4-0.02,0.6
	c-0.03,0.39-0.11,0.78-0.26,1.15c-0.18,0.41-0.47,0.76-0.85,1c-0.49,0.32-1.02,0.57-1.58,0.76c-1.18,0.41-2.39,0.78-3.6,1.09
	c-1.62,0.39-3.2,0.98-4.68,1.76c-1.21,0.63-2.2,1.59-2.87,2.78c-0.47,0.92-0.71,1.94-0.69,2.97c-0.03,1.07,0.24,2.12,0.79,3.03
	c0.67,1,1.72,1.69,2.91,1.91c0.5,0.11,1.01,0.16,1.52,0.15c2.5,0,4.87-1.08,6.51-2.97l0.31-0.34c0.06,0.75,0.25,1.48,0.56,2.16
	c0.26,0.48,0.71,0.83,1.24,0.97c0.49,0.13,1,0.19,1.51,0.18h0.11c1.07,0,2.12-0.23,3.09-0.66c0.37-0.15,0.74-0.31,1.1-0.48
	c0.01-0.08,0.02-0.16,0.03-0.24c0.01-0.16,0.03-0.32,0.06-0.48c-0.37,0-0.74-0.06-1.09-0.16c-0.29-0.09-0.54-0.26-0.73-0.48
	c-0.2-0.25-0.33-0.56-0.36-0.88c-0.03-0.18-0.04-0.36-0.04-0.54c0.01-0.39,0.05-0.78,0.14-1.15l0.05-0.25L-854.68,886.36
	L-854.68,886.36L-854.68,886.36z M-865.01,893.5c-0.56,0.02-1.11-0.15-1.56-0.47c-0.43-0.34-0.72-0.82-0.84-1.35
	c-0.07-0.31-0.11-0.63-0.1-0.95c-0.03-0.82,0.12-1.64,0.45-2.4c0.38-0.79,0.97-1.46,1.71-1.93c1.07-0.69,2.22-1.24,3.44-1.62
	c0.8-0.27,1.61-0.52,2.42-0.74c-0.24,1.54-0.53,3.08-0.87,4.6c-0.24,1.04-0.64,2.03-1.2,2.94c-0.48,0.8-1.23,1.41-2.11,1.72
	C-864.11,893.43-864.56,893.5-865.01,893.5L-865.01,893.5L-865.01,893.5z M-832.99,873.62c-0.41-0.07-0.83-0.09-1.25-0.07
	c-1.43,0.13-2.79,0.72-3.86,1.67c-1.57,1.38-2.85,3.06-3.76,4.95l1.08-6.04l-0.26,0.03c-0.83,0.09-1.66,0.15-2.5,0.16
	c-0.79-0.01-1.57-0.07-2.35-0.16l-0.38-0.04c-0.49,3.99-1.15,7.95-1.96,11.88c-0.62,3.34-1.37,6.65-2.25,9.93
	c0.97-0.11,1.94-0.17,2.92-0.18c1.04,0,2.08,0.07,3.11,0.19c0.46-3.65,1.04-7.28,1.72-10.9c0.14-0.69,0.35-1.37,0.65-2.02
	c0.62-1.49,1.79-2.68,3.27-3.31c1.43-0.53,3-0.56,4.45-0.08C-834.03,877.6-833.57,875.59-832.99,873.62L-832.99,873.62
	L-832.99,873.62z M-829.48,874.11c-1.09,7.34-2.52,14.63-4.27,21.84c0.97-0.11,1.95-0.17,2.93-0.18c0.99,0,1.97,0.07,2.95,0.19
	c1.02-7.35,2.45-14.64,4.27-21.84c-0.95,0.12-1.9,0.18-2.85,0.18C-827.46,874.3-828.47,874.24-829.48,874.11L-829.48,874.11
	L-829.48,874.11z M-808.69,873.31c-5.19,0.03-9.84,3.21-11.76,8.03c-0.88,2.02-1.33,4.2-1.33,6.41c-0.06,1.86,0.41,3.7,1.37,5.3
	c1.15,1.74,2.95,2.93,5,3.31c0.85,0.18,1.73,0.27,2.6,0.27c2.16,0.08,4.3-0.37,6.25-1.28c0.35-0.18,0.68-0.37,1.01-0.58l1.44-2.54
	l-0.21-0.25c-1.72,1.33-3.85,2.04-6.02,2c-1.1,0.04-2.19-0.26-3.12-0.86c-0.89-0.64-1.52-1.56-1.8-2.61
	c-0.24-0.83-0.35-1.7-0.34-2.56c0-1.06,0.11-2.12,0.33-3.16h13.42c0.2-0.8,0.34-1.6,0.43-2.42c0.08-0.6,0.12-1.21,0.13-1.82
	c0.05-1.47-0.3-2.92-1-4.2c-0.82-1.36-2.15-2.32-3.69-2.68C-806.86,873.41-807.77,873.3-808.69,873.31L-808.69,873.31
	L-808.69,873.31z M-807.28,882.82h-7.59c0.43-1.93,1.2-3.77,2.28-5.43c0.47-0.71,1.08-1.31,1.79-1.78c0.52-0.33,1.12-0.51,1.73-0.52
	c0.54,0,1.05,0.25,1.37,0.67c0.3,0.39,0.52,0.85,0.64,1.33c0.28,1.17,0.36,2.37,0.22,3.57
	C-806.91,881.4-807.05,882.12-807.28,882.82L-807.28,882.82L-807.28,882.82z"/>
<path class="st15" d="M-931.27,904.8l-0.16,1.57c23.84-4.84,48.33-5.58,72.42-2.19l0-1.43l-0.5-0.06
	C-883.37,899.26-907.65,899.97-931.27,904.8L-931.27,904.8L-931.27,904.8z M-931.63,908.28l-0.46,4.41
	c24.32-4.99,49.32-5.7,73.88-2.1l-0.53-4.48C-882.97,902.46-907.66,903.19-931.63,908.28L-931.63,908.28z"/>
<path d="M-797.46,903.45c-0.21-0.19-0.45-0.35-0.7-0.48c-0.91-0.43-1.92-0.59-2.92-0.48c-1.37,0.11-2.57,0.96-3.11,2.21
	c-0.55,1.26-0.36,2.72,0.5,3.79c0.37,0.43,0.84,0.76,1.36,0.99l1.63,0.68c0.47,0.18,0.91,0.41,1.31,0.7
	c0.31,0.21,0.56,0.49,0.73,0.82c0.66,1.34,0.1,2.95-1.23,3.61l-0.13,0.06c-1.17,0.43-2.48,0.17-3.4-0.67
	c-0.26-0.26-0.51-0.53-0.74-0.83l-0.26,0.05l-0.05,0.42c-0.05,0.31-0.14,0.62-0.25,0.92c0.16,0.15,0.33,0.28,0.5,0.41
	c0.82,0.56,1.8,0.83,2.79,0.77c1.8,0.02,3.45-1.02,4.21-2.65c0.44-0.99,0.47-2.11,0.08-3.12c-0.36-0.78-1.01-1.4-1.8-1.73
	l-1.19-0.47l-1.22-0.5c-0.38-0.19-0.73-0.43-1.03-0.72c-0.43-0.45-0.65-1.07-0.61-1.69c0-0.69,0.34-1.33,0.9-1.73
	c1.11-0.71,2.56-0.53,3.46,0.43c0.18,0.22,0.33,0.45,0.47,0.7l0.23-0.03l0.09-0.32C-797.75,904.2-797.62,903.82-797.46,903.45
	L-797.46,903.45L-797.46,903.45z M-812.04,902.72l0.03,0.25l0.18,5.48l-0.02,2.77l-0.17,5.04l0.7-0.09
	c0.46-0.04,0.91-0.02,1.36,0.06c-0.21-2.16-0.3-4.32-0.27-6.49l0.2-7.03l-0.49,0.06C-811.03,902.82-811.54,902.8-812.04,902.72
	L-812.04,902.72L-812.04,902.72z M-828.53,916.2c0.5-0.04,1-0.04,1.5,0l1.96-5.16l3.7-0.04c0.39-0.01,0.79,0.01,1.18,0.05l2.06,5.22
	l0.72-0.05c0.47-0.01,0.95,0.02,1.42,0.09l-1.66-3.66l-1.68-3.97l-1.41-3.26l-1.18-2.88l-0.03,0c-0.15,0.01-0.29,0.01-0.44,0
	l-2.32,5.41L-828.53,916.2L-828.53,916.2L-828.53,916.2z M-824.62,910.04l0.4-0.99l0.72-1.64l0.3-0.68l0.6-1.36l0.34,0.69l0.43,1.04
	l0.84,2.05l0.33,0.9H-824.62L-824.62,910.04z M-840.37,916.17c0.65-0.04,1.31-0.03,1.96,0.03l-0.14-6.58l0.66,0.01l5.06,6.55
	c0.84-0.07,1.68-0.05,2.51,0.06l-1.92-2.31l-1.83-2.28l-1.72-2.24c0.97-0.06,1.91-0.42,2.67-1.03c0.93-0.69,1.42-1.82,1.29-2.97
	c-0.08-1.16-0.87-2.15-1.99-2.47c-0.67-0.19-1.36-0.28-2.06-0.27c-1.48,0.04-2.95,0.04-4.43-0.01
	C-840.14,907.18-840.16,911.68-840.37,916.17L-840.37,916.17L-840.37,916.17z M-838.61,908.87l0.05-5.23
	c0.51-0.07,1.02-0.11,1.53-0.12c0.38-0.01,0.76,0.02,1.14,0.07c0.32,0.04,0.63,0.13,0.93,0.24c0.91,0.44,1.44,1.41,1.31,2.41
	c-0.11,1-0.78,1.86-1.73,2.19c-0.38,0.14-0.78,0.24-1.18,0.31c-0.46,0.08-0.93,0.12-1.4,0.12L-838.61,908.87L-838.61,908.87z
	 M-852.27,916.2l0.61-0.05c0.46-0.02,0.93,0.01,1.39,0.08c-0.03-0.39-0.06-0.79-0.07-1.19l-0.05-1.42l-0.03-3.8l0-0.27
	c1.66-0.03,3.32,0.02,4.97,0.14c-0.01-0.45,0.01-0.9,0.07-1.35l-0.23,0.02c-1.6,0.11-3.21,0.15-4.81,0.12c0-1.57,0.03-3.14,0.1-4.71
	c1.8-0.02,3.6,0.06,5.39,0.26l-0.01-0.16c-0.05-0.39-0.05-0.79-0.01-1.19c-0.68,0.06-1.37,0.08-2.06,0.07l-2.99,0.01
	c-0.73,0-1.46-0.03-2.18-0.09c0.09,2.19,0.12,4.38,0.1,6.57C-852.06,911.56-852.11,913.89-852.27,916.2L-852.27,916.2L-852.27,916.2
	z"/>
<path class="st15" d="M-829.3,870.63c-0.03,0.05-0.05,0.1-0.07,0.16c-0.02,0.08-0.03,0.17-0.03,0.25c0,0.03,0.01,0.07,0.03,0.1
	l0.04,0.04c0.02,0.02,0.05,0.03,0.08,0.04c0.07,0.02,0.15,0.03,0.22,0.03c0.26,0,0.51-0.02,0.77-0.07c0.86-0.15,1.71-0.37,2.54-0.66
	l0.07-0.03c1.21-0.48,2.32-1.19,3.25-2.1c0.48-0.48,0.84-1.05,1.06-1.69c0.03-0.11,0.05-0.23,0.06-0.35
	c0.04-0.38,0.03-0.77-0.01-1.15c-0.01-0.06-0.02-0.12-0.04-0.18l-0.01-0.03c-0.08-0.15-0.18-0.28-0.3-0.4
	c-0.38-0.36-0.82-0.65-1.31-0.86c-0.7-0.34-1.47-0.5-2.25-0.48c-0.18,0.01-0.35,0.04-0.52,0.08c-0.1,0.02-0.19,0.07-0.26,0.13
	c-0.07,0.07-0.12,0.15-0.15,0.24c-0.04,0.13-0.06,0.27-0.06,0.41l0,0.21l0.04,1.07c0.02,0.33-0.06,0.66-0.21,0.96l-0.14,0.28
	c-0.43,0.73-0.9,1.43-1.42,2.1L-829.3,870.63L-829.3,870.63L-829.3,870.63z"/>
<path class="st6" d="M-727.71,907.6c-3.18-1.99-5.53-8.88-5.53-17.05l0.01-0.89l0,0c-8.86-1.39-15.25-5.2-15.42-9.71l-0.03,0.05
	c-2.17,2.69-3.4,5.81-3.4,9.12c0,9.76,10.72,17.76,24.31,18.47L-727.71,907.6L-727.71,907.6z M-756.17,889.83
	c0-10.92,13.59-19.78,30.36-19.78s30.36,8.86,30.36,19.78s-13.59,19.78-30.36,19.78S-756.17,900.76-756.17,889.83L-756.17,889.83z
	 M-725.8,872.91c3.24,0,5.99,4.91,7.01,11.76l0-0.01c6.3-0.98,10.71-3.24,10.71-5.87c0-3.53-7.93-6.39-17.72-6.39
	s-17.72,2.86-17.72,6.39c0,2.63,4.41,4.89,10.71,5.87l0,0.01C-731.79,877.82-729.04,872.91-725.8,872.91L-725.8,872.91z
	 M-723.84,907.59c13.59-0.71,24.31-8.71,24.31-18.47c0-3.32-1.24-6.43-3.4-9.12l-0.03-0.05c-0.16,4.51-6.56,8.32-15.42,9.71l0,0
	l0.01,0.89c0,8.18-2.35,15.06-5.53,17.05L-723.84,907.59z M-725.8,885.18c1.41,0,2.81-0.06,4.21-0.18l0,0
	c-0.67-4.39-2.3-7.49-4.21-7.49s-3.53,3.1-4.21,7.49l0,0C-728.61,885.12-727.21,885.18-725.8,885.18L-725.8,885.18L-725.8,885.18z
	 M-725.8,901.45c2.44,0,4.43-5.07,4.53-11.43l0.01,0c-3.02,0.28-6.06,0.28-9.09,0l0.01,0C-730.23,896.37-728.24,901.45-725.8,901.45
	z M-601.23,889.83c0-8.35,6.77-15.12,15.12-15.12c8.35,0,15.12,6.77,15.12,15.12c0,8.35-6.77,15.12-15.12,15.12
	C-594.46,904.95-601.23,898.18-601.23,889.83L-601.23,889.83z M-586.12,899.41c4.66,0,8.44-4.29,8.44-9.58s-3.78-9.57-8.44-9.57
	s-8.44,4.29-8.44,9.57S-590.78,899.41-586.12,899.41z M-553.84,881.02v23.25h-6.37v-23.25h0.02h-8.91v-5.26h24.14v5.26H-553.84z
	 M-537.25,897.85L-537.25,897.85l-2.45,6.41h-7.44l11.76-28.51h7.93l11.76,28.51h-7.44l-2.44-6.41l-0.01-0.01H-537.25
	L-537.25,897.85z M-531.41,893.04h4.01l0,0l-3.98-10.43h-0.05l-3.98,10.43l0,0H-531.41z M-671.26,881.02v23.25h-6.37v-23.25h0.02
	h-8.91v-5.26h24.14v5.26H-671.26L-671.26,881.02L-671.26,881.02z M-660.74,889.83c0-8.35,6.77-15.12,15.12-15.12
	c8.35,0,15.12,6.77,15.12,15.12c0,8.35-6.77,15.12-15.12,15.12C-653.97,904.95-660.74,898.18-660.74,889.83z M-645.62,899.41
	c4.66,0,8.44-4.29,8.44-9.58s-3.78-9.57-8.44-9.57s-8.44,4.29-8.44,9.57S-650.29,899.41-645.62,899.41z M-615.87,904.26h3.23v-10.82
	l11.11-17.68h-7.44l-6.91,11.98l-6.9-11.98h-7.44l11.11,17.68v10.82H-615.87L-615.87,904.26L-615.87,904.26z"/>
<path class="st16" d="M-1318.24,1032.01c-31.17-2.46-53.79-12.07-53.79-23.52c0-9.08,14.59-17.86,36.18-22.44
	c-26.28,3.43-44.95,11.79-44.95,22.44C-1380.8,1020.99-1353.68,1030.89-1318.24,1032.01 M-1286.85,1031.98
	c31.17-2.46,53.78-12.07,53.78-23.52c0-9.08-14.59-17.86-36.18-22.44c26.28,3.43,44.95,11.79,44.95,22.44
	C-1224.29,1020.96-1251.42,1030.85-1286.85,1031.98"/>
<path class="st17" d="M-1295.81,991.4c0,3.19-3.02,5.77-6.74,5.77s-6.74-2.59-6.74-5.77s3.02-5.77,6.74-5.77
	S-1295.81,988.21-1295.81,991.4"/>
<path class="st18" d="M-1299.23,963.82c-1.16-2.15-2-3.91-3.31-3.91c-1.3,0-2.16,1.76-3.31,3.91s-2.12,4.7-2.12,6.27h0.01
	c0,2.57,2.43,4.64,5.42,4.64s5.42-2.08,5.42-4.64h0C-1297.12,968.52-1298.08,965.97-1299.23,963.82"/>
<path class="st19" d="M-1328.59,975.32c-2.75-0.22-4.95-0.47-5.61,0.5c-0.65,0.97,0.7,2.48,2.3,4.42s3.69,3.92,5.28,4.71l0.01-0.01
	c2.59,1.28,5.91,0.52,7.4-1.7s0.61-5.06-1.98-6.34l0,0C-1322.78,976.1-1325.83,975.54-1328.59,975.32"/>
<path class="st20" d="M-1273.2,980.23c1.6-1.93,2.96-3.44,2.3-4.41s-2.86-0.72-5.61-0.5s-5.81,0.78-7.4,1.56l0.01,0.01
	c-2.59,1.28-3.48,4.12-1.98,6.34s4.81,2.98,7.4,1.7v0C-1276.89,984.15-1274.8,982.17-1273.2,980.23"/>
<path class="st21" d="M-1289.34,983.02c1.11-1.64,1.9-4.8,2.21-7.65s0.67-5.12-0.7-5.8c-1.36-0.68-3.49,0.73-6.22,2.38
	s-5.53,3.82-6.63,5.46l0.01,0.01c-1.8,2.68-0.73,6.11,2.4,7.65S-1291.14,985.7-1289.34,983.02L-1289.34,983.02 M-1304.42,977.41
	c-1.11-1.64-3.9-3.81-6.63-5.46s-4.84-3.06-6.21-2.38c-1.36,0.67-1.01,2.95-0.71,5.8s1.09,6.01,2.2,7.65l0.01-0.01
	c1.81,2.68,5.8,3.6,8.93,2.05S-1302.62,980.09-1304.42,977.41L-1304.42,977.41L-1304.42,977.41 M-1317.63,985.79
	c-2.22,0-5.8,0.99-8.84,2.19s-5.51,2.07-5.51,3.42c0,1.35,2.48,2.23,5.51,3.43s6.62,2.19,8.83,2.19V997c3.61,0,6.54-2.51,6.54-5.6
	S-1314.02,985.79-1317.63,985.79L-1317.63,985.79 M-1287.47,997.01c2.21,0,5.8-0.99,8.83-2.19s5.51-2.07,5.51-3.42
	c0-1.35-2.48-2.23-5.51-3.43s-6.62-2.19-8.83-2.19v0.02c-3.61,0-6.54,2.51-6.54,5.6S-1291.08,997.01-1287.47,997.01L-1287.47,997.01
	"/>
<path class="st22" d="M-1346.72,1008.1c0-2.46-0.99-5.01-3.72-5.01c-2.79,0-3.69,2.49-3.69,5.01s0.96,4.92,3.72,4.92
	C-1347.63,1013.02-1346.72,1010.62-1346.72,1008.1z M-1358.25,1020.59v-19.6c0-0.69,0.69-0.69,0.69-0.69h2.67c0,0,0.69,0,0.69,0.69
	v1.26c0,0.03,0.03,0.03,0.03,0.03c0.02,0,0.05-0.02,0.05-0.04c1.02-1.63,2.69-2.37,4.6-2.37c4.86,0,7.05,3.93,7.05,8.35
	c0,4.14-2.28,8.02-6.81,8.02c-1.86,0-3.61-0.79-4.64-2.33c0,0-0.01-0.02-0.03-0.02h-0.02c0,0-0.03,0-0.03,0.03v6.66
	c0,0.69-0.69,0.69-0.69,0.69h-2.88C-1357.56,1021.28-1358.25,1021.28-1358.25,1020.59 M-1331.79,1008.25c0-0.04-0.02-0.01-0.03,0
	c-0.73,0.6-2.21,0.64-3.51,0.88c-1.32,0.27-2.52,0.72-2.52,2.28c0,1.59,1.23,1.98,2.61,1.98c3.33,0,3.45-2.64,3.45-3.57
	L-1331.79,1008.25L-1331.79,1008.25L-1331.79,1008.25z M-1337.94,1005.07h-3.01c-0.69,0-0.65-0.47-0.61-0.69
	c0.59-3.44,3.94-4.5,7.22-4.5c3.09,0,6.81,0.69,6.81,4.41v8.07c0,1.02,0.08,2.04,0.27,2.76c0.07,0.28,0.27,0.69-0.42,0.69h-3.12
	c-0.51,0-0.64-0.46-0.69-0.69c-0.06-0.26-0.09-0.52-0.11-0.78c0-0.03-0.02-0.01-0.03,0c-1.35,1.39-3.32,1.89-5.19,1.89
	c-2.94,0-5.28-1.47-5.28-4.65c0-3.51,2.64-4.35,5.28-4.71c2.61-0.39,5.04-0.3,5.04-2.04c0-1.83-1.26-2.1-2.76-2.1
	c-1.38,0-2.34,0.47-2.69,1.65C-1337.31,1004.59-1337.38,1005.07-1337.94,1005.07 M-1280.02,1008.25c0-0.04-0.02-0.01-0.03,0
	c-0.73,0.6-2.21,0.64-3.51,0.88c-1.32,0.27-2.52,0.72-2.52,2.28c0,1.59,1.23,1.98,2.61,1.98c3.33,0,3.45-2.64,3.45-3.57V1008.25
	L-1280.02,1008.25z M-1286.17,1005.07h-3.01c-0.69,0-0.65-0.47-0.61-0.69c0.59-3.44,3.94-4.5,7.21-4.5c3.09,0,6.81,0.69,6.81,4.41
	v8.07c0,1.02,0.08,2.04,0.27,2.76c0.07,0.28,0.27,0.69-0.42,0.69h-3.12c-0.51,0-0.64-0.46-0.69-0.69c-0.06-0.26-0.09-0.52-0.11-0.78
	c0-0.03-0.02-0.01-0.03,0c-1.35,1.39-3.32,1.89-5.19,1.89c-2.94,0-5.28-1.47-5.28-4.65c0-3.51,2.64-4.35,5.28-4.71
	c2.61-0.39,5.04-0.3,5.04-2.04c0-1.83-1.26-2.1-2.76-2.1c-1.38,0-2.34,0.47-2.69,1.65
	C-1285.54,1004.59-1285.61,1005.07-1286.17,1005.07 M-1258.42,1008.25c0-0.04-0.02-0.01-0.03,0c-0.73,0.6-2.21,0.64-3.51,0.88
	c-1.32,0.27-2.52,0.72-2.52,2.28c0,1.59,1.23,1.98,2.61,1.98c3.33,0,3.45-2.64,3.45-3.57V1008.25L-1258.42,1008.25L-1258.42,1008.25
	z M-1264.56,1005.07h-3.01c-0.69,0-0.65-0.47-0.61-0.69c0.59-3.44,3.94-4.5,7.22-4.5c3.09,0,6.81,0.69,6.81,4.41v8.07
	c0,1.02,0.08,2.04,0.27,2.76c0.07,0.28,0.27,0.69-0.42,0.69h-3.12c-0.51,0-0.64-0.46-0.69-0.69c-0.06-0.26-0.09-0.52-0.11-0.78
	c0-0.03-0.02-0.01-0.03,0c-1.35,1.39-3.32,1.89-5.19,1.89c-2.94,0-5.28-1.47-5.28-4.65c0-3.51,2.64-4.35,5.28-4.71
	c2.61-0.39,5.04-0.3,5.04-2.04c0-1.83-1.26-2.1-2.77-2.1c-1.38,0-2.34,0.47-2.69,1.65
	C-1263.94,1004.59-1264,1005.07-1264.56,1005.07 M-1326.1,1015.13v-14.14c0-0.69,0.69-0.69,0.69-0.69h2.67c0,0,0.69,0,0.69,0.69
	v2.16c0,0.03,0.03,0.03,0.03,0.03c0.02,0,0.04-0.02,0.05-0.03c0.79-1.93,2.88-3.27,4.94-3.27c0.08,0,0.16,0,0.23,0.01
	c0.24,0.02,0.7,0.14,0.7,0.7v2.72c0,0.69-0.43,0.61-0.69,0.59c-0.28-0.03-0.56-0.04-0.84-0.04c-3.12,0-4.2,2.25-4.2,4.98v6.3
	c0,0.69-0.69,0.69-0.69,0.69h-2.88C-1325.41,1015.82-1326.1,1015.82-1326.1,1015.13 M-1314.95,1015.13v-14.14
	c0-0.69,0.69-0.69,0.69-0.69h2.64c0,0,0.69,0,0.69,0.69v1.38c0,0.03,0.03,0.03,0.03,0.03c0.03,0,0.05-0.03,0.06-0.04
	c1.11-1.57,2.72-2.48,4.72-2.48c1.95,0,3.69,0.72,4.53,2.58c0.9-1.35,2.52-2.58,4.68-2.58c3.3,0,5.67,1.53,5.67,5.55v9.7
	c0,0.69-0.69,0.69-0.69,0.69h-2.88c0,0-0.69,0.01-0.69-0.69v-8.1c0-2.07-0.18-3.78-2.61-3.78c-2.4,0-2.85,1.98-2.85,3.93v7.95
	c0,0.7-0.69,0.69-0.69,0.69h-2.88c0,0-0.69,0.01-0.69-0.69v-8.01c0-1.8,0.12-3.87-2.58-3.87c-0.84,0-2.88,0.54-2.88,3.57v8.31
	c0,0.69-0.69,0.69-0.69,0.69h-2.88C-1314.26,1015.82-1314.95,1015.82-1314.95,1015.13 M-1274.11,1015.13v-18.8c0,0,0-0.69,0.69-0.69
	h2.88c0.69,0,0.69,0.69,0.69,0.69v18.8c0,0.69-0.69,0.69-0.69,0.69h-2.88C-1273.42,1015.82-1274.11,1015.82-1274.11,1015.13
	 M-1247.03,996.33v3.28c0,0,0,0.69,0.69,0.69h1.74c0.69,0,0.69,0.69,0.69,0.69v1.47c0,0.7-0.69,0.69-0.69,0.69h-1.74
	c0,0-0.69,0-0.69,0.69v6.99c0,1.44,0.36,1.8,1.8,1.8c0.21,0,0.42-0.01,0.63-0.02c0.64-0.05,0.69-0.09,0.69,0.69v1.94
	c0,0,0.01,0.63-0.69,0.69c-0.57,0.05-1.21,0.07-1.8,0.07c-2.61,0-4.89-0.6-4.89-3.69v-8.47c0,0,0-0.69-0.69-0.69h-1.2
	c0,0-0.69,0.01-0.69-0.69v-1.47c0,0,0-0.69,0.69-0.69h1.2c0.69,0,0.69-0.69,0.69-0.69v-3.28c0,0,0-0.69,0.69-0.69h2.88
	C-1247.03,995.64-1247.03,996.33-1247.03,996.33"/>
<path class="st23" d="M-1019.99,988.35c0.65,1.11,0.86,2.38,0.93,3.81l0.09,1.9v13.28l0.09,1.9c0.19,3.1,2.48,5.4,5.61,5.6
	l1.89,0.09v-20.88l0.09-1.9c0.08-1.41,0.29-2.7,0.94-3.82c2.1-3.62,6.75-4.85,10.37-2.75c1.15,0.67,2.1,1.62,2.77,2.78
	c0.65,1.11,0.85,2.41,0.92,3.8l0.09,1.89v13.29l0.09,1.9c0.2,3.12,2.47,5.42,5.61,5.6l1.89,0.09v-22.78
	c0-8.39-6.8-15.18-15.18-15.19c-4.36-0.01-8.51,1.87-11.39,5.15c-2.88-3.27-7.03-5.15-11.39-5.15c-3.15,0-6.08,0.96-8.5,2.61
	c-1.48-1.65-4.79-2.61-6.69-2.61v37.97l1.9-0.09c3.18-0.21,5.47-2.44,5.6-5.6l0.1-1.9v-13.28l0.09-1.9
	c0.08-1.43,0.28-2.69,0.93-3.82c1.36-2.34,3.86-3.78,6.57-3.78S-1021.35,986.01-1019.99,988.35L-1019.99,988.35L-1019.99,988.35z
	 M-1149.96,1014.84l1.9,0.09h28.47l-0.09-1.89c-0.26-3.12-2.47-5.4-5.6-5.6l-1.9-0.09h-17.08l22.78-22.78l-0.09-1.89
	c-0.15-3.15-2.45-5.43-5.6-5.6l-1.9-0.09l-28.47-0.01l0.09,1.9c0.25,3.09,2.49,5.42,5.6,5.6l1.9,0.09h17.08l-22.78,22.78l0.09,1.9
	C-1155.37,1012.37-1153.11,1014.64-1149.96,1014.84L-1149.96,1014.84L-1149.96,1014.84L-1149.96,1014.84z M-1102.49,976.97
	c5.03,0,9.86,2,13.41,5.56c7.42,7.41,7.42,19.43,0,26.84c-7.42,7.41-19.44,7.41-26.85,0c-7.41-7.41-7.41-19.43,0-26.85
	c3.56-3.56,8.38-5.56,13.41-5.56L-1102.49,976.97L-1102.49,976.97L-1102.49,976.97z M-1094.44,987.9L-1094.44,987.9
	c-4.45-4.44-11.66-4.44-16.11,0c-4.44,4.45-4.44,11.66,0,16.11c4.45,4.44,11.66,4.44,16.11,0
	C-1090,999.56-1090,992.35-1094.44,987.9L-1094.44,987.9z M-1062.81,976.98c5.03,0,9.86,2,13.41,5.56c7.42,7.41,7.42,19.43,0,26.84
	c-7.42,7.41-19.44,7.41-26.85,0c-7.41-7.41-7.41-19.43,0-26.85c3.56-3.56,8.38-5.56,13.41-5.56L-1062.81,976.98L-1062.81,976.98
	L-1062.81,976.98z M-1054.76,987.92L-1054.76,987.92c-4.45-4.44-11.66-4.44-16.11,0c-4.44,4.45-4.44,11.66,0,16.11
	c4.45,4.44,11.66,4.44,16.11,0C-1050.32,999.58-1050.32,992.37-1054.76,987.92L-1054.76,987.92z"/>
<path class="st24" d="M-748.8,974.02l4.58-0.04l-13.45,28.78h-3.73c-2.05-4.82-4.46-9.51-6.58-14.33c1.49-0.04,2.97-0.04,4.46,0
	c1.28,2.97,2.81,5.82,3.97,8.79L-748.8,974.02L-748.8,974.02z"/>
<path d="M-863.74,978.12h8.83v7.87c-2.93-0.04-5.9,0-8.87-0.04L-863.74,978.12L-863.74,978.12z M-908.18,989.36
	c6.02-3.41,14.77-2.25,18.83,3.65c2.49,3.49,3.21,7.91,3.17,12.08l-20.72,0.04c0.32,2.13,1.24,4.38,3.21,5.5
	c2.81,1.65,7.23,1.16,8.63-2.09c2.84-0.08,5.67-0.08,8.51,0c-0.88,3.25-3.25,6.02-6.22,7.55c-3.21,1.77-7.07,2.09-10.64,1.48
	c-3.77-0.6-7.27-2.73-9.39-5.9c-2.33-3.37-2.93-7.67-2.41-11.64C-914.68,995.66-912.07,991.53-908.18,989.36L-908.18,989.36
	L-908.18,989.36z M-903.48,994.38c-1.97,0.92-2.93,3.05-3.37,5.1h11.8c-0.24-1.57-0.8-3.21-2.01-4.3
	C-898.74,993.53-901.43,993.49-903.48,994.38L-903.48,994.38z M-815.6,987.83c4.74-0.84,10,0.16,13.65,3.45
	c6.22,5.54,6.5,16.26,0.72,22.2c-4.58,4.78-12.24,5.66-18.1,2.97c-4.54-2.05-7.63-6.66-8.15-11.56c-0.2-2.85-0.08-5.78,1.08-8.43
	C-824.63,991.93-820.34,988.64-815.6,987.83L-815.6,987.83z M-814.6,994.38c-2.49,0.88-3.65,3.57-4.01,6.02
	c-0.28,3.05-0.24,6.5,1.73,9.03c2.13,2.77,6.83,2.69,8.95-0.04c1.77-2.21,2.05-5.22,1.85-7.95c-0.12-2.41-0.96-4.98-2.97-6.46
	C-810.66,993.9-812.79,993.74-814.6,994.38L-814.6,994.38L-814.6,994.38z M-784.09,989.48c2.93-2.29,7.11-2.53,10.48-1.16
	c2.41,1.04,4.22,3.17,5.06,5.62c0.96,2.53,0.68,5.26,0.68,7.91l0.04,15.14l-8.83,0.04v-17.34c0-1.48-0.56-3.09-1.81-4.02
	c-1.89-1.28-4.62-1.04-6.22,0.56c-1.28,1.28-1.85,3.13-1.81,4.9v15.9c-2.89-0.04-5.82,0-8.71-0.04v-28.66l8.51,0.04l-0.08,3.97
	C-785.89,991.37-785.17,990.28-784.09,989.48L-784.09,989.48L-784.09,989.48z M-942.98,988.4h9.15l5.54,18.47
	c2.13-6.06,3.73-12.33,5.74-18.47l8.83-0.04l-10,28.66c-3.05,0-6.1-0.04-9.15,0.04L-942.98,988.4z M-884.17,988.35h8.43
	c-0.04,1.61,0,3.21-0.08,4.82c0.72-0.8,1.24-1.81,2.01-2.57c1.89-2.09,4.98-2.93,7.71-2.21c-0.04,2.53-0.04,5.06,0,7.55
	c-2.17-0.24-4.58-0.16-6.42,1.16c-1.97,1.36-2.85,3.89-2.81,6.22v13.69c-2.93,0-5.9-0.04-8.83,0.04L-884.17,988.35L-884.17,988.35
	L-884.17,988.35z M-863.74,988.4l8.87-0.04v28.66c-2.93-0.04-5.9,0-8.87,0V988.4z M-852.49,988.35l23.93,0.04
	c-0.08,2.21,0,4.38-0.04,6.58c-0.28,0.56-0.76,0.96-1.12,1.45l-12.28,13.69l14.09,0.04v6.91c-8.19-0.04-16.38-0.04-24.57,0v-6.66
	l12.89-14.37c0.12-0.24,0.64-0.48,0.36-0.8c-4.42,0.12-8.83,0-13.25,0.08L-852.49,988.35L-852.49,988.35L-852.49,988.35z"/>
<path class="st25" d="M-629.4,995.77L-629.4,995.77l-1.13-3.83c-1.33-3.83-2.71-8.05-6.81-8.09c0,0-2.36-0.41-4.82-0.04
	c0,0-7.79,1.5-12.28,4.79c3.89,0,8.98-0.6,10.78,0.6c2.33,1.55,3.34,3.06,3.34,6.36c0,0.07,0,0.14-0.01,0.21
	c-0.04,0.63-0.27,1.08-0.42,1.71h-1.28c-1.22-0.96-2.26-1.27-3.83-1.7c-0.01,0-0.01,0-0.02,0v0c-2.71-0.73-4.54-0.89-7.2,0h-0.01
	c-3.66,1.23-6.54,3.59-7.42,6.95c-0.22,0.86-0.31,1.75-0.26,2.64c0.21,4.53,3.36,7.3,7.66,8.73c2.68,0.89,4.47,0.53,7.24,0
	c4.23-0.81,5.91-3.3,9.79-5.11l0.05,5.11h11.44v-2.98c-0.89-1-1.95-4.51-3-8.38L-629.4,995.77L-629.4,995.77L-629.4,995.77z
	 M-638.2,1005.35c-0.25,2.76-2.76,4.59-5.54,4.47c-2.76-0.12-5.11-2.14-5.11-4.9c0-0.77,0.18-1.53,0.55-2.21
	c0.82-1.53,2.46-2.54,4.35-2.69c2.08-0.14,4.07,0.9,5.15,2.69C-638.35,1003.5-638.11,1004.4-638.2,1005.35L-638.2,1005.35
	L-638.2,1005.35z M-556.61,995.77c-0.97-4.34-2.91-7.36-7.06-9.36c-1.86-0.85-2.71-1.91-4.68-2.55c-3.32-1.08-5.6-0.99-8.94,0
	c-6.04,1.79-9.63,5.89-10.91,11.92v0c-0.06,0.28-0.11,0.57-0.16,0.85c-0.37,2.13-0.37,3.41,0,5.54l0.1,0.56
	c0.57,2.91,1.48,4.72,3.48,7.08c4.34,5.12,9.93,6.82,16.43,5.14c6.41-1.66,10.51-5.82,11.82-12.22l0,0l0.11-0.56
	c0.37-2.13,0.4-3.41,0-5.54L-556.61,995.77L-556.61,995.77L-556.61,995.77z M-568.38,1013.09c-4.12,1.43-5.4-4.52-7.33-10.37
	l-0.28-0.82c-0.23-0.68-1.2-3.25-1.94-6.12l0,0c-1.07-4.13-1.67-8.89,1.04-9.57c3.83-0.96,5.56,4.67,6.92,9.57l0.98,3.43l1.23,3.52
	h0C-566.19,1007.48-565.3,1012.02-568.38,1013.09L-568.38,1013.09z M-594.59,983.85c-1.76-0.48-2.87-0.24-4.68,0
	c-3.47,0.46-4.79,3.41-8.3,3.41c-2.08,0-2.11-2.68-4.05-3.41c-2.02-0.76-5.54,0-5.54,0c-3.11,1.61-5.38,2.72-8.52,4.68
	c2.34,0,5.96-0.47,5.96,2.15v23.4h10.65v-21.72c0-1.7,1.49-2.98,3.19-2.98s3.19,1.28,3.19,2.98v21.72h10.65V986.4
	C-592.28,985.29-593.16,984.23-594.59,983.85L-594.59,983.85L-594.59,983.85z M-524.06,983.85c-1.76-0.48-2.88-0.24-4.68,0
	c-3.47,0.46-4.79,3.41-8.3,3.41c-2.08,0-2.11-2.68-4.05-3.41c-2.02-0.76-5.54,0-5.54,0c-3.11,1.61-5.38,2.72-8.52,4.68
	c2.34,0,5.96-0.47,5.96,2.15v23.4h10.65v-21.72c0-1.7,1.49-2.98,3.19-2.98s3.19,1.28,3.19,2.98v21.72h10.65V986.4
	C-521.76,985.29-522.63,984.23-524.06,983.85L-524.06,983.85z M-662.04,986.32c-1.81-2.39-3.08-3.61-5.54-5.32
	c-3.92-2.73-6.77-3.55-11.5-4.26c-3.45-0.52-5.49-0.51-8.94,0c-3.43,0.51-5.5,0.85-8.52,2.55c-6.56,3.7-10.11,8.86-10.22,16.39
	c0,0.03,0,0.05,0,0.08v0c-0.03,2.56,0.49,4.88,1.43,6.95h0c2.86,6.3,9.67,10.33,17.31,11.92c3.74,0.78,6.03,0.62,9.79,0
	c3.99-0.65,6.37-1.25,9.79-3.41c2.44-1.54,3.71-2.66,5.54-4.9l-1.28-1.49c-1.68,1.98-2.86,2.97-5.11,4.26
	c-3.28,1.89-5.59,2.79-9.37,2.55c-5.8-0.37-10.46-3.96-12.67-8.93h0c-0.89-2.02-1.38-4.26-1.38-6.61l0-0.34v0
	c0.18-8.89,7.46-16.05,16.39-16.05c3.35,0,5.91,0.74,7.88,3.41c-3.14,3.89-6.81,11.07-6.81,11.07L-662.04,986.32L-662.04,986.32
	L-662.04,986.32z"/>
<path class="st26" d="M-1032.5,687.33c0-1.73,0.23-3.33,0.7-4.8s1.17-2.73,2.1-3.79s2.1-1.89,3.51-2.49s3.05-0.9,4.94-0.9
	c1.84,0,3.46,0.29,4.86,0.87s2.58,1.39,3.53,2.45s1.66,2.32,2.14,3.78s0.72,3.1,0.72,4.88c0,1.75-0.24,3.36-0.71,4.83
	s-1.18,2.73-2.12,3.79s-2.12,1.88-3.53,2.46s-3.04,0.88-4.9,0.88c-1.82,0-3.42-0.28-4.82-0.85s-2.58-1.37-3.53-2.42
	s-1.68-2.3-2.17-3.77S-1032.5,689.15-1032.5,687.33L-1032.5,687.33z M-1026.38,687.33c0,2.6,0.42,4.57,1.24,5.9s2.12,1.99,3.89,1.99
	c1.73,0,3.02-0.66,3.87-1.98s1.27-3.29,1.27-5.9c0-1.26-0.1-2.38-0.31-3.36s-0.52-1.81-0.94-2.48s-0.95-1.18-1.6-1.53
	s-1.41-0.53-2.31-0.53c-0.88,0-1.65,0.18-2.29,0.53c-0.64,0.35-1.18,0.86-1.6,1.53s-0.73,1.5-0.94,2.48
	S-1026.38,686.08-1026.38,687.33L-1026.38,687.33z M-1002.02,692.91c0,0.49,0.07,0.92,0.2,1.29c0.12,0.34,0.3,0.65,0.54,0.92
	c0.22,0.24,0.5,0.43,0.81,0.55c0.31,0.12,0.64,0.18,1,0.18c0.41,0,0.82-0.06,1.21-0.19c0.39-0.13,0.73-0.32,1.03-0.58
	s0.54-0.59,0.72-0.99s0.27-0.87,0.27-1.4v-6.67c0-1,0.18-1.76,0.54-2.3s0.98-0.8,1.86-0.8c0.93,0,1.6,0.27,2.01,0.8s0.6,1.3,0.6,2.3
	v9.63c0,1-0.2,1.76-0.6,2.3s-1.07,0.8-2.01,0.8c-0.88,0-1.5-0.27-1.86-0.8s-0.54-1.3-0.54-2.3c-0.22,0.48-0.51,0.93-0.86,1.32
	c-0.36,0.4-0.77,0.75-1.23,1.03c-0.48,0.29-1,0.52-1.54,0.67c-0.56,0.16-1.17,0.24-1.82,0.24c-0.69,0-1.38-0.12-2.02-0.37
	c-0.64-0.24-1.22-0.62-1.71-1.1c-0.49-0.49-0.89-1.09-1.18-1.82s-0.44-1.57-0.44-2.53v-7.07c0-1,0.18-1.76,0.54-2.3
	s0.98-0.8,1.86-0.8c0.93,0,1.6,0.27,2.01,0.8s0.6,1.3,0.6,2.3L-1002.02,692.91L-1002.02,692.91L-1002.02,692.91z M-982.85,695.64
	c0,1-0.2,1.76-0.6,2.3s-1.07,0.8-2.01,0.8c-0.88,0-1.5-0.27-1.86-0.8s-0.54-1.3-0.54-2.3v-10.39c0-0.39,0.07-0.73,0.21-1.02
	s0.33-0.53,0.57-0.72c0.24-0.19,0.52-0.34,0.81-0.44c0.31-0.11,0.63-0.16,0.96-0.16c0.82,0,1.44,0.26,1.85,0.79s0.62,1.31,0.62,2.35
	c0.18-1.06,0.61-1.89,1.29-2.49s1.56-0.91,2.63-0.91c0.33,0,0.61,0.05,0.86,0.16s0.46,0.26,0.63,0.43c0.17,0.18,0.3,0.39,0.38,0.61
	c0.08,0.22,0.12,0.46,0.13,0.69c0,0.67-0.23,1.17-0.7,1.49s-1.09,0.51-1.88,0.56c-0.47,0.04-0.91,0.13-1.31,0.27
	s-0.76,0.34-1.05,0.6s-0.53,0.61-0.71,1.03s-0.26,0.93-0.26,1.54L-982.85,695.64L-982.85,695.64L-982.85,695.64z M-965.82,687.51
	c0-1.91,0.28-3.62,0.84-5.12s1.35-2.78,2.35-3.82s2.21-1.83,3.6-2.39s2.91-0.83,4.57-0.83c1.31,0,2.45,0.08,3.42,0.24
	s1.78,0.39,2.42,0.67s1.12,0.62,1.43,1.01s0.47,0.81,0.47,1.26c0,0.3-0.06,0.57-0.19,0.79c-0.12,0.22-0.29,0.41-0.5,0.56
	c-0.2,0.15-0.43,0.25-0.68,0.32s-0.5,0.1-0.76,0.1c-0.15,0-0.29,0-0.44-0.01c-0.14,0-0.29-0.03-0.42-0.07l-1.14-0.31l-1.07-0.26
	l-1.05-0.18c-0.36-0.05-0.73-0.07-1.09-0.07c-0.76,0-1.51,0.11-2.23,0.35c-0.7,0.24-1.3,0.65-1.82,1.25s-0.92,1.41-1.22,2.43
	s-0.45,2.33-0.45,3.91c0,1.22,0.12,2.31,0.36,3.28s0.6,1.79,1.08,2.47s1.08,1.2,1.79,1.56s1.56,0.54,2.51,0.54
	c0.41,0,0.81-0.04,1.21-0.13l1.29-0.32l1.35-0.45l1.36-0.5c0.16-0.05,0.33-0.07,0.5-0.06c0.26,0,0.5,0.05,0.72,0.15
	c0.21,0.1,0.4,0.23,0.56,0.4c0.16,0.17,0.28,0.36,0.36,0.59s0.13,0.46,0.13,0.72c0,0.41-0.13,0.78-0.4,1.13s-0.62,0.65-1.06,0.92
	c-0.48,0.29-0.99,0.53-1.52,0.72c-0.58,0.21-1.17,0.38-1.77,0.51c-0.61,0.14-1.21,0.24-1.82,0.31s-1.16,0.1-1.68,0.1
	c-1.55,0-3-0.26-4.34-0.78s-2.51-1.28-3.49-2.28s-1.76-2.23-2.33-3.7S-965.82,689.4-965.82,687.51L-965.82,687.51z M-937.59,695.64
	c0,1-0.2,1.76-0.6,2.3s-1.07,0.8-2.01,0.8c-0.88,0-1.5-0.27-1.86-0.8s-0.54-1.3-0.54-2.3v-16.64c0-1,0.18-1.76,0.54-2.3
	s0.98-0.8,1.86-0.8c0.93,0,1.6,0.27,2.01,0.8s0.6,1.3,0.6,2.3V695.64z M-928.95,677.31c0,0.35-0.08,0.65-0.24,0.92
	s-0.36,0.49-0.61,0.67c-0.26,0.19-0.56,0.32-0.87,0.4c-0.33,0.09-0.67,0.13-1.02,0.13c-0.37,0-0.72-0.05-1.05-0.14
	s-0.62-0.23-0.87-0.42c-0.25-0.18-0.45-0.41-0.6-0.67c-0.15-0.26-0.22-0.56-0.22-0.9c0-0.3,0.07-0.59,0.21-0.84
	c0.14-0.26,0.34-0.49,0.57-0.67c0.24-0.19,0.53-0.34,0.87-0.44c0.36-0.11,0.73-0.16,1.1-0.16c0.34,0,0.69,0.05,1.02,0.14
	c0.33,0.09,0.62,0.23,0.87,0.41c0.25,0.17,0.45,0.4,0.6,0.66C-929.03,676.67-928.95,676.97-928.95,677.31L-928.95,677.31z
	 M-929.19,695.64c0,1-0.2,1.76-0.6,2.3s-1.07,0.8-2.01,0.8c-0.88,0-1.5-0.27-1.86-0.8s-0.54-1.3-0.54-2.3v-9.63
	c0-1,0.18-1.76,0.54-2.3s0.98-0.8,1.86-0.8c0.93,0,1.6,0.27,2.01,0.8s0.6,1.3,0.6,2.3V695.64z M-910.18,690.31
	c0,0.43-0.14,0.75-0.43,0.96s-0.68,0.32-1.18,0.32h-9.74c0.05,1.27,0.42,2.25,1.09,2.95s1.71,1.05,3.09,1.05
	c0.45,0,0.87-0.03,1.27-0.09c0.39-0.06,0.78-0.14,1.16-0.23l1.13-0.34l1.18-0.39c0.11-0.05,0.24-0.07,0.36-0.08
	c0.35,0,0.62,0.13,0.83,0.4s0.32,0.58,0.32,0.94c0,0.21-0.04,0.41-0.11,0.6c-0.21,0.5-0.56,0.92-1.04,1.25s-1.04,0.59-1.67,0.79
	c-0.65,0.2-1.32,0.33-2,0.4c-0.7,0.07-1.38,0.11-2.02,0.11c-1.21,0-2.33-0.17-3.38-0.52s-1.95-0.86-2.72-1.54s-1.37-1.54-1.8-2.57
	s-0.65-2.22-0.65-3.57c0-1.13,0.21-2.19,0.63-3.18s1.01-1.84,1.76-2.57s1.64-1.3,2.68-1.72s2.17-0.63,3.41-0.63
	c1.34,0,2.5,0.21,3.48,0.62s1.78,0.97,2.42,1.67c0.64,0.7,1.13,1.54,1.43,2.44C-910.35,688.32-910.18,689.31-910.18,690.31
	L-910.18,690.31z M-914.38,689.35c-0.03-0.56-0.13-1.07-0.29-1.54c-0.15-0.45-0.39-0.87-0.69-1.23c-0.3-0.35-0.67-0.62-1.1-0.81
	s-0.94-0.29-1.52-0.29c-0.52,0-1,0.1-1.42,0.31c-0.42,0.2-0.8,0.48-1.1,0.83c-0.32,0.36-0.56,0.78-0.72,1.23
	c-0.18,0.48-0.28,0.99-0.31,1.5L-914.38,689.35L-914.38,689.35L-914.38,689.35z M-907.46,686.01c0-1,0.18-1.76,0.54-2.3
	s0.98-0.8,1.86-0.8c0.93,0,1.6,0.27,2.01,0.8s0.61,1.3,0.61,2.3c0.19-0.5,0.46-0.96,0.82-1.38s0.78-0.77,1.27-1.06
	s1.03-0.52,1.61-0.68c0.61-0.17,1.23-0.25,1.86-0.24c0.67,0,1.33,0.12,1.96,0.36c0.64,0.24,1.19,0.61,1.68,1.09s0.87,1.1,1.16,1.84
	s0.44,1.6,0.44,2.59v7.11c0,1-0.2,1.76-0.61,2.3s-1.07,0.8-2.01,0.8c-0.88,0-1.5-0.27-1.86-0.8s-0.54-1.3-0.54-2.3v-6.9
	c0-0.5-0.07-0.94-0.2-1.31s-0.31-0.68-0.54-0.93c-0.23-0.24-0.5-0.43-0.81-0.56c-0.32-0.13-0.66-0.19-1-0.19
	c-0.43,0-0.85,0.07-1.25,0.21c-0.39,0.14-0.73,0.35-1.02,0.64c-0.3,0.3-0.53,0.66-0.68,1.05c-0.17,0.42-0.25,0.91-0.25,1.46v6.52
	c0,1-0.2,1.76-0.6,2.3s-1.07,0.8-2.01,0.8c-0.88,0-1.5-0.27-1.86-0.8s-0.54-1.3-0.54-2.3L-907.46,686.01L-907.46,686.01z
	 M-886.79,682.85l0.35-3.26c0.03-0.32,0.09-0.63,0.16-0.95s0.21-0.6,0.38-0.86c0.18-0.27,0.42-0.49,0.7-0.64
	c0.29-0.16,0.68-0.24,1.15-0.24c0.69,0,1.19,0.24,1.5,0.72s0.46,1.2,0.46,2.16v3.07h1.76c0.54,0,0.97,0.13,1.31,0.4
	s0.5,0.69,0.5,1.27c0,0.53-0.18,0.94-0.53,1.2s-0.84,0.4-1.45,0.4h-1.59v5.95l0.03,1.61c0.02,0.44,0.09,0.8,0.21,1.08
	s0.29,0.48,0.52,0.6s0.56,0.18,0.99,0.18l0.89,0.04c0.29,0.03,0.54,0.09,0.76,0.2c0.22,0.1,0.4,0.26,0.53,0.47
	c0.13,0.2,0.2,0.48,0.2,0.84c0,0.4-0.1,0.72-0.3,0.96s-0.48,0.43-0.86,0.56s-0.82,0.22-1.34,0.27l-1.74,0.07
	c-0.73-0.01-1.4-0.12-2.01-0.33s-1.12-0.54-1.56-1s-0.77-1.05-1.01-1.78s-0.35-1.62-0.35-2.68v-7.02h-0.72
	c-0.57,0-1.04-0.13-1.42-0.4s-0.57-0.7-0.57-1.3c0-0.47,0.15-0.85,0.45-1.14s0.75-0.43,1.36-0.43L-886.79,682.85L-886.79,682.85
	L-886.79,682.85z M-872.25,687.13c0,0.41,0.18,0.73,0.53,0.95s0.85,0.41,1.48,0.56l1.84,0.39l1.84,0.43
	c0.57,0.15,1.14,0.35,1.68,0.57c0.53,0.22,0.99,0.5,1.39,0.83c0.4,0.33,0.72,0.73,0.94,1.2c0.23,0.47,0.35,1.03,0.35,1.68
	c0,0.82-0.17,1.54-0.5,2.18s-0.81,1.17-1.42,1.61s-1.35,0.78-2.2,1.02s-1.79,0.37-2.82,0.38c-0.94,0-1.88-0.06-2.82-0.18
	c-0.9-0.12-1.7-0.31-2.4-0.56s-1.26-0.56-1.68-0.94s-0.63-0.81-0.63-1.31c0-0.44,0.14-0.78,0.42-1.02s0.65-0.36,1.09-0.36
	c0.17,0,0.37,0.03,0.6,0.09l0.76,0.24l0.87,0.31c0.32,0.11,0.64,0.21,0.97,0.29c0.42,0.12,0.85,0.21,1.3,0.28
	c0.46,0.07,0.92,0.1,1.38,0.1c0.29,0,0.58-0.03,0.87-0.09c0.27-0.05,0.52-0.14,0.76-0.27c0.22-0.11,0.41-0.27,0.56-0.46
	c0.15-0.2,0.24-0.44,0.27-0.69c0.03-0.06,0.06-0.12,0.08-0.19c0.02-0.06,0.03-0.14,0.03-0.22c0-0.29-0.13-0.56-0.4-0.79
	s-0.64-0.41-1.12-0.55l-2.31-0.52l-2.04-0.5c-0.62-0.18-1.19-0.38-1.7-0.61s-0.94-0.51-1.29-0.85s-0.62-0.74-0.82-1.21
	s-0.29-1.04-0.29-1.72c0-0.72,0.16-1.37,0.49-1.94s0.81-1.05,1.42-1.44s1.37-0.69,2.25-0.89s1.88-0.31,2.99-0.31
	c1.99,0,3.51,0.24,4.56,0.72s1.57,1.1,1.57,1.86c0,0.43-0.14,0.76-0.43,0.98s-0.62,0.34-1.02,0.34c-0.21,0-0.43-0.04-0.65-0.12
	l-0.81-0.27c-0.37-0.11-0.74-0.2-1.12-0.27c-0.44-0.08-0.97-0.12-1.61-0.12l-1.31,0.06c-0.39,0.04-0.73,0.11-1.01,0.22
	s-0.49,0.25-0.65,0.43S-872.25,686.86-872.25,687.13L-872.25,687.13z"/>
<g>
	<path class="st27" d="M961,402.16V561H743.89c30.47-52.86,79.23-50.33,97.33-63.96C875.38,471.32,866.14,414.94,961,402.16z
		 M0,155.99L0.16,0l213.21,0.22c-29.97,51.88-77.86,49.34-95.65,62.71C84.15,88.16,93.17,143.53,0,155.99z"/>
	<path class="st28" d="M894.28,81.6h-44.25c-6.56,0-11.88,5.31-11.88,11.88v44.25c0,6.56,5.31,11.88,11.88,11.88h44.25
		c6.56,0,11.88-5.31,11.88-11.88V93.47C906.16,86.91,900.84,81.6,894.28,81.6z M857.64,128.21c0,1.51-1.23,2.71-2.72,2.71h-4.96
		c-1.51,0-2.72-1.23-2.72-2.71v-25.22c0-1.51,1.23-2.71,2.72-2.71h4.96c1.51,0,2.72,1.23,2.72,2.71V128.21z M884.01,132.95
		c0,1.51-1.23,2.71-2.72,2.71h-18.28c-1.51,0-2.72-1.23-2.72-2.71V98.24c0-1.51,1.23-2.71,2.72-2.71h18.28
		c1.51,0,2.72,1.23,2.72,2.71V132.95z M897.07,128.21c0,1.51-1.23,2.71-2.72,2.71h-4.96c-1.51,0-2.72-1.23-2.72-2.71v-25.22
		c0-1.51,1.23-2.71,2.72-2.71h4.96c1.51,0,2.72,1.23,2.72,2.71V128.21z"/>
	<path class="st29" d="M99.99,363.58H69.4c-4.54,0-8.21,3.67-8.21,8.21v30.58c0,4.54,3.67,8.21,8.21,8.21h30.58
		c4.54,0,8.21-3.67,8.21-8.21v-30.58C108.2,367.26,104.52,363.58,99.99,363.58z M74.66,395.8c0,1.04-0.84,1.88-1.88,1.88h-3.43
		c-1.04,0-1.88-0.84-1.88-1.88v-17.43c0-1.04,0.84-1.88,1.88-1.88h3.43c1.04,0,1.88,0.84,1.88,1.88V395.8z M92.89,399.08
		c0,1.04-0.84,1.88-1.88,1.88H78.38c-1.04,0-1.88-0.84-1.88-1.88v-23.99c0-1.04,0.84-1.88,1.88-1.88h12.63
		c1.04,0,1.88,0.84,1.88,1.88L92.89,399.08C92.89,399.08,92.89,399.08,92.89,399.08z M101.91,395.8c0,1.04-0.84,1.88-1.88,1.88
		h-3.43c-1.04,0-1.88-0.84-1.88-1.88v-17.43c0-1.04,0.84-1.88,1.88-1.88h3.43c1.04,0,1.88,0.84,1.88,1.88V395.8z"/>
</g>
<path class="st30" d="M804.15,125.59v338.47c0,5.92-5.56,10.72-12.42,10.72H156.4c-6.86,0-12.42-4.8-12.42-10.72V125.59
	c0-5.93,5.56-10.72,12.42-10.72h635.32C798.59,114.86,804.15,119.66,804.15,125.59z"/>
<path class="st5" d="M884.76,356.47l-2.4-0.79c-0.4-0.13-0.67-0.53-0.64-0.96c0.12-1.77-0.03-3.53-0.45-5.23
	c-0.1-0.4,0.07-0.82,0.41-1.02l3.53-2.18c0.4-0.24,0.54-0.75,0.34-1.17l-1.78-3.72c-0.21-0.44-0.72-0.64-1.17-0.47l-4.21,1.58
	c-0.36,0.14-0.77,0.04-1.03-0.25c-0.56-0.62-1.19-1.18-1.87-1.72l-1.12-0.82c-0.3-0.2-0.46-0.55-0.42-0.9l0.54-4.28
	c0.06-0.49-0.26-0.95-0.75-1.06l-3.89-0.84l-0.09-0.02c-0.47-0.1-0.94,0.17-1.09,0.63l-1.04,3.15c-0.02,0.05-0.04,0.1-0.06,0.15
	c-0.18,0.32-0.53,0.53-0.9,0.49c-2.2-0.18-4.41,0.07-6.5,0.75c-0.09,0.03-0.18,0.04-0.26,0.05c-0.34,0.01-0.65-0.16-0.84-0.45
	l-1.45-2.36c-0.19-0.3-0.54-0.47-0.89-0.44c-0.11,0.01-0.22,0.04-0.32,0.09l-3.66,1.74c-0.45,0.22-0.66,0.75-0.49,1.22l1.3,3.45
	c0.12,0.34,0.05,0.72-0.21,0.98l-1.03,1.19c-0.62,0.78-1.15,1.6-1.6,2.45h-0.01c-0.19,0.36-0.56,0.55-0.97,0.5l-3.71-0.46
	l-0.19-0.02c-0.47-0.07-0.93,0.25-1.03,0.73l-0.85,3.97c-0.1,0.48,0.18,0.97,0.65,1.13l3.5,1.16c0.39,0.12,0.65,0.49,0.65,0.9
	c0.02,1.71,0.3,3.42,0.84,5.05c0.14,0.41-0.03,0.87-0.4,1.1l-2.79,1.73c-0.42,0.26-0.58,0.8-0.36,1.24l1.75,3.68
	c0.21,0.43,0.72,0.64,1.16,0.46l4.05-1.52c0.34-0.13,0.73-0.05,1,0.2l1.04,0.89c0.68,0.54,1.39,1.01,2.12,1.43
	c0.33,0.18,0.52,0.55,0.47,0.93l-0.57,4.46c-0.06,0.49,0.27,0.94,0.75,1.05l3.98,0.86c0.42,0.08,0.84-0.12,1.04-0.5
	c0.02-0.04,0.04-0.08,0.05-0.12l1.29-3.89c0.12-0.36,0.44-0.62,0.81-0.65c0.03,0,0.07-0.01,0.1-0.01c0.1,0.01,0.2,0.01,0.3-0.01
	c1.18,0,2.36-0.14,3.52-0.4c0.38-0.09,0.78,0.08,0.99,0.43l1.83,2.95c0.26,0.42,0.79,0.57,1.24,0.36l0.81-0.39l2.84-1.36
	c0.44-0.21,0.65-0.73,0.48-1.2l-1.28-3.39c-0.14-0.37-0.03-0.77,0.26-1.02c0.78-0.68,1.5-1.43,2.14-2.25
	c0.49-0.62,0.93-1.26,1.31-1.92l0.78,0.1l3.2,0.4c0.39,0.06,0.77-0.14,0.95-0.5c0.04-0.07,0.06-0.15,0.08-0.23l0.87-4
	C885.49,357.1,885.22,356.63,884.76,356.47L884.76,356.47z M869.03,361.65l-0.39,0.19c-1.24,0.59-3.37,0.83-4.71,0.55
	c-0.71-0.15-1.36-0.36-1.97-0.61c-6.08-2.56-7.39-10.11-3-14.57c0.77-0.78,1.72-1.46,2.84-2.01c0.24-0.11,0.52-0.22,0.82-0.31
	c1.28-0.39,2.96-0.52,4.1-0.27C875.46,346.56,876.86,357.56,869.03,361.65z"/>
<g>
	<g>
		<path class="st31" d="M162.86,107.33h625.27c5.98,0,10.83,4.69,10.83,10.47v354.06c0,5.78-4.85,10.47-10.83,10.47H162.86
			c-5.98,0-10.83-4.69-10.83-10.47V117.79C152.03,112.01,156.88,107.33,162.86,107.33z"/>
	</g>
	<path class="st32" d="M799.15,145.92H152.21v-28.96c0-5.32,4.31-9.63,9.63-9.63h627.68c5.32,0,9.63,4.31,9.63,9.63V145.92z"/>
	<g>
		<circle class="st33" cx="177.61" cy="126.62" r="6.33"/>
		<circle class="st34" cx="195.01" cy="126.62" r="6.33"/>
		<circle class="st35" cx="212.4" cy="126.62" r="6.33"/>
	</g>
	<g>
		<circle class="st36" cx="461.7" cy="439.05" r="5.08"/>
		<circle class="st37" cx="475.68" cy="439.05" r="5.08"/>
		<circle class="st36" cx="489.67" cy="439.05" r="5.08"/>
	</g>
	<g>
		<rect x="702.45" y="183.75" class="st38" width="21.36" height="21.36"/>
		<g>
			<g>
				<path class="st39" d="M712.24,194.43l3.44-3.44c0.11-0.11,0.11-0.23,0.11-0.34c0-0.11,0-0.23-0.11-0.34l-0.34-0.34
					c-0.11-0.11-0.23-0.11-0.34-0.11c-0.11,0-0.23,0-0.34,0.11l-4.12,4.12c-0.11,0.11-0.11,0.23-0.11,0.34c0,0.11,0,0.23,0.11,0.34
					l4.12,4.12c0.11,0.11,0.23,0.11,0.34,0.11c0.11,0,0.23,0,0.34-0.11l0.34-0.34c0.23-0.23,0.23-0.57,0-0.69L712.24,194.43z"/>
			</g>
		</g>
	</g>
	<g>
		
			<rect x="730.12" y="183.75" transform="matrix(-1 -8.977054e-11 8.977054e-11 -1 1481.5889 388.8517)" class="st38" width="21.36" height="21.36"/>
		<g>
			<g>
				<path class="st39" d="M741.7,194.43l-3.5,3.5c-0.12,0.12-0.12,0.23-0.12,0.35c0,0.12,0,0.23,0.12,0.35l0.35,0.35
					c0.12,0.12,0.23,0.12,0.35,0.12s0.23,0,0.35-0.12l4.2-4.2c0.12-0.12,0.12-0.23,0.12-0.35s0-0.23-0.12-0.35l-4.2-4.2
					c-0.12-0.12-0.23-0.12-0.35-0.12s-0.23,0-0.35,0.12l-0.35,0.35c-0.23,0.23-0.23,0.58,0,0.7L741.7,194.43z"/>
			</g>
		</g>
	</g>
	<text transform="matrix(1 0 0 1 200.2987 194.426)" class="st40 st41">Logo Carousel</text>
	<text transform="matrix(1 0 0 1 200.2494 351.1945)" class="st40 st41">Top Brands</text>
	<rect x="200.3" y="214.72" class="st42" width="128.26" height="74.26"/>
	<path class="st43" d="M261.49,261.06l-6.11-5.32l-18.98,17.15h59.55l-22.23-24.85L261.49,261.06L261.49,261.06z M231.56,272.89
		h1.35l22.47-20.33l6.03,5.24l12.47-13.26l23.42,26.12v-39.86h-65.74V272.89z M242.2,237.48c2.46,0,4.37,1.99,4.37,4.37
		c0,2.38-1.98,4.37-4.37,4.37c-2.46,0-4.37-1.99-4.37-4.37S239.74,237.48,242.2,237.48z"/>
	<path class="st44" d="M229.1,408.53l-6.11-5.32l-18.98,17.15h59.55l-22.23-24.85L229.1,408.53L229.1,408.53z M199.17,420.37h1.35
		l22.47-20.33l6.03,5.24l12.47-13.26l23.42,26.12v-39.86h-65.74V420.37z M209.81,384.95c2.46,0,4.37,1.99,4.37,4.37
		s-1.98,4.37-4.37,4.37c-2.46,0-4.37-1.99-4.37-4.37C205.44,386.94,207.34,384.95,209.81,384.95z"/>
	<rect x="340.95" y="214.72" class="st42" width="128.26" height="74.26"/>
	<path class="st45" d="M402.14,261.06l-6.11-5.32l-18.98,17.15h59.55l-22.23-24.85L402.14,261.06L402.14,261.06z M372.21,272.89
		h1.35l22.47-20.33l6.03,5.24l12.47-13.26l23.42,26.12v-39.86h-65.74V272.89z M382.85,237.48c2.46,0,4.37,1.99,4.37,4.37
		c0,2.38-1.98,4.37-4.37,4.37c-2.46,0-4.37-1.99-4.37-4.37S380.39,237.48,382.85,237.48z"/>
	<path class="st46" d="M325.32,408.53l-6.11-5.32l-18.98,17.15h59.55l-22.23-24.85L325.32,408.53L325.32,408.53z M295.38,420.37
		h1.35l22.47-20.33l6.03,5.24l12.47-13.26l23.42,26.12v-39.86h-65.74V420.37z M306.02,384.95c2.46,0,4.37,1.99,4.37,4.37
		s-1.98,4.37-4.37,4.37c-2.46,0-4.37-1.99-4.37-4.37C301.66,386.94,303.56,384.95,306.02,384.95z"/>
	<path class="st47" d="M421.54,408.53l-6.11-5.32l-18.98,17.15h59.55l-22.23-24.85L421.54,408.53L421.54,408.53z M391.6,420.37h1.35
		l22.47-20.33l6.03,5.24l12.47-13.26l23.42,26.12v-39.86H391.6V420.37z M402.24,384.95c2.46,0,4.37,1.99,4.37,4.37
		s-1.98,4.37-4.37,4.37c-2.46,0-4.37-1.99-4.37-4.37C397.87,386.94,399.78,384.95,402.24,384.95z"/>
	<path class="st48" d="M517.75,408.53l-6.11-5.32l-18.98,17.15h59.55l-22.23-24.85L517.75,408.53L517.75,408.53z M487.82,420.37
		h1.35l22.47-20.33l6.03,5.24l12.47-13.26l23.42,26.12v-39.86h-65.74V420.37z M498.46,384.95c2.46,0,4.37,1.99,4.37,4.37
		s-1.98,4.37-4.37,4.37c-2.46,0-4.37-1.99-4.37-4.37C494.09,386.94,496,384.95,498.46,384.95z"/>
	<path class="st49" d="M613.97,408.53l-6.11-5.32l-18.98,17.15h59.55l-22.23-24.85L613.97,408.53L613.97,408.53z M584.04,420.37
		h1.35l22.47-20.33l6.03,5.24l12.47-13.26l23.42,26.12v-39.86h-65.74V420.37z M594.68,384.95c2.46,0,4.37,1.99,4.37,4.37
		s-1.98,4.37-4.37,4.37c-2.46,0-4.37-1.99-4.37-4.37C590.31,386.94,592.22,384.95,594.68,384.95z"/>
	<path class="st50" d="M710.19,408.53l-6.11-5.32l-18.98,17.15h59.55l-22.23-24.85L710.19,408.53L710.19,408.53z M680.26,420.37
		h1.35l22.47-20.33l6.03,5.24l12.47-13.26L746,418.14v-39.86h-65.74V420.37z M690.9,384.95c2.46,0,4.37,1.99,4.37,4.37
		s-1.98,4.37-4.37,4.37c-2.46,0-4.37-1.99-4.37-4.37C686.53,386.94,688.43,384.95,690.9,384.95z"/>
	<rect x="481.78" y="214.72" class="st42" width="128.26" height="74.26"/>
	<path class="st51" d="M542.98,261.06l-6.11-5.32l-18.98,17.15h59.55l-22.23-24.85L542.98,261.06L542.98,261.06z M513.05,272.89
		h1.35l22.47-20.33l6.03,5.24l12.47-13.26l23.42,26.12v-39.86h-65.74V272.89z M523.68,237.48c2.46,0,4.37,1.99,4.37,4.37
		c0,2.38-1.98,4.37-4.37,4.37c-2.46,0-4.37-1.99-4.37-4.37S521.22,237.48,523.68,237.48z"/>
	<rect x="622.62" y="214.72" class="st42" width="128.26" height="74.26"/>
	<path class="st35" d="M683.81,261.06l-6.11-5.32l-18.98,17.15h59.55l-22.23-24.85L683.81,261.06L683.81,261.06z M653.88,272.89
		h1.35l22.47-20.33l6.03,5.24l12.47-13.26l23.42,26.12v-39.86h-65.74V272.89z M664.52,237.48c2.46,0,4.37,1.99,4.37,4.37
		c0,2.38-1.98,4.37-4.37,4.37c-2.46,0-4.37-1.99-4.37-4.37S662.06,237.48,664.52,237.48z"/>
</g>
</svg>
