<svg xmlns="http://www.w3.org/2000/svg" xmlns:xlink="http://www.w3.org/1999/xlink" height="300" width="300" fill="#15845a" viewBox="0 0 1024 1024" xmlns:v="https://vecta.io/nano"><path d="M390.7 220.2h52.5 124.9 151 131.4 63.4.9c12.8 0 26.3-5.6 35.4-14.6 8.7-8.7 15.2-22.9 14.6-35.4-.6-12.9-4.8-26.3-14.6-35.4-9.8-9-21.8-14.6-35.4-14.6h-52.5-124.9-151H455c-21.1 0-42.3-.3-63.4 0h-.9c-12.8 0-26.3 5.6-35.4 14.6-8.7 8.7-15.2 22.9-14.6 35.4.6 12.9 4.8 26.3 14.6 35.4 9.8 8.9 21.9 14.6 35.4 14.6h0zm-292 0h108.6 15.4c12.8 0 26.3-5.6 35.4-14.6 8.7-8.7 15.2-22.9 14.6-35.4-.6-12.9-4.8-26.3-14.6-35.4-9.8-9-21.8-14.6-35.4-14.6H114.1 98.7c-12.8 0-26.3 5.6-35.4 14.6-8.7 8.7-15.2 22.9-14.6 35.4.6 12.9 4.8 26.3 14.6 35.4 9.8 8.9 21.9 14.6 35.4 14.6h0z"/><path d="M306.7 204.3c-3.7 0-7.4-.3-11.1-.7l13.3 1.8c-7.6-1.1-14.9-3.1-22-6l11.9 5c-6.5-2.8-12.5-6.4-18.1-10.6l10.1 7.8c-5.9-4.6-11.1-9.8-15.7-15.7l7.8 10.1c-4.3-5.6-7.8-11.7-10.6-18.1l5 11.9c-3-7.1-5-14.4-6-22l1.8 13.3c-.9-7.4-.9-14.8 0-22.2l-1.8 13.3c1.1-7.6 3.1-14.9 6-22l-5 11.9c2.8-6.5 6.4-12.5 10.6-18.1l-7.8 10.1c4.6-5.9 9.8-11.1 15.7-15.7l-10.1 7.8c5.6-4.3 11.7-7.8 18.1-10.6l-11.9 5c7.1-3 14.4-5 22-6l-13.3 1.8c7.4-.9 14.8-.9 22.2 0l-13.3-1.8c7.6 1.1 14.9 3.1 22 6l-11.9-5c6.5 2.8 12.5 6.4 18.1 10.6l-10.1-7.8c5.9 4.6 11.1 9.8 15.7 15.7l-7.8-10.1c4.3 5.6 7.8 11.7 10.6 18.1l-5-11.9c3 7.1 5 14.4 6 22l-1.8-13.3c.9 7.4.9 14.8 0 22.2l1.8-13.3c-1.1 7.6-3.1 14.9-6 22l5-11.9c-2.8 6.5-6.4 12.5-10.6 18.1l7.8-10.1c-4.6 5.9-9.8 11.1-15.7 15.7l10.1-7.8c-5.6 4.3-11.7 7.8-18.1 10.6l11.9-5c-7.1 3-14.4 5-22 6l13.3-1.8c-3.7.4-7.4.7-11.1.7-12.9.1-26.2 5.5-35.4 14.6-8.7 8.7-15.2 22.9-14.6 35.4.6 12.9 4.8 26.3 14.6 35.4 9.7 8.9 21.8 14.8 35.4 14.6 13.4-.1 27.5-1.9 40.2-6.2 11.8-4 24-9.1 34.2-16.5 6.6-4.7 13.3-9.7 19.2-15.3 6.2-5.9 11.4-13 16.5-19.8 7.6-10.3 12.7-21.8 17.1-33.8 9.1-24.5 9.2-54 2.1-79.1-3.5-12.5-8.9-25.1-16.2-35.9-6.8-10.2-14.8-20.5-24.4-28.4-6.3-5.2-12.8-10.4-19.7-14.6-7.3-4.4-15.3-7.6-23.1-10.7-12.4-5-25.5-6.9-38.8-8-25.8-2.1-53.9 5.4-75.9 18.7-21.4 13-40.8 32.7-51.3 55.7-3.4 7.5-6.9 15.2-9.1 23.2-2.3 8.2-3.2 16.8-4.3 25.3-1.6 13.6 0 27.5 2.7 40.9 5.3 26.5 21.3 53.8 42.2 70.9 6.6 5.4 13.5 10.9 20.9 15.3 7.7 4.5 16.2 7.9 24.5 11 13.6 5.2 28.9 7.2 43.3 7.3 12.8.1 26.4-5.7 35.4-14.6 8.7-8.7 15.2-22.9 14.6-35.4-1.3-27.3-22.1-49.8-50.1-50zm474 357.9h117.5 16.5c12.8 0 26.3-5.6 35.4-14.6 8.7-8.7 15.2-22.9 14.6-35.4-.6-12.9-4.8-26.3-14.6-35.4-9.8-9-21.8-14.6-35.4-14.6H797.2h-16.5c-12.8 0-26.3 5.6-35.4 14.6-8.7 8.7-15.2 22.9-14.6 35.4.6 12.9 4.8 26.3 14.6 35.4 9.8 8.9 21.9 14.6 35.4 14.6h0zm-682 0h51.4 122.4H421h128.4 62.4.9c12.8 0 26.3-5.6 35.4-14.6 8.7-8.7 15.2-22.9 14.6-35.4-.6-12.9-4.8-26.3-14.6-35.4-9.8-9-21.8-14.6-35.4-14.6h-51.4-122.4-148.5H162c-20.8 0-41.6-.3-62.4 0h-.9c-12.8 0-26.3 5.6-35.4 14.6-8.7 8.7-15.2 22.9-14.6 35.4.6 12.9 4.8 26.3 14.6 35.4 9.8 8.9 21.9 14.6 35.4 14.6h0z"/><use xlink:href="#B"/><path d="M550.7 904.2h36.1 86.8 105.1 90.9H914h.7c12.8 0 26.3-5.6 35.4-14.6 8.7-8.7 15.2-22.9 14.6-35.4-.6-12.9-4.8-26.3-14.6-35.4-9.8-9-21.8-14.6-35.4-14.6h-36.1-86.8-105.1-90.9c-14.8 0-29.6-.2-44.4 0h-.7c-12.8 0-26.3 5.6-35.4 14.6-8.7 8.7-15.2 22.9-14.6 35.4.6 12.9 4.8 26.3 14.6 35.4 9.8 8.9 21.9 14.6 35.4 14.6h0zm-452 0h95.8 153.2 35c12.8 0 26.3-5.6 35.4-14.6 8.7-8.7 15.2-22.9 14.6-35.4-.6-12.9-4.8-26.3-14.6-35.4-9.8-9-21.8-14.6-35.4-14.6h-95.8-153.2-35c-12.8 0-26.3 5.6-35.4 14.6-8.7 8.7-15.2 22.9-14.6 35.4.6 12.9 4.8 26.3 14.6 35.4 9.8 8.9 21.9 14.6 35.4 14.6h0z"/><use xlink:href="#B" x="-230" y="342"/><defs ><path id="B" d="M696.7 546.3c-3.7 0-7.4-.3-11.1-.7l13.3 1.8c-7.6-1.1-14.9-3.1-22-6l11.9 5c-6.5-2.8-12.5-6.4-18.1-10.6l10.1 7.8c-5.9-4.6-11.1-9.8-15.7-15.7l7.8 10.1c-4.3-5.6-7.8-11.7-10.6-18.1l5 11.9c-3-7.1-5-14.4-6-22l1.8 13.3c-.9-7.4-.9-14.8 0-22.2l-1.8 13.3c1.1-7.6 3.1-14.9 6-22l-5 11.9c2.8-6.5 6.4-12.5 10.6-18.1l-7.8 10.1c4.6-5.9 9.8-11.1 15.7-15.7l-10.1 7.8c5.6-4.3 11.7-7.8 18.1-10.6l-11.9 5c7.1-3 14.4-5 22-6l-13.3 1.8c7.4-.9 14.8-.9 22.2 0l-13.3-1.8c7.6 1.1 14.9 3.1 22 6l-11.9-5c6.5 2.8 12.5 6.4 18.1 10.6l-10.1-7.8c5.9 4.6 11.1 9.8 15.7 15.7l-7.8-10.1c4.3 5.6 7.8 11.7 10.6 18.1l-5-11.9c3 7.1 5 14.4 6 22l-1.8-13.3c.9 7.4.9 14.8 0 22.2l1.8-13.3c-1.1 7.6-3.1 14.9-6 22l5-11.9c-2.8 6.5-6.4 12.5-10.6 18.1l7.8-10.1c-4.6 5.9-9.8 11.1-15.7 15.7l10.1-7.8c-5.6 4.3-11.7 7.8-18.1 10.6l11.9-5c-7.1 3-14.4 5-22 6l13.3-1.8c-3.7.4-7.4.7-11.1.7-12.9.1-26.2 5.5-35.4 14.6-8.7 8.7-15.2 22.9-14.6 35.4.6 12.9 4.8 26.3 14.6 35.4 9.7 8.9 21.8 14.8 35.4 14.6 13.4-.1 27.5-1.9 40.2-6.2 11.8-4 24-9.1 34.2-16.5 6.6-4.7 13.3-9.7 19.2-15.3 6.2-5.9 11.4-13 16.5-19.8 7.6-10.3 12.7-21.8 17.1-33.8 9.1-24.5 9.2-54 2.1-79.1-3.5-12.5-8.9-25.1-16.2-35.9-6.9-10.3-14.9-20.5-24.5-28.4-6.3-5.2-12.8-10.4-19.7-14.6-7.3-4.4-15.3-7.6-23.1-10.7-12.4-5-25.5-6.9-38.8-8-25.8-2.1-53.9 5.4-75.9 18.7-21.4 13-40.8 32.7-51.3 55.7-3.4 7.5-6.9 15.2-9.1 23.2-2.3 8.2-3.2 16.8-4.3 25.3-1.6 13.6 0 27.5 2.7 40.9 5.3 26.5 21.3 53.8 42.2 70.9 6.6 5.4 13.5 10.9 20.9 15.3 7.7 4.5 16.2 7.9 24.5 11 13.6 5.2 28.9 7.2 43.3 7.3 12.8.1 26.4-5.7 35.4-14.6 8.7-8.7 15.2-22.9 14.6-35.4-1.2-27.3-22-49.8-50-50z"/></defs></svg>