<svg xmlns="http://www.w3.org/2000/svg" height="300" width="300" fill="#15845a" viewBox="0 0 100 100"  xmlns:v="https://vecta.io/nano"><path d="M5273.1 2400.1v-2c0-2.8-5-4-9.7-4s-9.7 1.3-9.7 4v2c0 1.8.7 3.6 2 4.9l5 4.9c.3.3.4.6.4 1v6.4c0 .4.2.7.6.8l2.9.9c.5.1 1-.2 1-.8v-7.2c0-.4.2-.7.4-1l5.1-5c1.3-1.3 2-3.1 2-4.9zm-9.7-.1c-4.8 0-7.4-1.3-7.5-1.8h0c.1-.5 2.7-1.8 7.5-1.8s7.3 1.3 7.5 1.8c-.2.5-2.7 1.8-7.5 1.8zm5 10.3a1 1 0 1 0 0 2h4.3a1 1 0 1 0 0-2h-4.3zm4.3 3.4h-4.3a1 1 0 1 0 0 2h4.3a1 1 0 1 0 0-2zm0 3.3h-4.3a1 1 0 1 0 0 2h4.3a.94.94 0 0 0 1-1c0-.5-.4-1-1-1zM3 2.5v95h94v-95H3zm84.3 85.2H12.7V12.3h74.5v75.4zM20.9 20.4h58.2v14.3H20.9zm0 22.4h58.2v14.3H20.9zm0 22.5h58.2v14.3H20.9z"/></svg>