<svg xmlns="http://www.w3.org/2000/svg" height="300" width="300" fill="#15845a" viewBox="0 0 100 100"  xmlns:v="https://vecta.io/nano"><path d="M55 20h5v5h-5zm10 0h5v5h-5zm10 0h5v5h-5zm17.5 21.921V15A7.5 7.5 0 0 0 85 7.5H15A7.5 7.5 0 0 0 7.5 15v70a7.5 7.5 0 0 0 7.5 7.5h21.921c1.373 1.531 3.36 2.5 5.579 2.5h45a7.5 7.5 0 0 0 7.5-7.5v-40c0-2.219-.969-4.206-2.5-5.579zM15 15h70v15H15V15zm20 32.5V85H15V35h70v5H42.5a7.5 7.5 0 0 0-7.5 7.5zm15 0V55h-7.5v-7.5H50zm37.5 40h-45V60h45v27.5zm0-32.5H55v-7.5h32.5V55zm-40 10h35v5h-35zm0 10H65v5H47.5z"/></svg>