<svg xmlns="http://www.w3.org/2000/svg" viewBox="0 0 300 300"  fill="#15845a" xmlns:v="https://vecta.io/nano"><path d="M198.98 236.95c-5.16-15.23-18.75-21.33-32.58-26.72l-32.11-12.42-30 30.23-30.47-30.23-32.11 12.42c-13.59 5.39-27.19 11.72-32.34 26.72-.94 2.81-4.92 24.14-6.56 34.22-.47 2.58 1.64 5.16 4.22 5.16h97.27 97.27c2.58 0 4.69-2.34 4.22-5.16l-6.81-34.22zM40.55 175.78c13.36 3.98 26.72 6.56 40.08 8.2 1.41.23 2.11-1.64.94-2.34-10.08-7.27-15.7-19.22-15.7-30.7v-11.02-15.94l7.27-.47c13.36-.7 26.48-4.92 40.08-12.66l3.75-2.11 3.75 2.11c5.16 2.81 10.78 5.16 16.41 6.56l5.62 1.64v20.86 6.8c-6.56 11.02-16.17 16.87-28.36 17.81-.94-2.34-3.05-3.98-5.86-3.98h-8.67a6.3 6.3 0 0 0-6.33 6.33h0a6.3 6.3 0 0 0 6.33 6.33h8.67c2.81 0 4.92-1.64 5.86-4.22 11.48-.7 20.86-5.39 27.89-14.3-1.17 11.02-6.8 20.86-15.47 26.95-1.17.7-.47 2.58.94 2.34 13.36-1.41 26.72-4.22 40.08-8.2 5.16-1.64 8.2-7.03 6.33-12.19l-8.2-25.31-.47-1.17c1.88-1.88 3.05-4.45 3.05-7.27V112.5c0-5.39-4.45-9.84-9.84-9.84h-4.92v-.23c-3.75-10.78-11.48-22.03-21.8-27.66-2.81-1.41-5.86-1.17-8.91-.94-2.58-2.11-5.39-4.45-8.67-5.62s-6.8-1.64-10.55-1.64c-22.5 0-42.42 14.3-49.69 35.63v.23h-4.92c-5.39 0-9.84 4.45-9.84 9.84v17.58c0 2.81 1.17 5.39 3.05 7.27v1.17l-8.44 25.08c-1.67 5.38 1.15 11.01 6.54 12.41z"/><circle cx="246.56" cy="80.39" r="7.97"/><circle cx="214.92" cy="80.39" r="7.97"/><circle cx="183.05" cy="80.39" r="7.97"/><path d="M240.23 23.67h-50.86c-25.78 0-47.58 17.11-54.61 40.55.7.23 1.41.7 2.34.94 3.28 1.88 6.56 3.98 9.61 6.8 3.98-19.92 21.56-34.92 42.66-34.92h50.86c24.14 0 43.59 19.69 43.59 43.59 0 24.14-19.69 43.59-43.59 43.59h-5.62c-1.64 0-3.28.7-4.45 1.64l-23.91 22.03v-16.88c0-3.75-3.05-6.8-6.56-6.8h-20.16v5.86c0 2.58-.47 5.16-1.41 7.5h14.77v25.31c0 2.58 1.64 4.92 3.98 6.09.94.47 1.88.47 2.58.47 1.64 0 3.28-.7 4.45-1.64l33.28-30.23h3.05c31.41 0 56.95-25.55 56.95-56.95.24-31.4-25.3-56.95-56.95-56.95z"/></svg>