<svg xmlns="http://www.w3.org/2000/svg" viewBox="0 0 300 300" fill="#15845a"  xmlns:v="https://vecta.io/nano"><path d="M18.75 18.747v150h150v-150h-150zm65.63 28.13h18.75l37.5 93.75h-18.75l-7.51-18.75H73.13l-7.51 18.75H46.88l37.5-93.75zm9.37 23.44l-13.13 32.81h26.26l-13.13-32.81zm93.75 60.93v18.75h75v112.5H150v-75h-18.75v93.75h150v-150H187.5zm9.37 28.13v18.75h-37.5v18.75h19.26c1.48 12.99 6.1 23.54 12.52 31.77-9.65 4.13-21.27 5.73-31.79 5.73v18.75c14.61 0 31.95-2.23 46.88-11.15 14.92 8.93 32.26 11.15 46.88 11.15v-18.75c-10.52 0-22.14-1.6-31.79-5.73 6.43-8.23 11.04-18.78 12.52-31.77h19.26v-18.75h-37.5v-18.75h-18.74zm.65 37.5h17.47c-1.23 9.37-4.34 16.07-8.73 21.11-4.4-5.04-7.51-11.74-8.74-21.11z" fill="#15845a"/></svg>