<svg xmlns="http://www.w3.org/2000/svg" width="92" height="92" fill="none" xmlns:v="https://vecta.io/nano"><path d="M91 1H1V91H91V1Z" fill="#f7f8f9" stroke="#d2d2d2" stroke-miterlimit="10"/><path d="M82 47.28H44v2h38v-2zm0-4H44v2h38v-2zm-18-6H44v3h20v-3z" fill="#bdc5cb"/><path d="M70.125 51.28H44v2h26.125v-2z" fill="#d8dcde"/><path d="M23.75 49.896l-2.808-2.444-8.717 7.878h27.354L29.367 43.914l-5.617 5.981zM10 55.33h.62l10.322-9.337 2.772 2.407 5.726-6.091 10.759 11.999V36H10v19.33zm4.887-16.266a2 2 0 0 1 2.006 2.006c0 1.094-.912 2.006-2.006 2.006a2.006 2.006 0 1 1 0-4.012z" fill="#bdc5cb"/></svg>