<svg xmlns="http://www.w3.org/2000/svg" width="92" height="92" fill="none" xmlns:v="https://vecta.io/nano"><path d="M91 1H1V91H91V1Z" fill="#f7f8f9" stroke="#d2d2d2" stroke-miterlimit="10"/><path d="M43.68 53.952l-5.245-4.564-16.28 14.713h51.087L54.17 42.781 43.68 53.952zM18 64.102h1.158l19.277-17.438 5.177 4.496 10.694-11.375L74.4 62.194V28H18v36.102zm9.128-30.38c2.112 0 3.746 1.703 3.746 3.746s-1.703 3.746-3.746 3.746c-2.112 0-3.746-1.703-3.746-3.746s1.635-3.746 3.746-3.746z" fill="#bdc5cb"/><path d="M91 1H1V91H91V1Z" fill="#000" fill-opacity=".4"/><path d="M70 47.51H22v2h48v-2zm0-4H22v2h48v-2zM63 38H30v3h33v-3z" fill="#fff"/><path d="M63 51.51H30v2h33v-2z" fill="#f1f1f1"/></svg>