<svg xmlns="http://www.w3.org/2000/svg" width="152" height="92" fill="none" xmlns:v="https://vecta.io/nano"><path d="M151 1H1V91H151V1Z" fill="#f7f8f9" stroke="#d2d2d2" stroke-miterlimit="10"/><path d="M97 21.7H37v2h60v-2zm0-3H37v2h60v-2zm0-6H67v3h30v-3z" fill="#bdc5cb"/><path d="M96.7 24.7H74v2h22.7v-2z" fill="#d8dcde"/><path d="M127 12h-26v20h26V12zM97 45.7H37v2h60v-2zm0-3H37v2h60v-2zm0-6H67v3h30v-3z" fill="#bdc5cb"/><path d="M96.7 48.7H74v2h22.7v-2z" fill="#d8dcde"/><path d="M127 36h-26v20h26V36zM97 69.7H37v2h60v-2zm0-3H37v2h60v-2zm0-6H67v3h30v-3z" fill="#bdc5cb"/><path d="M96.7 72.7H74v2h22.7v-2z" fill="#d8dcde"/><path d="M127 60h-26v20h26V60z" fill="#bdc5cb"/></svg>