<svg xmlns="http://www.w3.org/2000/svg" width="92" height="92" fill="none" xmlns:v="https://vecta.io/nano"><path d="M91 1H1V91H91V1Z" fill="#f7f8f9" stroke="#d2d2d2" stroke-miterlimit="10"/><path d="M70 64H22v2h48v-2zm0-4H22v2h48v-2zm-7-5.51H30v3h33v-3z" fill="#bdc5cb"/><path d="M55 68H22v2h33v-2z" fill="#d8dcde"/><path d="M43.584 40.823l-4.613-4.014-14.317 12.939h44.927l-16.773-18.75-9.225 9.824zM21 49.749h1.018l16.953-15.335 4.553 3.954 9.405-10.004L70.6 48.072V18H21v31.749zm8.027-26.717c1.857 0 3.295 1.498 3.295 3.295s-1.497 3.295-3.295 3.295c-1.857 0-3.295-1.498-3.295-3.295s1.438-3.295 3.295-3.295z" fill="#bdc5cb"/></svg>