<svg version="1.1" id="icon" xmlns="http://www.w3.org/2000/svg" xmlns:xlink="http://www.w3.org/1999/xlink" x="0px" y="0px"
	 viewBox="0 0 40 40" style="enable-background:new 0 0 40 40;" xml:space="preserve">
<style type="text/css">
	.st0{fill:none;stroke:none;}
</style>
<g id="New_icons_1_">
</g>
<path d="M37.1772461,30.9057617c-1.0224609-0.9624023-2.2167969-1.8222656-3.480957-2.7324219
	c-2.4003906-1.7290039-4.8828125-3.5161133-6.2822266-6.1376953c-1.1845093-2.0888672-0.5540161-4.3959961-0.4942017-4.6022949
	c0.8815918-1.246582,0.7546997-3.0599976-0.3822632-4.1965332l-5.2939453-5.2939453l-7.8066406-7.8066406
	c-0.1953125-0.1953125-0.5117188-0.1953125-0.7070312,0s-0.1953125,0.5117188,0,0.7070312l7.453125,7.453125l-0.8659668,0.8659058
	l-7.4528809-7.4533081c-0.1953125-0.1953125-0.5117188-0.1953125-0.7070312,0s-0.1953125,0.5117188,0,0.7070312l7.4528809,7.4533081
	l-0.8657837,0.8657227l-7.4533081-7.4528198c-0.1953125-0.1953125-0.5117188-0.1953125-0.7070312,0
	s-0.1953125,0.5117188,0,0.7070312l7.4533081,7.4528198l-0.8659668,0.8659668l-7.453064-7.453064
	c-0.1953125-0.1953125-0.5117188-0.1953125-0.7070312,0s-0.1953125,0.5117188,0,0.7070312l7.4530029,7.4530029l-0.8659668,0.8659668
	L7.1450195,6.4277344c-0.1953125-0.1953125-0.5117188-0.1953125-0.7070312,0s-0.1953125,0.5117188,0,0.7070312l7.4532471,7.4532471
	l-0.8657837,0.8657227l-7.453186-7.4527588c-0.1953125-0.1953125-0.5117188-0.1953125-0.7070312,0s-0.1953125,0.5117188,0,0.7070312
	l7.453186,7.4527588l-0.8662109,0.8661499l-7.4526978-7.453186c-0.1953125-0.1953125-0.5117188-0.1953125-0.7070312,0
	s-0.1953125,0.5117188,0,0.7070312l7.4526978,7.453186l-0.8657227,0.8657227l-7.453186-7.453186
	c-0.1953125-0.1953125-0.5117188-0.1953125-0.7070312,0s-0.1953125,0.5117188,0,0.7070312l7.453125,7.453125l-0.8657227,0.8657227
	l-7.453125-7.4526367c-0.1953125-0.1953125-0.5117188-0.1953125-0.7070312,0s-0.1953125,0.5117188,0,0.7070312l7.8066406,7.8061523
	l5.2939453,5.2944336c0.6425781,0.6425781,1.503418,0.9658203,2.3554688,0.9658203
	c0.6557617,0,1.3008423-0.2001953,1.8426514-0.5839233c0.213623-0.0614014,2.5165405-0.6880493,4.6124268,0.5004272
	c2.6279297,1.4033203,4.4438477,3.9248047,6.2001953,6.3637695c0.8935547,1.2412109,1.737793,2.4135742,2.6547852,3.3896484
	c1.2045898,1.3056641,2.8261719,2.809082,4.6889648,2.8466797c0.0234375,0.0004883,0.0463867,0.0004883,0.0698242,0.0004883
	c1.0385742,0,2.0332031-0.4682617,2.9570312-1.3920898C41.7587891,35.4873047,38.7856445,32.5136719,37.1772461,30.9057617z
	 M13.9541016,25.8203125l-4.9404297-4.940918l7.5106812-7.510376c0.0001831-0.0001831,0.0003662-0.0001831,0.0005493-0.0003662
	s0.0001831-0.0003662,0.0003662-0.0005493l4.3648682-4.3646851l4.9404297,4.9404297
	c0.878418,0.878418,0.9077148,2.3330078,0.0649414,3.1762695l-8.7651367,8.7646484
	C16.2875977,26.7275391,14.8330078,26.6987305,13.9541016,25.8203125z M37.9213867,37.9111328
	c-0.7553711,0.7558594-1.5327148,1.1201172-2.2993164,1.0986328c-1.5024414-0.0302734-2.987793-1.4550781-3.9775391-2.527832
	c-0.8754883-0.9321289-1.7011719-2.0786133-2.5751953-3.2924805c-1.7382812-2.4135742-3.7080078-5.1494141-6.5297852-6.6557617
	c-1.3588257-0.7705688-2.7667236-0.8922119-3.8114624-0.8325195l6.9825439-6.9821777
	c-0.0598755,1.0431519,0.0608521,2.4470215,0.8274536,3.798584c1.5024414,2.8154297,4.0805664,4.671875,6.5737305,6.4672852
	c1.2368164,0.890625,2.4052734,1.7319336,3.3691406,2.6386719C38.9277344,34.0708008,39.9482422,35.8837891,37.9213867,37.9111328z"
	/>
<rect class="st0" width="40" height="40"/>
</svg>
