<?xml version="1.0" encoding="utf-8"?>
<!-- Generator: Adobe Illustrator 21.1.0, SVG Export Plug-In . SVG Version: 6.00 Build 0)  -->
<svg version="1.1" id="icon" xmlns="http://www.w3.org/2000/svg" xmlns:xlink="http://www.w3.org/1999/xlink" x="0px" y="0px"
	 viewBox="0 0 40 40" style="enable-background:new 0 0 40 40;" xml:space="preserve">
<style type="text/css">
	.st0{fill:none;stroke:none;}
</style>
<g id="New_icons_1_">
</g>
<path d="M35.7631836,15.590332C35.6638794,6.9777832,28.6356201,0,20,0S4.3356323,6.9777832,4.2363281,15.590332
	c-0.0015259,0.0158691-0.0092773,0.0296021-0.0092773,0.0458984v4.2275391c0,0.2758789,0.2236328,0.4995117,0.5,0.4995117H5.215332
	l1.3310547,19.1708984C6.5649414,39.796875,6.7827148,40,7.0454102,40h25.9086914
	c0.2626953,0,0.4804688-0.203125,0.4990234-0.4658203l1.3320312-19.1708984h0.4873047c0.2763672,0,0.5-0.2236328,0.5-0.4995117
	v-4.2275391C35.7724609,15.6199341,35.7647095,15.6062012,35.7631836,15.590332z M5.6816406,19.3637695H5.2270508v-3.2275391
	h29.5454102v3.2275391h-0.4541016H5.6816406z M20,1c7.930603,0,14.4031982,6.2866211,14.7401733,14.1362305H5.2593384
	C5.5963135,7.2866211,12.0689087,1,20,1z M32.4873047,39H7.5117188L6.2177734,20.3632812h19.9638672V24.5
	c0,0.2763672,0.2236328,0.5,0.5,0.5s0.5-0.2236328,0.5-0.5v-4.1367188h1.1816406v10.2734375c0,0.2763672,0.2236328,0.5,0.5,0.5
	s0.5-0.2236328,0.5-0.5V20.3632812h4.4189453L32.4873047,39z"/>
<rect y="0" class="st0" width="40" height="40"/>
</svg>
