<?xml version="1.0" encoding="utf-8"?>
<!-- Generator: Adobe Illustrator 21.1.0, SVG Export Plug-In . SVG Version: 6.00 Build 0)  -->
<svg version="1.1" id="icon" xmlns="http://www.w3.org/2000/svg" xmlns:xlink="http://www.w3.org/1999/xlink" x="0px" y="0px"
	 viewBox="0 0 40 40" style="enable-background:new 0 0 40 40;" xml:space="preserve">
<style type="text/css">
	.st0{fill:none;stroke:none;}
</style>
<g id="New_icons_1_">
</g>
<rect y="0" class="st0" width="40" height="40"/>
<g>
	<path d="M34.7783203,25.9042969c-1.7636719,0-3.1992188,1.4355469-3.1992188,3.1992188
		c0,1.7646484,1.4355469,3.2001953,3.1992188,3.2001953c1.7646484,0,3.2001953-1.4355469,3.2001953-3.2001953
		C37.9785156,27.3398438,36.5429688,25.9042969,34.7783203,25.9042969z M34.7783203,31.3037109
		c-1.2128906,0-2.1992188-0.9873047-2.1992188-2.2001953s0.9863281-2.1992188,2.1992188-2.1992188
		s2.2001953,0.9863281,2.2001953,2.1992188S35.9912109,31.3037109,34.7783203,31.3037109z"/>
	<path d="M26.7929688,25.9042969c-1.7646484,0-3.2001953,1.4355469-3.2001953,3.1992188
		c0,1.7646484,1.4355469,3.2001953,3.2001953,3.2001953c1.7636719,0,3.1992188-1.4355469,3.1992188-3.2001953
		C29.9921875,27.3398438,28.5566406,25.9042969,26.7929688,25.9042969z M26.7929688,31.3037109
		c-1.2128906,0-2.2001953-0.9873047-2.2001953-2.2001953s0.9873047-2.1992188,2.2001953-2.1992188
		s2.1992188,0.9863281,2.1992188,2.1992188S28.0058594,31.3037109,26.7929688,31.3037109z"/>
	<path d="M18.8066406,25.9042969c-1.7641602,0-3.199707,1.4355469-3.199707,3.1992188
		c0,1.7646484,1.4355469,3.2001953,3.199707,3.2001953c1.7636719,0,3.1992188-1.4355469,3.1992188-3.2001953
		C22.0058594,27.3398438,20.5703125,25.9042969,18.8066406,25.9042969z M18.8066406,31.3037109
		c-1.2128906,0-2.199707-0.9873047-2.199707-2.2001953s0.9868164-2.1992188,2.199707-2.1992188
		s2.1992188,0.9863281,2.1992188,2.1992188S20.0195312,31.3037109,18.8066406,31.3037109z"/>
	<path d="M37.7080078,24.6914673V6.4042969c0-0.2763672-0.2236328-0.5-0.5-0.5H24.9960938
		c-0.1621094,0-0.3134766,0.078125-0.4072266,0.2099609c-0.1553345,0.2182007-3.7097778,5.3074951-3.8821411,12.0556641h-7.7155151
		v-8.1694336c0-0.2763672-0.2236328-0.5-0.5-0.5H8.8857422c-0.1396484,0-0.2734375,0.0585938-0.3676758,0.1616211
		C8.4233398,9.7646484,8.3759766,9.902832,8.3876953,10.0419922c0.0087891,0.1074219,0.8447266,10.8056641-3.2128906,17.5742188
		c-2.1904297,3.5517578-4.9584961,5.7783203-4.9863281,5.7998047c-0.1660156,0.1328125-0.2304688,0.3554688-0.1601562,0.5566406
		C0.0981445,34.1728516,0.2875977,34.3076172,0.5,34.3076172h11.9912109c0.2763672,0,0.5-0.2236328,0.5-0.5V22.9472656h7.6992188
		v0.9355469h-2.1054688c-2.7568359,0-5,2.2431641-5,5v0.4423828c0,2.7568359,2.2431641,5,5,5H35c2.7568359,0,5-2.2431641,5-5
		v-0.4423828C40,27.1251221,39.0834351,25.583313,37.7080078,24.6914673z M36.7080078,24.2028809
		C36.1727295,24.0067139,35.602417,23.8828125,35,23.8828125h-5.1369019l0.2019043-0.9355469h2.0619507
		c0.8271484,0,1.5-0.6728516,1.5-1.5v-1.7773438c0-0.8271484-0.6728516-1.5-1.5-1.5h-1.0294189l2.4324951-11.265625h3.1779785
		V24.2028809z M11.5327148,21.9472656c-0.2758789,0-0.5-0.2246094-0.5-0.5v-1.7773438c0-0.2758789,0.2241211-0.5,0.5-0.5h20.5942383
		c0.2753906,0,0.5,0.2241211,0.5,0.5v1.7773438c0,0.2753906-0.2246094,0.5-0.5,0.5H11.5327148z M25.2626953,6.9042969h7.2452393
		l-2.4324951,11.265625h-8.3701172C21.8616333,12.4849243,24.6043091,7.918457,25.2626953,6.9042969z M11.9912109,33.3076172
		H1.8168945c1.0483398-0.9941406,2.7382812-2.78125,4.2124023-5.171875
		c3.7412109-6.2402344,3.5175781-15.3154297,3.390625-17.6352539h2.5712891v7.6694336h-0.4584961
		c-0.8271484,0-1.5,0.6728516-1.5,1.5v1.7773438c0,0.8271484,0.6728516,1.5,1.5,1.5h0.4584961V33.3076172z M21.6904297,22.9472656
		h7.352478l-0.2019043,0.9355469h-7.1505737V22.9472656z M39,29.3251953c0,2.2060547-1.7939453,4-4,4H18.5849609
		c-2.2055664,0-4-1.7939453-4-4v-0.4423828c0-2.2060547,1.7944336-4,4-4h2.5182495
		c0.0293579,0.0053711,0.0562744,0.0175781,0.0872192,0.0175781s0.0578613-0.012207,0.0872192-0.0175781H35
		c2.2060547,0,4,1.7939453,4,4V29.3251953z"/>
</g>
</svg>
