<?xml version="1.0" encoding="utf-8"?>
<!-- Generator: Adobe Illustrator 21.1.0, SVG Export Plug-In . SVG Version: 6.00 Build 0)  -->
<svg version="1.1" id="icon" xmlns="http://www.w3.org/2000/svg" xmlns:xlink="http://www.w3.org/1999/xlink" x="0px" y="0px"
	 viewBox="0 0 40 40" style="enable-background:new 0 0 40 40;" xml:space="preserve">
<style type="text/css">
	.st0{fill:none;stroke:none;}
</style>
<g id="New_icons_1_">
</g>
<g>
	<path d="M9.1357422,25.8564453c-2.559082,0-4.640625,2.0820312-4.640625,4.640625s2.081543,4.640625,4.640625,4.640625
		s4.640625-2.0820312,4.640625-4.640625S11.6948242,25.8564453,9.1357422,25.8564453z M9.1357422,34.1376953
		c-2.0073242,0-3.640625-1.6328125-3.640625-3.640625s1.6333008-3.640625,3.640625-3.640625s3.640625,1.6328125,3.640625,3.640625
		S11.1430664,34.1376953,9.1357422,34.1376953z"/>
	<path d="M32.1396484,25.8564453c-2.5585938,0-4.640625,2.0820312-4.640625,4.640625s2.0820312,4.640625,4.640625,4.640625
		s4.6396484-2.0820312,4.6396484-4.640625S34.6982422,25.8564453,32.1396484,25.8564453z M32.1396484,34.1376953
		c-2.0078125,0-3.640625-1.6328125-3.640625-3.640625s1.6328125-3.640625,3.640625-3.640625
		c2.0068359,0,3.6396484,1.6328125,3.6396484,3.640625S34.1464844,34.1376953,32.1396484,34.1376953z"/>
	<path d="M25.9873047,29.9970703H15.2871094c-0.2763672,0-0.5,0.2236328-0.5,0.5s0.2236328,0.5,0.5,0.5h10.7001953
		c0.2763672,0,0.5-0.2236328,0.5-0.5S26.2636719,29.9970703,25.9873047,29.9970703z"/>
	<path d="M30.1279297,24.7275391h5.8613281c0.2763672,0,0.5-0.2236328,0.5-0.5s-0.2236328-0.5-0.5-0.5h-5.8613281
		c-2.3173218,0-4.2108154,1.7130737-4.4695435,3.9033203h-9.9232178c-0.2081909-1.7622681-1.4755859-3.1982422-3.1755981-3.6973267
		v-7.3153687c0-0.2763672-0.2236328-0.5-0.5-0.5H5.6787109c-2.5556641,0-4.6386719,1.9467773-4.8442383,4.5263672
		l-0.8325195,9.8105469c-0.012207,0.1396484,0.0351562,0.2773438,0.1298828,0.3798828
		C0.2265625,30.9384766,0.3598633,30.9970703,0.5,30.9970703h2.2192383c0.2763672,0,0.5-0.2236328,0.5-0.5s-0.2236328-0.5-0.5-0.5
		H1.0444336l0.1159058-1.3662109h2.0603638c0.2763672,0,0.5-0.2236328,0.5-0.5c0-1.8769531,1.5800781-3.4033203,3.5224609-3.4033203
		h4.0219727c1.9418945,0,3.5219727,1.5263672,3.5219727,3.4033203c0,0.2763672,0.2236328,0.5,0.5,0.5h10.7001953
		c0.0211182,0,0.0391235-0.0094604,0.0595703-0.0120239c0.0204468,0.0025635,0.0384521,0.0120239,0.0595703,0.0120239
		c0.2763672,0,0.5-0.2236328,0.5-0.5C26.6064453,26.2539062,28.1865234,24.7275391,30.1279297,24.7275391z M5.6787109,17.1181641
		h1.4057617v4.5966797H1.7471924l0.0838623-0.9882812C1.9951172,18.6694336,3.6494141,17.1181641,5.6787109,17.1181641z
		 M7.2431641,23.7275391c-2.3178101,0-4.211792,1.7130737-4.47052,3.9033203H1.2452393l0.4171143-4.9160156h5.9221191
		c0.2763672,0,0.5-0.2236328,0.5-0.5v-5.0966797h3.4750977v6.6383667c-0.0991821-0.0063477-0.1936035-0.0289917-0.2944336-0.0289917
		H7.2431641z"/>
	<path d="M39.9365234,16.0917969L36.5009766,5.449707c-0.0712891-0.2216797-0.2763672-0.3676758-0.5214844-0.3442383
		L20.6503906,6.5107422c-0.0742188,0.0068359-0.1464844,0.0302734-0.2099609,0.0688477l-8.637207,5.1513672
		c-0.199707,0.1191406-0.2910156,0.3608398-0.2192383,0.5830078l4.1269531,12.7807617
		c0.0668945,0.2080078,0.2602539,0.3466797,0.4750977,0.3466797c0.0146484,0,0.0292969-0.0009766,0.0439453-0.0019531
		l10.0180664-0.8720703c0.0751953-0.0068359,0.1464844-0.0292969,0.2109375-0.0673828l13.2558594-7.8237305
		C39.9169922,16.5571289,40.0087891,16.3144531,39.9365234,16.0917969z M26.0488281,23.5810547l-9.5087891,0.828125
		l-3.8823242-12.0234375l8.1967773-4.8891602l9.6092529-0.8808594l3.8937988,12.0615234L26.0488281,23.5810547z
		 M35.2398682,18.1564941L31.4840698,6.5221558l4.1887817-0.3839722l3.1894531,9.8803711L35.2398682,18.1564941z"/>
</g>
<rect y="0" class="st0" width="40" height="40"/>
</svg>
