<?xml version="1.0" encoding="utf-8"?>
<!-- Generator: Adobe Illustrator 21.1.0, SVG Export Plug-In . SVG Version: 6.00 Build 0)  -->
<svg version="1.1" id="icon" xmlns="http://www.w3.org/2000/svg" xmlns:xlink="http://www.w3.org/1999/xlink" x="0px" y="0px"
	 viewBox="0 0 40 40" style="enable-background:new 0 0 40 40;" xml:space="preserve">
<style type="text/css">
	.st0{fill:none;stroke:none;}
</style>
<g id="New_icons_1_">
</g>
<g>
	<path d="M33.4682617,12.5576172h0.262207C37.2460938,12.5576172,40,9.8037109,40,6.2880859
		c0-3.5151367-2.7539062-6.269043-6.2695312-6.269043H15.6152344c-1.9909058,0-3.7363281,0.8844604-4.87677,2.2892456
		L5.3793945,3.1987305C5.1381836,3.2387695,4.9614258,3.4472656,4.9614258,3.6918945v1.3061523H1.0546875
		c-0.1630859,0-0.3154297,0.0795898-0.4091797,0.2128906L0.0908203,6.0009766c-0.1210938,0.1723633-0.1210938,0.4018555,0,0.5742188
		l0.5546875,0.7905273c0.0932617,0.1333008,0.2460938,0.2128906,0.4091797,0.2128906h3.9067383v1.3056641
		c0,0.2446289,0.1767578,0.453125,0.4179688,0.4931641l5.3591919,0.8909302
		c1.1404419,1.4047852,2.8858032,2.2892456,4.8766479,2.2892456h2.3982544
		c0.5228882,0.4417725,1.5743408,1.5308228,1.7316284,2.6455078c0.2021484,1.4379883-0.105957,2.1821289-0.1069336,2.1845703
		c-0.0698242,0.1547852-0.0566406,0.3344727,0.0351562,0.4775391c0.0922852,0.1425781,0.2504883,0.2290039,0.4204102,0.2290039
		h3.4844971c0.1730957,1.133606,0.3557129,2.5054321,0.5477295,4.1381836
		c0.1396484,1.5292969-0.5888672,2.8496094-1.9453125,3.46875l-5.5527344,3.2148438
		c-0.0036011,0.0020752-0.0054321,0.0057373-0.0089111,0.0078735c-1.6887207,0.7697144-2.8709717,2.4645996-2.8709717,4.4384155
		v1.7539062C13.7480469,37.8095703,15.9389648,40,18.6323242,40h11.9838867C33.3095703,40,35.5,37.8095703,35.5,35.1162109
		v-1.7539062c0-0.6933594-0.1393433-1.3474731-0.3890991-1.9395752c-1.3134155-6.5296021-3.2642212-16.5692749-3.2642212-17.4974365
		C31.8466797,13.1959229,32.9967041,12.6989136,33.4682617,12.5576172z M39,6.2880859
		c0,2.9550781-2.3144531,5.2695312-5.2695312,5.2695312H20.8061523c-0.0001831,0.000061-0.0004272,0-0.0006104,0h-3.4207764
		V1.019043h16.3457031C36.6855469,1.019043,39,3.3334961,39,6.2880859z M1.3144531,6.5786133L1.1108398,6.2880859
		l0.2036133-0.2900391h3.6469727v0.5805664H1.3144531z M5.9614258,8.4604492V4.1157227l4.0519409-0.6733398
		C9.5889893,4.2927856,9.3461914,5.2559814,9.3461914,6.2880859c0,1.0322876,0.2427979,1.9956055,0.6672363,2.8460693
		L5.9614258,8.4604492z M10.3461914,6.2880859c0-2.9545898,2.3144531-5.269043,5.269043-5.269043h0.7695312v10.5385742h-0.7695312
		C12.6606445,11.5576172,10.3461914,9.2431641,10.3461914,6.2880859z M20.7412109,17.0942383
		c0.0771484-0.4575195,0.1201172-1.1347656-0.0058594-2.0307617c-0.1414185-1.0013428-0.7564087-1.8856812-1.3071289-2.5058594
		h1.2952271c0.3406372,0.1508789,1.7988281,0.8798218,2.2531128,2.4663086
		c0.1369019,0.4575806,0.2844849,1.1585083,0.4406128,2.0703125H20.7412109z M34.5,35.1162109
		C34.5,37.2578125,32.7578125,39,30.6162109,39H18.6323242c-2.1416016,0-3.8842773-1.7421875-3.8842773-3.8837891v-1.7539062
		c0-1.6085205,0.9833984-2.9916382,2.380188-3.5808716c0.0002441-0.0001221,0.0004272-0.000061,0.0006714-0.0001831
		l0.0001221-0.000061c0.4627075-0.1950684,0.97052-0.3036499,1.5032959-0.3036499h11.9838867
		c2.2138672,0,3.8837891,1.6699219,3.8837891,3.8847656V35.1162109z M33.7262573,29.5979004
		c-0.8412476-0.6920776-1.911377-1.1203613-3.1100464-1.1203613H19.3789673l3.2597046-1.8886719
		c1.6845703-0.7666016,2.6591797-2.5117188,2.4824219-4.4599609c-0.4472656-3.8022461-0.8359375-6.2207031-1.1855469-7.3862305
		c-0.2807617-0.9817505-0.8529053-1.6852417-1.4185181-2.1850586h8.9685669
		c-0.3603516,0.3488159-0.638916,0.7937012-0.638916,1.3676758C30.8466797,15.012085,32.8256226,25.0736084,33.7262573,29.5979004z"
		/>
	<path d="M29.5771484,4.0161133h4.0380859c0.2763672,0,0.5-0.2236328,0.5-0.5s-0.2236328-0.5-0.5-0.5h-4.0380859
		c-0.2763672,0-0.5,0.2236328-0.5,0.5S29.3007812,4.0161133,29.5771484,4.0161133z"/>
	<path d="M29.5771484,6.859375h4.0380859c0.2763672,0,0.5-0.2236328,0.5-0.5s-0.2236328-0.5-0.5-0.5h-4.0380859
		c-0.2763672,0-0.5,0.2236328-0.5,0.5S29.3007812,6.859375,29.5771484,6.859375z"/>
	<path d="M29.5771484,9.5605469h4.0380859c0.2763672,0,0.5-0.2236328,0.5-0.5s-0.2236328-0.5-0.5-0.5h-4.0380859
		c-0.2763672,0-0.5,0.2236328-0.5,0.5S29.3007812,9.5605469,29.5771484,9.5605469z"/>
</g>
<rect class="st0" width="40" height="40"/>
</svg>
