<?xml version="1.0" encoding="utf-8"?>
<!-- Generator: Adobe Illustrator 21.1.0, SVG Export Plug-In . SVG Version: 6.00 Build 0)  -->
<svg version="1.1" id="icon" xmlns="http://www.w3.org/2000/svg" xmlns:xlink="http://www.w3.org/1999/xlink" x="0px" y="0px"
	 viewBox="0 0 40 40" style="enable-background:new 0 0 40 40;" xml:space="preserve">
<style type="text/css">
	.st0{fill:none;stroke:none;}
</style>
<g id="New_icons_1_">
</g>
<g>
	<path d="M34.7783203,25.7900391c-1.7636719,0-3.1992188,1.4355469-3.1992188,3.1992188s1.4355469,3.1992188,3.1992188,3.1992188
		c1.7646484,0,3.2001953-1.4355469,3.2001953-3.1992188S36.5429688,25.7900391,34.7783203,25.7900391z M34.7783203,31.1884766
		c-1.2128906,0-2.1992188-0.9863281-2.1992188-2.1992188s0.9863281-2.1992188,2.1992188-2.1992188
		s2.2001953,0.9863281,2.2001953,2.1992188S35.9912109,31.1884766,34.7783203,31.1884766z"/>
	<path d="M26.7929688,25.7900391c-1.7646484,0-3.2001953,1.4355469-3.2001953,3.1992188s1.4355469,3.1992188,3.2001953,3.1992188
		c1.7636719,0,3.1992188-1.4355469,3.1992188-3.1992188S28.5566406,25.7900391,26.7929688,25.7900391z M26.7929688,31.1884766
		c-1.2128906,0-2.2001953-0.9863281-2.2001953-2.1992188s0.9873047-2.1992188,2.2001953-2.1992188
		s2.1992188,0.9863281,2.1992188,2.1992188S28.0058594,31.1884766,26.7929688,31.1884766z"/>
	<path d="M18.8066406,25.7900391c-1.7641602,0-3.199707,1.4355469-3.199707,3.1992188s1.4355469,3.1992188,3.199707,3.1992188
		c1.7636719,0,3.1992188-1.4355469,3.1992188-3.1992188S20.5703125,25.7900391,18.8066406,25.7900391z M18.8066406,31.1884766
		c-1.2128906,0-2.199707-0.9863281-2.199707-2.1992188s0.9868164-2.1992188,2.199707-2.1992188
		s2.1992188,0.9863281,2.1992188,2.1992188S20.0195312,31.1884766,18.8066406,31.1884766z"/>
	<path d="M37.7080078,24.5762329V6.2895508c0-0.2763672-0.2236328-0.5-0.5-0.5H24.9960938
		c-0.1650391,0-0.3193359,0.081543-0.4130859,0.2182617c-0.0219727,0.0325317-0.4855347,0.7207031-1.0857544,2.1136475
		l-3.1554565-3.1556396c-0.5859375-0.5849609-1.5371094-0.5849609-2.1220703,0L16.9633789,6.222168L4.7962646,18.3960571
		c-1.0916138,0.3312378-2.0823975,0.9271851-2.8934326,1.7553101c-1.2646484,1.2919922-1.9399414,3.0009766-1.9013672,4.8017578
		v2.3955078c0,1.8984375,0.7314453,3.6601562,2.059082,4.9599609c1.2568359,1.2294922,2.9086914,1.9023438,4.6552734,1.9023438
		c0.0488281,0,0.0976562-0.0009766,0.1464844-0.0019531l5.6884766-0.0039062c0.2758789,0,0.4990234-0.2246094,0.4990234-0.5
		V31.203125c0-0.2763672-0.2236328-0.5-0.5-0.5h-1.8950195V19.2929688l8.6290894-8.6286621l2.5783691,2.5784912
		c-0.7402954,3.1813965-1.1272583,6.718689-1.1590576,10.5247803h-2.1182251c-2.7568359,0-5,2.2431641-5,5v0.4433594
		c0,2.7568359,2.2431641,5,5,5H35c2.7568359,0,5-2.2431641,5-5v-0.4433594
		C40,27.0098877,39.0834351,25.4680786,37.7080078,24.5762329z M36.7080078,24.0876465
		C36.1727295,23.8914795,35.602417,23.7675781,35,23.7675781h-5.1800537l0.460144-2.1066284l1.2453003,1.2453003
		c0.2929688,0.2919922,0.6767578,0.4384766,1.0615234,0.4384766c0.3837891,0,0.7675781-0.1464844,1.0605469-0.4384766
		l1.2558594-1.2568359c0.2832031-0.2822266,0.4384766-0.6591797,0.4384766-1.0605469s-0.1552734-0.7783203-0.4384766-1.0605469
		l-3.4117432-3.4119873l2.0377808-9.3267822h3.1786499V24.0876465z M25.2744141,6.7895508h7.2316284l-1.854248,8.4869385
		l-6.3884277-6.3887939C24.7012329,7.8235474,25.0822754,7.1146851,25.2744141,6.7895508z M18.9267578,5.6728516
		c0.09375-0.09375,0.2192383-0.1455078,0.3535156-0.1455078c0.1347656,0,0.2602539,0.0517578,0.3540039,0.1455078
		l3.6767578,3.6768799c0.0081177,0.0085449,0.0158081,0.0165405,0.0245361,0.0245361l10.8607178,10.861084
		c0.09375,0.09375,0.1455078,0.2197266,0.1455078,0.3535156s-0.0517578,0.2597656-0.1455078,0.3535156l-1.2558594,1.2568359
		c-0.1943359,0.1923828-0.5126953,0.1933594-0.7080078,0L19.6387939,9.6051636
		c-0.0004883-0.0004883-0.0006104-0.0011597-0.0010986-0.0016479s-0.0011597-0.0006104-0.0016479-0.0010986l-1.9656372-1.9656982
		c-0.09375-0.09375-0.1455078-0.2192383-0.1455078-0.3540039c0-0.1342773,0.0517578-0.2597656,0.1455078-0.3535156
		L18.9267578,5.6728516z M12.0498047,31.703125v1.5029297l-5.1982422,0.0029297
		c-1.5307617,0.0390625-2.9936523-0.5410156-4.0913086-1.6152344c-1.1342773-1.1103516-1.7587891-2.6181641-1.7587891-4.2451172
		v-2.40625c-0.0327148-1.5400391,0.5410156-2.9931641,1.6157227-4.0908203
		c1.1103516-1.1342773,2.6181641-1.7587891,4.2451172-1.7587891h2.7924805V31.203125c0,0.2763672,0.2236328,0.5,0.5,0.5H12.0498047z
		 M10.3806763,18.1530151c-0.0686646-0.0354004-0.1432495-0.0602417-0.2258911-0.0602417H6.8623047
		c-0.1235352,0-0.2446289,0.0115356-0.3669434,0.0177002L16.6814575,7.9187012
		c0.0715942,0.1517334,0.1566162,0.2997437,0.2819214,0.4250488l1.6134644,1.6135254L10.3806763,18.1530151z M22.7094116,14.0899658
		l6.7310791,6.7312622l-0.6436157,2.9463501h-7.093689C21.7327881,20.281189,22.0750122,17.038147,22.7094116,14.0899658z
		 M39,29.2109375c0,2.2060547-1.7939453,4-4,4H18.5849609c-2.2055664,0-4-1.7939453-4-4v-0.4433594c0-2.2060547,1.7944336-4,4-4H35
		c2.2060547,0,4,1.7939453,4,4V29.2109375z"/>
</g>
<rect class="st0" width="40" height="40"/>
</svg>
