<?xml version="1.0" encoding="utf-8"?>
<!-- Generator: Adobe Illustrator 21.1.0, SVG Export Plug-In . SVG Version: 6.00 Build 0)  -->
<svg version="1.1" id="icon" xmlns="http://www.w3.org/2000/svg" xmlns:xlink="http://www.w3.org/1999/xlink" x="0px" y="0px"
	 viewBox="0 0 40 40" style="enable-background:new 0 0 40 40;" xml:space="preserve">
<style type="text/css">
	.st0{fill:none;stroke:none;}
</style>
<g id="New_icons_1_">
</g>
<g>
	<path d="M35.0625,18.9724121c0.0536499-0.0154419,0.098999-0.0439453,0.1425171-0.0741577
		C37.9251709,18.4187622,40,16.0443115,40,13.1887207c0-3.2001953-2.6035156-5.8037109-5.8037109-5.8037109H21.8691406
		c-1.6013184,0-2.9470215,1.0517578-3.4229736,2.4956055h-2.7731934c-0.4168701-0.6826172-1.1622314-1.1435547-2.019165-1.1435547
		h-1.2875977c-0.8624878,0-1.6113892,0.4673462-2.0266113,1.1572876L5.902832,10.9875488
		c-0.2231445,0.0546875-0.3803711,0.2553711-0.3803711,0.4853516v0.425293H1.0546875
		c-0.1630859,0-0.315918,0.0795898-0.4091797,0.2128906l-0.5546875,0.7905273c-0.1210938,0.1723633-0.1210938,0.4018555,0,0.5742188
		l0.5546875,0.7900391c0.09375,0.1333008,0.2460938,0.2128906,0.4091797,0.2128906h4.4677734v0.3217773
		c0,0.2260742,0.1518555,0.4243164,0.3701172,0.4829102l4.444397,1.1946411
		c0.4146118,0.692749,1.1647339,1.1622925,2.0292358,1.1622925h1.2875977c0.5122681,0,0.9839478-0.1670532,1.3720703-0.4441528
		v5.3904419h-0.644043c-0.2763672,0-0.5,0.2236328-0.5,0.5s0.2236328,0.5,0.5,0.5h0.644043v8.5283203
		c0,0.2763672,0.2236328,0.5,0.5,0.5h3.2236328c0.2763672,0,0.5-0.2236328,0.5-0.5v-8.5283203h0.644043
		c0.2763672,0,0.5-0.2236328,0.5-0.5s-0.2236328-0.5-0.5-0.5h-0.644043v-4.7025757
		c0.6546631,0.6835938,1.5765991,1.1078491,2.6196289,1.1078491h0.6617432
		c0.451355,0.3724365,1.3318481,1.2460938,1.4954834,2.1005859c0.21875,1.1455078-0.0839844,1.7490234-0.0839844,1.7490234
		c-0.0869141,0.1542969-0.0859375,0.34375,0.0039062,0.4970703s0.2539062,0.2480469,0.4316406,0.2480469h3.611084
		c0.1240845,0.8984985,0.2310181,1.7974243,0.3049316,2.4628906c0.1923828,1.3457031-0.2070312,2.6416016-1.1064453,3.6328125
		l-0.6240234,0.6230469c-0.0849609,0.0849609-0.1367188,0.1972656-0.1455078,0.3173828l-0.1044922,1.4560547
		c-0.0097656,0.1386719,0.0380859,0.2753906,0.1328125,0.3769531s0.2275391,0.1591797,0.3662109,0.1591797h9.359375
		c0.2763672,0,0.5-0.2236328,0.5-0.5v-1.4560547c0-0.0449219-0.0058594-0.0888672-0.0175781-0.1318359
		c-1.0371094-3.7910156-2.6835938-10.0439453-2.6855469-10.6826172C33.96875,19.4265137,34.7050781,19.0769043,35.0625,18.9724121z
		 M1.3144531,13.4787598l-0.2036133-0.2900391l0.2036133-0.2905273h4.2080078v0.5805664H1.3144531z M6.5224609,14.4172363
		v-0.4384766v-1.5805664V11.864502l3.4819946-0.8579102c-0.0015259,0.0346069-0.0103149,0.0670776-0.0103149,0.1020508v4.159668
		c0,0.0288696,0.0075073,0.0556641,0.0085449,0.0842896L6.5224609,14.4172363z M13.6538086,16.6403809h-1.2875977
		c-0.5753784,0-1.0565186-0.3373413-1.2631226-0.8289795c-0.0021362-0.0039062-0.0021973-0.008728-0.0043945-0.0125732
		c-0.0664673-0.1626587-0.1045532-0.3411255-0.1045532-0.5305176v-4.159668c0-0.769043,0.6025391-1.371582,1.3720703-1.371582
		h1.2875977c0.7695312,0,1.3720703,0.6025391,1.3720703,1.371582v4.159668
		C15.0258789,16.0378418,14.4233398,16.6403809,13.6538086,16.6403809z M18.2495117,31.6149902h-2.2236328v-8.0283203h2.2236328
		V31.6149902z M18.2495117,22.5866699h-2.2236328v-7.3183594v-4.159668v-0.2280273h2.2236328v0.1240234v4.3676758V22.5866699z
		 M19.2495117,15.3723145v-4.3676758c0-1.4443359,1.175293-2.6196289,2.6196289-2.6196289h12.3271484
		C36.8447266,8.3850098,39,10.5397949,39,13.1887207s-2.1552734,4.8037109-4.8037109,4.8037109H21.8691406
		C20.3759766,17.9924316,19.2495117,16.8659668,19.2495117,15.3723145z M25.0498047,22.5866699
		c0.0703125-0.4033203,0.0957031-0.9658203-0.0410156-1.6816406c-0.1408081-0.7354126-0.6051636-1.4083252-1.0512695-1.9130859
		h2.0270996c0.2556152,0.1123047,1.1917725,0.5926514,1.4899902,1.7119141
		c0.1265869,0.4650879,0.2520752,1.1422119,0.3682861,1.8828125H25.0498047z M35.671875,30.7263184v0.8886719h-8.3222656
		l0.0527344-0.734375l0.5087891-0.5087891c1.1201172-1.2324219,1.6083984-2.8183594,1.375-4.4482422
		c-0.1669922-1.4990234-0.4980469-4.2041016-0.8457031-5.4804688c-0.1655884-0.6204834-0.4725952-1.090271-0.8031006-1.4511719
		h5.6193848c-0.1708374,0.2351685-0.2879639,0.5152588-0.2879639,0.8525391
		C32.96875,20.7868652,35.1796875,28.9245605,35.671875,30.7263184z"/>
	<path d="M33.6152344,9.9162598h-4.0380859c-0.2763672,0-0.5,0.2236328-0.5,0.5s0.2236328,0.5,0.5,0.5h4.0380859
		c0.2763672,0,0.5-0.2236328,0.5-0.5S33.8916016,9.9162598,33.6152344,9.9162598z"/>
	<path d="M33.6152344,12.7595215h-4.0380859c-0.2763672,0-0.5,0.2236328-0.5,0.5s0.2236328,0.5,0.5,0.5h4.0380859
		c0.2763672,0,0.5-0.2236328,0.5-0.5S33.8916016,12.7595215,33.6152344,12.7595215z"/>
	<path d="M33.6152344,15.4606934h-4.0380859c-0.2763672,0-0.5,0.2236328-0.5,0.5s0.2236328,0.5,0.5,0.5h4.0380859
		c0.2763672,0,0.5-0.2236328,0.5-0.5S33.8916016,15.4606934,33.6152344,15.4606934z"/>
</g>
<rect y="0" class="st0" width="40" height="40"/>
</svg>
