<?xml version="1.0" encoding="utf-8"?>
<!-- Generator: Adobe Illustrator 21.1.0, SVG Export Plug-In . SVG Version: 6.00 Build 0)  -->
<svg version="1.1" id="icon" xmlns="http://www.w3.org/2000/svg" xmlns:xlink="http://www.w3.org/1999/xlink" x="0px" y="0px"
	 viewBox="0 0 40 40" style="enable-background:new 0 0 40 40;" xml:space="preserve">
<style type="text/css">
	.st0{fill:none;stroke:none;}
</style>
<g id="New_icons_1_">
</g>
<path d="M39.1611328,31.6875l-22.774353-21.5166626l0.2753296-0.2753296c0.1953125-0.1953125,0.1953125-0.5117188,0-0.7070312
	l-0.4235229-0.4235229c2.6380005-3.4699707,7.5403442-4.0839844,7.5905151-4.0901489
	c0.1904297-0.0219727,0.3525391-0.1508789,0.4150391-0.3320312c0.0634766-0.1811523,0.0175781-0.3823242-0.1181641-0.5180664
	c-1.2958984-1.2958984-2.8378906-1.9379883-4.512207-1.9438477c-3.1787109,0.0116577-6.0458984,2.328064-7.0357666,3.2230835
	L12.1894531,4.715332c-0.1875-0.1875-0.5195312-0.1875-0.7070312,0L6.5048828,9.6928711
	c-0.1741333,0.1741333-0.184021,0.4401855-0.0477295,0.6351929c-0.1653442,0.4213257-0.6878662,1.3149414-2.0622559,1.5045776
	c-0.1942749-0.1296387-0.454834-0.1179199-0.6263428,0.0535889l-3.6220703,3.6220703
	c-0.1953125,0.1953125-0.1953125,0.5117188,0,0.7070312l5.0161133,5.0161133
	c0.09375,0.09375,0.2207031,0.1464844,0.3535156,0.1464844s0.2597656-0.0527344,0.3535156-0.1464844l3.6220703-3.6225586
	c0.1715698-0.1715698,0.1832886-0.432312,0.0534058-0.6265869c0.1900024-1.3778076,1.0823364-1.8971558,1.5042114-2.0615845
	c0.0834961,0.0585938,0.1786499,0.0988159,0.2822266,0.0988159c0.1328125,0,0.2597656-0.0527344,0.3535156-0.1464844
	l0.3666382-0.3666382L33.578125,37.2900391c0.5263672,0.5273438,1.2861328,0.8291016,2.0830078,0.8291016
	c0.0009766,0,0.0019531,0,0.0029297,0c0.7978516,0,1.5585938-0.3037109,2.0869141-0.8320312l1.4169922-1.4169922
	C40.2802734,34.7578125,40.28125,32.8076172,39.1611328,31.6875z M19.6171875,2.8808594
	c0.0068359,0,0.0131836-0.0004883,0.0200195-0.0004883c1.0942383,0,2.1049805,0.3334961,3.0131836,0.9921875
	c-1.6880493,0.3781738-4.9767456,1.4567871-7.1151123,4.1889648l-2.2477417-2.2479858
	C14.2232056,4.980835,16.8458252,2.8910522,19.6171875,2.8808594z M11.8359375,5.7758789l3.765625,3.7661133L11.331543,13.8125
	l-3.7661133-3.7661133L11.8359375,5.7758789z M5.5161133,20.1708984l-4.309082-4.309082l2.9150391-2.9150391l4.309082,4.3085938
	L5.5161133,20.1708984z M8.7171021,16.1273193l-3.4667358-3.4664307c0.989502-0.3259277,1.6098022-0.9697876,1.9474487-1.5680542
	l3.0869141,3.0869141C9.6866455,14.5174561,9.0430298,15.1378174,8.7171021,16.1273193z M38.4609375,35.1630859
	l-1.4169922,1.4169922c-0.3427734,0.3427734-0.8457031,0.5390625-1.3808594,0.5390625c0,0-0.0009766,0-0.0019531,0
	c-0.5341797,0-1.0351562-0.1953125-1.3662109-0.5263672L12.758728,13.7992554l2.9209595-2.9212646l22.7841797,21.5263062
	C38.8046875,32.7451172,39,33.2480469,39,33.7822266C39,34.3173828,38.8027344,34.8212891,38.4609375,35.1630859z"/>
<rect y="0" class="st0" width="40" height="40"/>
</svg>
