<?xml version="1.0" encoding="utf-8"?>
<!-- Generator: Adobe Illustrator 21.1.0, SVG Export Plug-In . SVG Version: 6.00 Build 0)  -->
<svg version="1.1" id="icon" xmlns="http://www.w3.org/2000/svg" xmlns:xlink="http://www.w3.org/1999/xlink" x="0px" y="0px"
	 viewBox="0 0 40 40" style="enable-background:new 0 0 40 40;" xml:space="preserve">
<style type="text/css">
	.st0{fill:none;stroke:none;}
</style>
<g id="New_icons_1_">
</g>
<g>
	<path d="M39.2470703,26.8076172l-8.0771484-6.3242188c-0.0007324-0.0006104-0.0016479-0.0009155-0.0023804-0.0015259
		L5.1430664,0.1064453c-0.1044922-0.081543-0.2392578-0.1235352-0.3686523-0.1025391
		C4.6425781,0.0195312,4.5229492,0.0874023,4.440918,0.1918945L0.105957,5.7338867
		c-0.1293945,0.1660156-0.1416016,0.3955078-0.0292969,0.5742188c0.1118164,0.1777344,0.3212891,0.2641602,0.5297852,0.2226562
		l2.1425781-0.4672852L2.0727539,7.9614258C2.0126953,8.1303711,2.0473633,8.3178711,2.1635742,8.4541016
		c0.1166992,0.1357422,0.2958984,0.1972656,0.4716797,0.1669922l2.0664062-0.3847656l-0.7514648,2.0224609
		c-0.0625,0.1689453-0.0297852,0.3583984,0.0859375,0.4960938c0.1162109,0.1381836,0.2998047,0.2026367,0.4741211,0.1699219
		l2.0795898-0.387207l-0.6865234,1.9272461c-0.0600586,0.168457-0.0253906,0.3564453,0.0908203,0.4926758
		c0.1157227,0.1357422,0.2963867,0.1977539,0.4716797,0.1669922l2.0664062-0.3842773L7.7802734,14.762207
		c-0.0625,0.1689453-0.0297852,0.3583984,0.0859375,0.4960938c0.1162109,0.1381836,0.2998047,0.2026367,0.4741211,0.1699219
		l2.1201172-0.3945312l-0.6293945,2.0361328c-0.0517578,0.1674805-0.012207,0.3496094,0.1040039,0.4804688
		c0.1162109,0.1303711,0.2939453,0.1889648,0.4648438,0.1591797l2.0664062-0.3842773l-0.7519531,2.0224609
		c-0.0625,0.1689453-0.0297852,0.3583984,0.0859375,0.4960938c0.1162109,0.1386719,0.300293,0.2060547,0.4741211,0.1699219
		l2.0800781-0.387207l-0.6865234,1.9272461c-0.0600586,0.1689453-0.0253906,0.3564453,0.0908203,0.4921875
		s0.2954102,0.2021484,0.4716797,0.1669922l2.0664062-0.3837891l-0.7519531,2.0224609
		c-0.0625,0.1679688-0.0297852,0.3583984,0.0859375,0.4960938c0.1162109,0.1367188,0.2993164,0.2050781,0.4741211,0.1689453
		l2.0800781-0.3867188l-0.6865234,1.9277344c-0.059082,0.1660156-0.0263672,0.3505859,0.0859375,0.4863281
		s0.2861328,0.2041016,0.4619141,0.1757812l2.0229492-0.3134766l-0.6962891,1.9550781
		c-0.0600586,0.1689453-0.0253906,0.3564453,0.0908203,0.4921875c0.1157227,0.1357422,0.2958984,0.1992188,0.4716797,0.1669922
		l2.0791016-0.3867188l-0.6855469,1.9277344c-0.0595703,0.1660156-0.0263672,0.3505859,0.0859375,0.4863281
		c0.0957031,0.1162109,0.2373047,0.1816406,0.3847656,0.1816406c0.0253906,0,0.0507812-0.0019531,0.0761719-0.0058594
		l2.0562134-0.3186646l-0.0864868,1.9807739c-0.0048828,0.1308594,0.0410156,0.2587891,0.1289062,0.3564453l5.5537109,6.1582031
		c0.0068359,0.0078125,0.0136719,0.0146484,0.0205078,0.0224609C29.9296875,39.7958984,30.4414062,40,30.9921875,40
		c0.0146484,0,0.0302734,0,0.0449219,0c0.6162109-0.0126953,1.1992188-0.2792969,1.6425781-0.7509766
		c0.0400391-0.0429688,0.0722656-0.0927734,0.0957031-0.1464844l3.4423828-8.0722656
		c0.1132812-0.1240234,0.2675781-0.2177734,0.4511719-0.2792969l1.8183594-0.4902344
		c0.7412109-0.1748047,1.3027344-0.7470703,1.4658203-1.4931641C40.1162109,28.0273438,39.8447266,27.2763672,39.2470703,26.8076172
		z M22.5517578,30.1064453l0.6962891-1.9550781c0.0605469-0.1689453,0.0253906-0.3564453-0.0908203-0.4921875
		s-0.2910156-0.203125-0.4716797-0.1669922l-2.0791016,0.3867188l0.6865234-1.9267578
		c0.0595703-0.1660156,0.0263672-0.3505859-0.0849609-0.4863281c-0.1132812-0.1357422-0.2900391-0.203125-0.4619141-0.1757812
		l-2.0239258,0.3134766l0.6962891-1.9560547c0.0600586-0.1689453,0.0253906-0.3564453-0.0908203-0.4921875
		s-0.2973633-0.2011719-0.4716797-0.1669922l-2.0664062,0.3837891l0.7519531-2.0224609
		c0.0625-0.1679688,0.0297852-0.3583984-0.0859375-0.4960938c-0.1157227-0.1367188-0.2973633-0.2011719-0.4741211-0.1689453
		l-2.0800781,0.3867188l0.6865234-1.9277344c0.0600586-0.168457,0.0253906-0.355957-0.0908203-0.4921875
		c-0.1162109-0.1357422-0.2949219-0.1977539-0.4716797-0.1669922l-2.0664062,0.3847656l0.7519531-2.0224609
		c0.0625-0.1689453,0.0297852-0.3583984-0.0859375-0.4960938s-0.2963867-0.1987305-0.4741211-0.1699219l-2.1201172,0.394043
		l0.6293945-2.0361328c0.0517578-0.1669922,0.012207-0.3491211-0.1040039-0.4799805s-0.293457-0.1889648-0.4648438-0.1591797
		l-2.0664062,0.3842773l0.7519531-2.0219727c0.0625-0.1689453,0.0297852-0.3583984-0.0859375-0.4960938
		c-0.1162109-0.1376953-0.296875-0.199707-0.4741211-0.1699219l-2.0800781,0.3867188l0.6870117-1.9272461
		C7.8837891,9.8867188,7.8491211,9.6987305,7.7329102,9.5625C7.6171875,9.4267578,7.4355469,9.3637695,7.2612305,9.3955078
		L5.1948242,9.7802734l0.7514648-2.0224609c0.0625-0.1689453,0.0297852-0.3583984-0.0864258-0.4960938
		C5.7446289,7.1240234,5.5644531,7.0625,5.3862305,7.0917969l-2.0800781,0.387207l0.6870117-1.9277344
		c0.0605469-0.1713867,0.0239258-0.3618164-0.0957031-0.4980469C3.7773438,4.9165039,3.5917969,4.8569336,3.4155273,4.8945312
		L1.7480469,5.2583008l3.1723633-4.0561523l24.2608032,18.994873c-0.3270264,0.1317139-0.6203613,0.3427734-0.8462524,0.6330566
		l-4.0976562,5.2373047c-0.0644531,0.0820312-0.1015625,0.1816406-0.1064453,0.2861328l-0.1542358,3.5325317L22.5517578,30.1064453z
		 M38.9765625,28.5537109c-0.0810547,0.3720703-0.3505859,0.6464844-0.734375,0.7382812l-1.8603516,0.5019531
		c-0.4189453,0.1386719-0.7519531,0.3623047-0.9882812,0.6640625c-0.0273438,0.0351562-0.0488281,0.0722656-0.0664062,0.1123047
		l-3.4345703,8.0517578C31.6445312,38.8603516,31.3359375,38.9931641,31.0166016,39
		c-0.2724609-0.0097656-0.5595703-0.09375-0.7568359-0.2822266l-5.4052734-5.9931641l0.2685547-6.1679688l3.9990234-5.1113281
		c0.1728516-0.2207031,0.4130859-0.359375,0.6787109-0.3925781c0.2651978-0.0272827,0.5302734,0.0459595,0.7507324,0.2171631
		l0.5246582,0.4107666c0.0003662,0.0002441,0.0007324,0.0003052,0.0010986,0.0005493l7.5526123,5.9135132
		C38.9277344,27.828125,39.0576172,28.1865234,38.9765625,28.5537109z"/>
	<path d="M34.4375,25.6962891l-1.4521484-1.1367188c-0.5185547-0.40625-1.2470703-0.1132812-1.5351562,0.0888672
		c-0.2851562,0.1416016-1.7216797,1.2578125-2.6201172,2.8505859c-1.1445312,1.9882812-1.59375,3.6240234-1.3691406,5.015625
		c0.1582031,0.8144531,0.7685547,1.4375,0.8378906,1.5058594c0.0136719,0.0136719,0.0283203,0.0263672,0.0429688,0.0380859
		c0.2236328,0.1748047,0.4912109,0.2666016,0.7626953,0.2666016c0.0849609,0,0.1708984-0.0087891,0.2558594-0.0273438
		c0.3427734-0.0751953,0.6328125-0.3017578,0.8017578-0.6318359c0.0126953-0.0263672,1.2568359-2.5966797,1.7763672-3.3935547
		c0.8759766-1.2529297,1.6210938-1.9707031,2.6044922-2.7802734C34.7861328,27.2988281,34.9248047,27,34.9238281,26.671875
		C34.9228516,26.2988281,34.7402344,25.9335938,34.4375,25.6962891z M33.9130859,26.7148438
		c-1.0302734,0.8486328-1.8564453,1.6435547-2.8037109,2.9980469c-0.5625,0.8642578-1.7949219,3.4101562-1.8427734,3.5068359
		c-0.0283203,0.0566406-0.0683594,0.0898438-0.1210938,0.1015625c-0.0517578,0.0126953-0.1132812-0.0019531-0.1650391-0.0341797
		c-0.09375-0.1015625-0.4492188-0.5078125-0.5351562-0.9472656c-0.1835938-1.1396484,0.2255859-2.5605469,1.2539062-4.3457031
		c0.7949219-1.4082031,2.0537109-2.3681641,2.2539062-2.484375c0.1650391-0.1113281,0.3925781-0.1591797,0.4150391-0.1630859
		l1.4521484,1.1367188C33.9257812,26.5654297,33.9335938,26.6855469,33.9130859,26.7148438z"/>
</g>
<rect y="0" class="st0" width="40" height="40"/>
</svg>
