<?xml version="1.0" encoding="utf-8"?>
<!-- Generator: Adobe Illustrator 21.1.0, SVG Export Plug-In . SVG Version: 6.00 Build 0)  -->
<svg version="1.1" id="icon" xmlns="http://www.w3.org/2000/svg" xmlns:xlink="http://www.w3.org/1999/xlink" x="0px" y="0px"
	 viewBox="0 0 40 40" style="enable-background:new 0 0 40 40;" xml:space="preserve">
<style type="text/css">
	.st0{fill:none;stroke:none;}
</style>
<g id="New_icons_1_">
</g>
<rect class="st0" width="40" height="40"/>
<path d="M39.5,13.3276367c0.2763672,0,0.5-0.2236328,0.5-0.5V9.8017578c0-0.2763672-0.2236328-0.5-0.5-0.5h-2.9746094V8.6811523
	c0-1.5117188-1.2294922-2.7416992-2.7412109-2.7416992h-0.1113281c-1.5117188,0-2.7421875,1.2299805-2.7421875,2.7416992v0.6206055
	h-1.3535156V8.6811523c0-1.5117188-1.2294922-2.7416992-2.7412109-2.7416992h-0.1113281
	c-1.5117188,0-2.7421875,1.2299805-2.7421875,2.7416992v0.6206055h-1.1289062V8.6811523
	c0-1.5117188-1.2294922-2.7416992-2.7412109-2.7416992H20c-1.5117188,0-2.7412109,1.2299805-2.7412109,2.7416992v0.6206055
	h-1.2416992V8.6811523c0-1.5117188-1.2294922-2.7416992-2.7412109-2.7416992h-0.1123047
	c-1.5117188,0-2.7412109,1.2299805-2.7412109,2.7416992v0.6206055H9.1811523V8.6811523
	c0-1.5117188-1.2299805-2.7416992-2.7416992-2.7416992H6.3276367c-1.5117188,0-2.7412109,1.2299805-2.7412109,2.7416992v0.6206055
	H0.5c-0.2763672,0-0.5,0.2236328-0.5,0.5v3.0258789c0,0.2763672,0.2236328,0.5,0.5,0.5h3.0864258v13.3452148H0.5
	c-0.2763672,0-0.5,0.2236328-0.5,0.5v3.0253906c0,0.2763672,0.2236328,0.5,0.5,0.5h3.0864258v0.6210938
	c0,1.5117188,1.2294922,2.7412109,2.7412109,2.7412109h0.1118164c1.5117188,0,2.7416992-1.2294922,2.7416992-2.7412109v-0.6210938
	h1.2412109v0.6210938c0,1.5117188,1.2294922,2.7412109,2.7412109,2.7412109h0.1123047
	c1.5117188,0,2.7412109-1.2294922,2.7412109-2.7412109v-0.6210938h1.2416992v0.6210938
	c0,1.5117188,1.2294922,2.7412109,2.7412109,2.7412109h0.1123047c1.5117188,0,2.7412109-1.2294922,2.7412109-2.7412109v-0.6210938
	h1.1289062v0.6210938c0,1.5117188,1.2304688,2.7412109,2.7421875,2.7412109h0.2236328
	c1.4746094,0,2.6289062-1.2041016,2.6289062-2.7412109v-0.6210938h1.3535156v0.6210938
	c0,1.5117188,1.2304688,2.7412109,2.7421875,2.7412109h0.1113281c1.5117188,0,2.7412109-1.2294922,2.7412109-2.7412109v-0.6210938
	H39.5c0.2763672,0,0.5-0.2236328,0.5-0.5v-3.0253906c0-0.2763672-0.2236328-0.5-0.5-0.5h-2.9746094V13.3276367H39.5z M39,10.3017578
	v2.0258789h-2.4746094v-2.0258789H39z M1,12.3276367v-2.0258789h2.5864258v2.0258789H1z M1,29.6982422v-2.0253906h2.5864258
	v2.0253906H1z M8.1811523,31.3193359c0,0.9599609-0.78125,1.7412109-1.7416992,1.7412109H6.3276367
	c-0.9599609,0-1.7412109-0.78125-1.7412109-1.7412109V8.6811523c0-0.9604492,0.78125-1.7416992,1.7412109-1.7416992h0.1118164
	c0.9604492,0,1.7416992,0.78125,1.7416992,1.7416992V31.3193359z M9.1811523,29.6982422V10.3017578h1.2412109v19.3964844H9.1811523z
	 M15.0170898,31.3193359c0,0.9599609-0.78125,1.7412109-1.7412109,1.7412109h-0.1123047
	c-0.9599609,0-1.7412109-0.78125-1.7412109-1.7412109V8.6811523c0-0.9604492,0.78125-1.7416992,1.7412109-1.7416992h0.1123047
	c0.9599609,0,1.7412109,0.78125,1.7412109,1.7416992V31.3193359z M16.0170898,29.6982422V10.3017578h1.2416992v19.3964844
	H16.0170898z M21.8535156,31.3193359c0,0.9599609-0.78125,1.7412109-1.7412109,1.7412109H20
	c-0.9599609,0-1.7412109-0.78125-1.7412109-1.7412109V8.6811523c0-0.9604492,0.78125-1.7416992,1.7412109-1.7416992h0.1123047
	c0.9599609,0,1.7412109,0.78125,1.7412109,1.7416992V31.3193359z M22.8535156,29.6982422V10.3017578h1.1289062v19.3964844
	H22.8535156z M28.5771484,31.3193359c0,0.9921875-0.7001953,1.7412109-1.6289062,1.7412109h-0.2236328
	c-0.9609375,0-1.7421875-0.78125-1.7421875-1.7412109V8.6811523c0-0.9604492,0.78125-1.7416992,1.7421875-1.7416992h0.1113281
	c0.9599609,0,1.7412109,0.78125,1.7412109,1.7416992V31.3193359z M29.5771484,29.6982422V10.3017578h1.3535156v19.3964844
	H29.5771484z M35.5253906,31.3193359c0,0.9599609-0.78125,1.7412109-1.7412109,1.7412109h-0.1113281
	c-0.9609375,0-1.7421875-0.78125-1.7421875-1.7412109V8.6811523c0-0.9604492,0.78125-1.7416992,1.7421875-1.7416992h0.1113281
	c0.9599609,0,1.7412109,0.78125,1.7412109,1.7416992V31.3193359z M39,27.6728516v2.0253906h-2.4746094v-2.0253906H39z"/>
</svg>
