<?xml version="1.0" encoding="utf-8"?>
<!-- Generator: Adobe Illustrator 21.1.0, SVG Export Plug-In . SVG Version: 6.00 Build 0)  -->
<svg version="1.1" id="icon" xmlns="http://www.w3.org/2000/svg" xmlns:xlink="http://www.w3.org/1999/xlink" x="0px" y="0px"
	 viewBox="0 0 40 40" style="enable-background:new 0 0 40 40;" xml:space="preserve">
<style type="text/css">
	.st0{fill:none;stroke:none;}
</style>
<g id="New_icons_1_">
</g>
<g>
	<path d="M29.8085938,0H10.1914062C5.7602539,0,2.1552734,3.6049805,2.1552734,8.0361328v14.5380859
		c0,0.013916,0.0068359,0.0255737,0.0079346,0.0391846c0.0010986,0.0142212-0.0039062,0.0275269-0.0015869,0.0418701
		l1.1962891,7.2958984c0.0400391,0.2412109,0.2485352,0.4189453,0.4936523,0.4189453h3.2080078v1.5458984H2.6552734
		c-0.2763672,0-0.5,0.2236328-0.5,0.5s0.2236328,0.5,0.5,0.5h4.4042969V39.5c0,0.1806641,0.0976562,0.3476562,0.2548828,0.4355469
		C7.390625,39.9785156,7.4750977,40,7.5595703,40c0.090332,0,0.1801758-0.0244141,0.2597656-0.0732422l2.7514648-1.6748047
		C10.7202148,38.1611328,10.8110352,38,10.8110352,37.8251953v-4.9091797h10.8041992c0.2763672,0,0.5-0.2236328,0.5-0.5
		s-0.2236328-0.5-0.5-0.5H10.8110352v-1.5458984h8.949707c0.2451172,0,0.4541016-0.1777344,0.4931641-0.4189453l1.1276245-6.8769531
		h15.9631958c0.2763672,0,0.5-0.2236328,0.5-0.5V8.0361328C37.8447266,3.6049805,34.2392578,0,29.8085938,0z M9.8110352,37.5439453
		l-1.7514648,1.0664062v-5.6943359h1.7514648V37.5439453z M9.8110352,31.9160156H8.0595703v-1.5458984h1.7514648V31.9160156z
		 M19.3359375,29.3701172h-9.0249023H7.5595703H4.2763672l-1.0321655-6.2958984h17.1243896L19.3359375,29.3701172z
		 M36.8447266,22.0742188H3.1552734v-4.9257812h5.7202148c0.2763672,0,0.5-0.2236328,0.5-0.5s-0.2236328-0.5-0.5-0.5H3.1552734
		v-1.512207h5.7202148c0.2763672,0,0.5-0.2236328,0.5-0.5s-0.2236328-0.5-0.5-0.5H3.1552734v-1.5117188h5.7202148
		c0.2763672,0,0.5-0.2236328,0.5-0.5s-0.2236328-0.5-0.5-0.5H3.1552734V8.0361328C3.1552734,4.15625,6.3115234,1,10.1914062,1
		h19.6171875c3.8798828,0,7.0361328,3.15625,7.0361328,7.0361328V22.0742188z"/>
	<path d="M26.8183594,6.5791016H16.4116211c-2.1782227,0-4.0888672,1.9106445-4.0888672,4.0883789v1.7944336
		c0,2.2543945,1.8344727,4.0883789,4.0888672,4.0883789h10.4067383c2.2929688,0,4.0888672-1.7958984,4.0888672-4.0883789v-1.7944336
		C30.9072266,8.4130859,29.0732422,6.5791016,26.8183594,6.5791016z M16.4116211,7.5791016h2.8491211v2.5883789h-5.8840942
		C13.6322021,8.7416382,14.9360962,7.5791016,16.4116211,7.5791016z M29.9072266,12.4619141
		c0,1.7607422-1.328125,3.0883789-3.0888672,3.0883789H16.4116211c-1.703125,0-3.0888672-1.3852539-3.0888672-3.0883789v-1.2944336
		h6.4379883c0.2763672,0,0.5-0.2236328,0.5-0.5V7.5791016h6.5576172c1.703125,0,3.0888672,1.3852539,3.0888672,3.0883789V12.4619141
		z"/>
</g>
<rect y="0" class="st0" width="40" height="40"/>
</svg>
