<?xml version="1.0" encoding="utf-8"?>
<!-- Generator: Adobe Illustrator 21.1.0, SVG Export Plug-In . SVG Version: 6.00 Build 0)  -->
<svg version="1.1" id="icon" xmlns="http://www.w3.org/2000/svg" xmlns:xlink="http://www.w3.org/1999/xlink" x="0px" y="0px"
	 viewBox="0 0 40 40" style="enable-background:new 0 0 40 40;" xml:space="preserve">
<style type="text/css">
	.st0{fill:none;stroke:none;}
</style>
<g id="New_icons_1_">
</g>
<path d="M38.9394531,32.9560547L20.1716309,14.1882324l0.6916504-0.6916504
	c0.09375-0.09375,0.1464844-0.2207031,0.1464844-0.3535156v-1.8828125l4.6591797-4.6601562
	c0.1953125-0.1953125,0.1953125-0.5117188,0-0.7070312l-5.746582-5.746582c-0.1875-0.1875-0.5195312-0.1875-0.7070312,0
	l-4.659668,4.6601562h-1.8828125c-0.1328125,0-0.2597656,0.0527344-0.3535156,0.1464844l-7.3139648,7.3139648
	c-0.09375,0.09375-0.1464844,0.2207031-0.1464844,0.3535156v1.8828125l-4.6601562,4.659668
	c-0.09375,0.09375-0.1464844,0.2207031-0.1464844,0.3535156s0.0527344,0.2597656,0.1464844,0.3535156l5.746582,5.7470703
	c0.09375,0.09375,0.2207031,0.1464844,0.3535156,0.1464844s0.2597656-0.0527344,0.3535156-0.1464844L11.3125,20.9570312h1.8828125
	c0.1328125,0,0.2597656-0.0527344,0.3535156-0.1464844l0.5869751-0.586853l18.7675171,18.7675171
	c0.6738281,0.6738281,1.5585938,1.0107422,2.4433594,1.0107422s1.7695312-0.3369141,2.4433594-1.0107422l1.1494141-1.1494141
	c0.6503906-0.6503906,1.0087891-1.5175781,1.0087891-2.4433594C39.9482422,34.4736328,39.5898438,33.6054688,38.9394531,32.9560547z
	 M12.9882812,19.9570312h-1.8828125c-0.1328125,0-0.2597656,0.0527344-0.3535156,0.1464844l-4.453125,4.453125l-5.0395508-5.0400391
	l4.453125-4.4526367c0.09375-0.09375,0.1464844-0.2207031,0.1464844-0.3535156v-1.8828125l7.0209961-7.0209961h1.8828125
	c0.1328125,0,0.2597656-0.0527344,0.3535156-0.1464844l4.4526367-4.453125l5.0395508,5.0395508L20.15625,10.699707
	c-0.09375,0.09375-0.1464844,0.2207031-0.1464844,0.3535156v1.8828125l-0.897644,0.897583
	c-0.0003662,0.0003662-0.0009155,0.0004883-0.0012817,0.0008545s-0.0004883,0.0009155-0.0008545,0.0012817l-5.3275757,5.3272095
	c-0.000061,0.000061-0.0001221,0.000061-0.0001831,0.0001221s-0.000061,0.0001221-0.0001221,0.0001831L12.9882812,19.9570312z
	 M38.2324219,37.1347656l-1.1494141,1.1494141c-0.9570312,0.9570312-2.515625,0.9570312-3.4726562,0L14.8428345,19.5166626
	l2.3632202-2.362854l2.2585449-2.2585449l18.7678223,18.7678223c0.4619141,0.4609375,0.7158203,1.0771484,0.7158203,1.7353516
	S38.6943359,36.6728516,38.2324219,37.1347656z"/>
<rect y="0" class="st0" width="40" height="40"/>
</svg>
