<?xml version="1.0" encoding="utf-8"?>
<!-- Generator: Adobe Illustrator 21.1.0, SVG Export Plug-In . SVG Version: 6.00 Build 0)  -->
<svg version="1.1" id="icon" xmlns="http://www.w3.org/2000/svg" xmlns:xlink="http://www.w3.org/1999/xlink" x="0px" y="0px"
	 viewBox="0 0 40 40" style="enable-background:new 0 0 40 40;" xml:space="preserve">
<style type="text/css">
	.st0{fill:none;stroke:none;}
</style>
<g id="New_icons_1_">
</g>
<g>
	<path d="M28.0273438,35.5888672c-0.0234375-0.0800781-0.0673828-0.1533203-0.1259766-0.2119141L10.0493164,17.5249023
		l-0.5134277-3.3474121l1.104248-1.104248c0.1953125-0.1953125,0.1953125-0.5117188,0-0.7070312L9.3173828,11.043457
		c-0.1875-0.1875-0.5195312-0.1875-0.7070312,0l-8.4638672,8.4643555C0.0527344,19.6015625,0,19.7285156,0,19.8613281
		s0.0527344,0.2597656,0.1464844,0.3535156l1.3227539,1.3222656c0.0976562,0.0976562,0.2255859,0.1464844,0.3535156,0.1464844
		s0.2558594-0.0488281,0.3535156-0.1464844l1.104126-1.104126l3.3475342,0.5142822l17.8515625,17.8515625
		c0.0625,0.0625,0.140625,0.1074219,0.2255859,0.1298828l3.8164062,1.0078125
		c0.0429688,0.0107422,0.0849609,0.0166016,0.1279297,0.0166016c0.1337891,0,0.2636719-0.0537109,0.3583984-0.1513672
		c0.1259766-0.1298828,0.171875-0.3173828,0.1210938-0.4902344L28.0273438,35.5888672z M1.8227539,20.4765625l-0.6157227-0.6152344
		l7.7568359-7.7573242l0.6157227,0.6157227L1.8227539,20.4765625z M25.0908203,37.9960938L7.2192383,20.1240234
		c-0.0751953-0.0751953-0.1723633-0.1245117-0.277832-0.140625l-2.7840576-0.4273682l4.5015259-4.5015259l0.427063,2.7838745
		c0.0161133,0.1054688,0.0654297,0.2026367,0.140625,0.277832l17.8779297,17.8779297l0.8134766,2.7490234L25.0908203,37.9960938z"/>
	<path d="M39.9306641,28.3476562l-3.7861328-6.40625c-0.0214844-0.0361328-0.0478516-0.0693359-0.0771484-0.0986328
		l-2.1600952-2.1601562l0.477478-1.2910156c0.0957031-0.2587891-0.0361328-0.5463867-0.2949219-0.6420898
		c-0.2607422-0.0957031-0.546875,0.0361328-0.6425781,0.2954102l-0.3179932,0.8596802l-1.8822021-1.8823242l0.4921875-1.2654419
		c0.1005859-0.2573242-0.0273438-0.546875-0.2841797-0.6469727c-0.2558594-0.1025391-0.546875,0.0268555-0.6474609,0.284668
		L30.4748535,16.25l-1.9511719-1.9511719l0.4772949-1.2905273c0.0957031-0.2587891-0.0361328-0.5463867-0.2949219-0.6420898
		c-0.2597656-0.097168-0.546875,0.0366211-0.6425781,0.2954102l-0.317749,0.8591919l-1.864624-1.864624l0.4772949-1.2904663
		c0.0957031-0.2587891-0.0361328-0.5463867-0.2949219-0.6420898c-0.2607422-0.0976562-0.546875,0.0366211-0.6425781,0.2954102
		l-0.317749,0.8591309l-1.8821411-1.8822021l0.4918823-1.2650146c0.1005859-0.2573242-0.0273438-0.546875-0.2841797-0.6469727
		c-0.2558594-0.1005859-0.546875,0.0268555-0.6474609,0.284668l-0.3324585,0.8550415l-0.6353149-0.6353149l-1.3901978-4.2982178
		l1.0669556-1.0670166c0.1953125-0.1953125,0.1953125-0.5117188,0-0.7070312l-1.3222656-1.3227539
		c-0.09375-0.09375-0.2207031-0.1464844-0.3535156-0.1464844s-0.2597656,0.0527344-0.3535156,0.1464844l-8.4638672,8.4638672
		c-0.1953125,0.1953125-0.1953125,0.5117188,0,0.7070312l1.3227539,1.3227539
		c0.09375,0.09375,0.2207031,0.1464844,0.3535156,0.1464844s0.2597656-0.0527344,0.3535156-0.1464844l1.0669556-1.0670166
		l4.2982788,1.3902588l2.140686,2.140564l-0.4917603,1.2647095c-0.1000977,0.2573242,0.0273438,0.546875,0.2841797,0.6469727
		c0.0595703,0.0234375,0.1210938,0.0341797,0.1816406,0.0341797c0.2001953,0,0.3886719-0.1210938,0.4658203-0.3188477
		l0.3323975-0.8547974l1.9505615,1.9504395l-0.4772949,1.2905884c-0.0957031,0.2587891,0.0361328,0.5463867,0.2949219,0.6420898
		c0.0576172,0.0214844,0.1162109,0.03125,0.1738281,0.03125c0.203125,0,0.3945312-0.1245117,0.46875-0.3266602l0.3178101-0.859314
		l1.864624,1.864502l-0.477356,1.2907104c-0.0957031,0.2587891,0.0361328,0.546875,0.2949219,0.6425781
		c0.0576172,0.0205078,0.1162109,0.03125,0.1738281,0.03125c0.203125,0,0.3945312-0.125,0.46875-0.3271484l0.3178711-0.859436
		l1.8823242,1.8822021l-0.4921875,1.2653198c-0.1005859,0.2578125,0.0273438,0.5478516,0.2841797,0.6474609
		c0.0595703,0.0234375,0.1210938,0.0341797,0.1816406,0.0341797c0.2001953,0,0.3886719-0.1210938,0.4658203-0.3183594
		l0.3330078-0.8562012l1.9508667,1.9506836l-0.4772339,1.2902832c-0.0957031,0.2597656,0.0361328,0.546875,0.2949219,0.6425781
		c0.0576172,0.0214844,0.1162109,0.03125,0.1738281,0.03125c0.203125,0,0.3945312-0.125,0.46875-0.3261719l0.3179321-0.8597412
		l0.5863647,0.5863037c0.03125,0.0322266,0.0673828,0.0585938,0.1064453,0.0810547l6.5,3.6923828
		c0.0771484,0.0439453,0.1621094,0.0654297,0.2470703,0.0654297c0.1308594,0,0.2597656-0.0517578,0.3564453-0.1494141
		C40.015625,28.7910156,40.0458984,28.5429688,39.9306641,28.3476562z M12.6733398,9.6264648l-0.6157227-0.6157227
		l7.7568359-7.7568359l0.6152344,0.6157227L12.6733398,9.6264648z M19.0141602,10.2182617
		c-0.0561523-0.0561523-0.1245117-0.0976562-0.199707-0.1220703l-3.9268188-1.2700806l4.7417603-4.7420044l1.2700195,3.9266357
		c0.0244141,0.0751953,0.0664062,0.1435547,0.1220703,0.199707l1.0313721,1.0313721l-1.1241455,2.8908691L19.0141602,10.2182617z
		 M21.7009888,12.9049072l1.1240845-2.8908081l1.8963013,1.8963623l-1.0839233,2.9307251L21.7009888,12.9049072z
		 M24.4154053,15.6191406l1.0839233-2.9306641l1.864563,1.864624l-1.0838623,2.930542L24.4154053,15.6191406z
		 M27.0580444,18.2615967l1.0838623-2.930481l1.9368896,1.9369507L28.9546509,20.15802L27.0580444,18.2615967z
		 M29.7270508,20.9304199l1.1240234-2.8900146l1.8964233,1.8964233l-1.0838013,2.9301147L29.7270508,20.9304199z
		 M33.3056641,24.5087891l-0.8637695-0.8637085l1.0836182-2.9301758l1.789917,1.789978l2.7988281,4.7353516L33.3056641,24.5087891z"
		/>
</g>
<rect class="st0" width="40" height="40"/>
</svg>
