<?xml version="1.0" encoding="utf-8"?>
<!-- Generator: Adobe Illustrator 21.1.0, SVG Export Plug-In . SVG Version: 6.00 Build 0)  -->
<svg version="1.1" id="icon" xmlns="http://www.w3.org/2000/svg" xmlns:xlink="http://www.w3.org/1999/xlink" x="0px" y="0px"
	 viewBox="0 0 40 40" style="enable-background:new 0 0 40 40;" xml:space="preserve">
<style type="text/css">
	.st0{fill:none;stroke:none;}
</style>
<g id="New_icons_1_">
</g>
<path d="M39.8535156,35.8964844l-9.9287109-9.9287109c-0.1953125-0.1953125-0.5117188-0.1953125-0.7070312,0l-1.2891235,1.2891235
	l-2.3612671-2.3604126c-0.3535156-0.3544922-0.4423828-0.9707031-0.21875-1.375L33.9375,10.2070312
	c0.4609375-0.8291016,0.3046875-1.9208984-0.3701172-2.5961914l-5.4277344-5.4287109c-0.1875-0.1875-0.5195312-0.1875-0.7070312,0
	l-1.2182617,1.2182617l-3.3608398-3.3608398c-0.1953125-0.1953125-0.5117188-0.1953125-0.7070312,0l-22,21.9995117
	C0.0527344,22.1328125,0,22.2597656,0,22.3925781s0.0527344,0.2597656,0.1464844,0.3535156l7.5712891,7.5712891
	c0.0976562,0.0976562,0.2255859,0.1464844,0.3535156,0.1464844s0.2558594-0.0488281,0.3535156-0.1464844l22-21.9995117
	c0.09375-0.09375,0.1464844-0.2207031,0.1464844-0.3535156s-0.0527344-0.2597656-0.1464844-0.3535156l-3.503418-3.503418
	l0.8647461-0.8647461l5.0742188,5.0751953c0.3544922,0.3544922,0.4433594,0.9707031,0.2197266,1.3754883l-8.5878906,13.3134766
	c-0.4619141,0.8300781-0.3066406,1.921875,0.3681641,2.5966797l2.3612671,2.3604126l-1.3612671,1.3612671
	c-0.1953125,0.1953125-0.1953125,0.5117188,0,0.7070312l9.9287109,9.9287109
	c0.0976562,0.0976562,0.2255859,0.1464844,0.3535156,0.1464844s0.2558594-0.0488281,0.3535156-0.1464844l3.3574219-3.3574219
	C40.0488281,36.4082031,40.0488281,36.0917969,39.8535156,35.8964844z M8.0712891,29.2568359l-6.8642578-6.8642578L22.5,1.1000977
	l6.8642578,6.8642578L8.0712891,29.2568359z M36.1425781,38.9003906l-9.2216797-9.2216797l2.6503906-2.6503906L38.7929688,36.25
	L36.1425781,38.9003906z"/>
<rect class="st0" width="40" height="40"/>
</svg>
