<?xml version="1.0" encoding="utf-8"?>
<!-- Generator: Adobe Illustrator 21.1.0, SVG Export Plug-In . SVG Version: 6.00 Build 0)  -->
<svg version="1.1" id="icon" xmlns="http://www.w3.org/2000/svg" xmlns:xlink="http://www.w3.org/1999/xlink" x="0px" y="0px"
	 viewBox="0 0 40 40" style="enable-background:new 0 0 40 40;" xml:space="preserve">
<style type="text/css">
	.st0{fill:none;stroke:none;}
</style>
<g id="New_icons_1_">
</g>
<path d="M39.5,6.4477539h-9.1367188c-0.1308594,0-0.2558594,0.0507812-0.3486328,0.1420898l-4.0957031,3.9912109h-5.8847656
	V9.296875h2.4365234c0.2763672,0,0.5-0.2236328,0.5-0.5V5.3164062c0-0.2763672-0.2236328-0.5-0.5-0.5h-9.1362305
	c-0.2763672,0-0.5,0.2236328-0.5,0.5V8.796875c0,0.2763672,0.2236328,0.5,0.5,0.5h2.4365234v1.2841797H9.9013672
	c-0.2763672,0-0.5,0.2236328-0.5,0.5v5.5473633c0,0.2763672,0.2236328,0.5,0.5,0.5s0.5-0.2236328,0.5-0.5v-5.0473633h5.3696289
	v1.175293h-0.8051758c-1.152832,0-2.0224609,0.8696289-2.0224609,2.0229492v3.0454102
	c0,0.5922852-0.4301758,1.0224609-1.0229492,1.0224609c-2.074585,0-3.8573608,1.2560425-4.640564,3.0454102H0.5
	c-0.2763672,0-0.5,0.2236328-0.5,0.5v9.2451172c0,0.2763672,0.2236328,0.5,0.5,0.5h6.7793579
	c0.78302,1.7896729,2.5661011,3.0458984,4.6410522,3.0458984h12.1821289c2.0753174,0,3.8585205-1.2562256,4.6415405-3.0458984
	h6.5615845c0.2763672,0,0.5-0.2236328,0.5-0.5v-9.2451172c0-0.2763672-0.2236328-0.5-0.5-0.5h-6.6334839
	c-0.8412476-1.7890625-2.6442871-3.0454102-4.6780396-3.0454102c-0.5927734,0-1.0234375-0.4301758-1.0234375-1.0224609v-3.0454102
	c0-1.1533203-0.8691406-2.0229492-2.0224609-2.0229492h-0.9140625v-1.175293h6.0878906
	c0.1308594,0,0.2558594-0.0507812,0.3486328-0.1420898l4.0957031-3.9912109H39.5c0.2763672,0,0.5-0.2236328,0.5-0.5
	S39.7763672,6.4477539,39.5,6.4477539z M13.8344727,5.8164062h8.1362305V8.296875h-8.1362305V5.8164062z M16.7709961,9.296875
	h2.2631836v1.2841797h-2.2631836V9.296875z M1,31.1376953v-8.2451172h5.956665
	c-0.0680542,0.3306885-0.104126,0.6729126-0.104126,1.0234375v6.1992188c0,0.3502197,0.0359497,0.6920776,0.1038818,1.0224609H1z
	 M34.8056641,22.8925781v8.2451172h-5.7386475c0.0679321-0.3303833,0.1038818-0.6722412,0.1038818-1.0224609v-6.2207031
	c-0.0150757-0.3430786-0.0648193-0.6779175-0.1433716-1.0019531H34.8056641z M21.9707031,14.7792969v3.0454102
	c0,1.152832,0.8701172,2.0224609,2.0234375,2.0224609c2.2050781,0,4.0791016,1.8354492,4.1767578,4.0688477v6.1992188
	c0,2.2431641-1.8251953,4.0683594-4.0683594,4.0683594H11.9204102c-2.2431641,0-4.0678711-1.8251953-4.0678711-4.0683594v-6.1992188
	c0-2.2431641,1.824707-4.0688477,4.0678711-4.0688477c1.1533203,0,2.0229492-0.8696289,2.0229492-2.0224609v-3.0454102
	c0-0.5927734,0.4301758-1.0229492,1.0224609-1.0229492h5.9824219
	C21.5410156,13.7563477,21.9707031,14.1865234,21.9707031,14.7792969z M19.0341797,12.7563477h-2.2631836v-1.175293h2.2631836
	V12.7563477z"/>
<rect y="0" class="st0" width="40" height="40"/>
</svg>
