<?xml version="1.0" encoding="utf-8"?>
<!-- Generator: Adobe Illustrator 21.1.0, SVG Export Plug-In . SVG Version: 6.00 Build 0)  -->
<svg version="1.1" id="icon" xmlns="http://www.w3.org/2000/svg" xmlns:xlink="http://www.w3.org/1999/xlink" x="0px" y="0px"
	 viewBox="0 0 40 40" style="enable-background:new 0 0 40 40;" xml:space="preserve">
<style type="text/css">
	.st0{fill:none;stroke:none;}
</style>
<g id="New_icons_1_">
</g>
<g>
	<g>
		<path d="M35.4306641,37.90625H4.5214844c-1.9057617,0-3.347168-0.6630859-4.0585938-1.8681641
			c-0.722168-1.2236328-0.6000977-2.8408203,0.3442383-4.5517578L16.2114258,4.7192383
			c0.9936523-1.6943359,2.3100586-2.6254883,3.7094727-2.6259766c1.3994141,0,2.7167969,0.9311523,3.7089844,2.6225586
			c0,0.0004883,0.0009766,0.0014648,0.0009766,0.0024414l15.5087891,26.7583008
			c0.9794922,1.6708984,1.1298828,3.2705078,0.4248047,4.5029297C38.8515625,37.2216797,37.3837891,37.90625,35.4306641,37.90625z
			 M19.9208984,3.0932617c-1.0297852,0.0004883-2.0400391,0.7563477-2.8447266,2.128418L1.6787109,31.9765625
			c-0.7626953,1.3818359-0.8896484,2.6464844-0.3544922,3.5527344c0.5239258,0.8876953,1.659668,1.3769531,3.1972656,1.3769531
			h30.9091797c1.5800781,0,2.7392578-0.5058594,3.265625-1.4238281c0.5205078-0.9082031,0.3710938-2.1513672-0.4208984-3.5019531
			L22.7666016,5.2207031C21.9619141,3.8486328,20.9511719,3.0932617,19.9208984,3.0932617z"/>
	</g>
	<g>
		<path d="M17.8461914,32.6640625c-0.0678711,0-0.1362305-0.0136719-0.2011719-0.0419922
			c-0.2216797-0.0976562-0.3413086-0.3398438-0.2851562-0.5742188l1.8178711-7.5751953h-4.8261719
			c-0.1826172,0-0.3505859-0.0996094-0.4384766-0.2597656s-0.0810547-0.3554688,0.0170898-0.5087891L20.4824219,13.4375
			c0.1308594-0.2036133,0.390625-0.2827148,0.6113281-0.1938477c0.2236328,0.0913086,0.3496094,0.3300781,0.2998047,0.5664062
			l-1.5107422,7.1508789h5.171875c0.1845703,0,0.3544922,0.1015625,0.4414062,0.2646484
			c0.0869141,0.1640625,0.0761719,0.3613281-0.0263672,0.5146484l-7.2089844,10.703125
			C18.1655273,32.5849609,18.0083008,32.6640625,17.8461914,32.6640625z M15.2636719,23.4726562h4.5483398
			c0.1533203,0,0.2973633,0.0703125,0.3930664,0.1904297c0.0947266,0.1201172,0.1289062,0.2773438,0.0927734,0.4257812
			l-1.3193359,5.4980469l5.1367188-7.6259766h-4.8491211c-0.1508789,0-0.293457-0.0683594-0.3881836-0.1855469
			c-0.0952148-0.1162109-0.1323242-0.2705078-0.1010742-0.4179688l1.0703125-5.0649414L15.2636719,23.4726562z"/>
	</g>
</g>
<rect class="st0" width="40" height="40"/>
</svg>
