<?xml version="1.0" encoding="utf-8"?>
<!-- Generator: Adobe Illustrator 21.1.0, SVG Export Plug-In . SVG Version: 6.00 Build 0)  -->
<svg version="1.1" id="icon" xmlns="http://www.w3.org/2000/svg" xmlns:xlink="http://www.w3.org/1999/xlink" x="0px" y="0px"
	 viewBox="0 0 40 40" style="enable-background:new 0 0 40 40;" xml:space="preserve">
<style type="text/css">
	.st0{fill:none;stroke:none;}
</style>
<g id="New_icons_1_">
</g>
<path d="M39.5878906,2.0078125c-0.234375-0.043457-0.4726562,0.0913086-0.5566406,0.3183594
	c-0.9521484,2.5644531-3.328125,4.2211914-6.0546875,4.2211914c-2.5891113,0-4.8468018-1.5046997-5.8837891-3.8511353V2.5
	c0-0.2421875-0.1738281-0.4492188-0.4121094-0.4921875c-0.0470581-0.008667-0.0933838-0.005188-0.1392212-0.0004272
	c-0.0568848-0.0101929-0.1160889-0.0106201-0.1752319,0.0004272c-0.2382812,0.0429688-0.4121094,0.25-0.4121094,0.4921875v0.1959229
	c-1.0377808,2.3466187-3.2955322,3.8514404-5.8847656,3.8514404c-2.7265625,0-5.1030273-1.6567383-6.0541992-4.2211914
	c-0.000061-0.0002441-0.0003052-0.0003052-0.0003662-0.0005493c-0.0143433-0.0385742-0.0384521-0.0714111-0.0614624-0.1049194
	c-0.0431519-0.0628662-0.0947876-0.118103-0.159668-0.1549072c-0.0152588-0.008728-0.0339966-0.0111084-0.0502319-0.0181885
	c-0.0369873-0.0160522-0.0736084-0.0326538-0.1138916-0.0394897c-0.0023193-0.0004272-0.0041504-0.0018921-0.0064697-0.0022583
	c-0.0265503-0.0040283-0.0517578,0.0018921-0.0778809,0.0020752c-0.0291138-0.000061-0.0575562-0.005249-0.0871582-0.0001221
	c-0.0026245,0.0004883-0.0046997,0.0021973-0.0073242,0.0026855c-0.02771,0.0054321-0.052002,0.019043-0.078125,0.0289307
	c-0.0286865,0.0108643-0.05896,0.0181885-0.0846558,0.0337524c-0.0200195,0.012085-0.0350952,0.0303955-0.0532227,0.045166
	c-0.0263062,0.0215454-0.0542603,0.0409546-0.0755615,0.0672607c-0.0142822,0.0175781-0.0223389,0.0395508-0.0342407,0.0591431
	c-0.0184326,0.0304565-0.0380249,0.0597534-0.0497437,0.0938721c-0.0012817,0.0036621-0.0041504,0.0062866-0.0053101,0.0100098
	c-0.7866211,2.472168-3.2729492,4.1987305-6.046875,4.1987305c-2.7260742,0-5.1025391-1.6567383-6.0541992-4.2211914
	C0.8847656,2.0991211,0.6513672,1.9663086,0.4116211,2.0078125C0.1733398,2.0507812,0,2.2578125,0,2.5v18.6025391v0.1376953
	V32.953125c0,0.0595703,0.0107422,0.1181641,0.03125,0.1738281C1.1298828,36.0869141,3.8740234,38,7.0229492,38
	c2.7697754,0,5.2241821-1.4819946,6.5233765-3.8527222C14.8450928,36.5180054,17.2991333,38,20.0693359,38
	c2.7233276,0,5.1385498-1.4347534,6.4539185-3.7355957C27.8380127,36.5652466,30.2532349,38,32.9765625,38
	c3.1494141,0,5.8935547-1.9130859,6.9921875-4.8730469C39.9892578,33.0712891,40,33.0126953,40,32.953125V21.2402344v-0.1376953V2.5
	C40,2.2578125,39.8261719,2.0507812,39.5878906,2.0078125z M32.9765625,7.5473633
	c2.4453125,0,4.6474609-1.1538086,6.0234375-3.0561523v16.6113281v0.0458984
	c-0.9716797,2.5175781-3.3261719,4.1386719-6.0234375,4.1386719c-2.5877075,0-4.8463135-1.501709-5.8837891-3.8460693v-0.2008057
	v-0.1376953V4.6618652C28.4751587,6.458313,30.6078491,7.5473633,32.9765625,7.5473633z M20.0693359,7.5473633
	c2.3687744,0,4.5022583-1.0894775,5.8847656-2.8864136v16.4415894v0.1376953v0.2005615
	c-1.0383301,2.3444214-3.296936,3.8463135-5.8847656,3.8463135c-2.6972656,0-5.0517578-1.6210938-6.0229492-4.1386719v-0.0458984
	V4.4916992C15.4223633,6.3935547,17.6240234,7.5473633,20.0693359,7.5473633z M1,4.4912109
	c1.3759766,1.9023438,3.5776367,3.0561523,6.0229492,3.0561523c2.4355469,0,4.6826172-1.1630859,6.0234375-2.9868164v16.5419922
	v0.0458984c-0.9716797,2.5175781-3.3261719,4.1386719-6.0234375,4.1386719c-2.6967773,0-5.0512695-1.6210938-6.0229492-4.1386719
	v-0.0458984V4.4912109z M7.0229492,37C4.3261719,37,1.9716797,35.3789062,1,32.8613281v-9.65625
	c1.3752441,1.9115601,3.5705566,3.0820312,6.0229492,3.0820312c2.4524536,0,4.6480103-1.1705933,6.0234375-3.0822144v9.6564331
	C12.074707,35.3789062,9.7202148,37,7.0229492,37z M20.0693359,37c-2.6972656,0-5.0517578-1.6210938-6.0229492-4.1386719v-9.6559448
	c1.375061,1.9113159,3.5703125,3.0817261,6.0229492,3.0817261c2.3656006,0,4.5020752-1.079895,5.8847656-2.871521v9.5375366
	c0,0.0498657,0.0116577,0.0980835,0.026123,0.1454468C24.9536133,35.4754639,22.6777954,37,20.0693359,37z M32.9765625,37
	c-2.6083984,0-4.8842163-1.5245972-5.9099731-3.9013062c0.0145264-0.0473633,0.0261841-0.0957031,0.0261841-0.1455688v-9.5367432
	c1.3823242,1.7911987,3.5184937,2.8707275,5.8837891,2.8707275c2.4527588,0,4.6481323-1.1704712,6.0234375-3.0820312v9.65625
	C38.0283203,35.3789062,35.6738281,37,32.9765625,37z"/>
<rect class="st0" width="40" height="40"/>
</svg>
