<?xml version="1.0" encoding="utf-8"?>
<!-- Generator: Adobe Illustrator 21.1.0, SVG Export Plug-In . SVG Version: 6.00 Build 0)  -->
<svg version="1.1" id="icon" xmlns="http://www.w3.org/2000/svg" xmlns:xlink="http://www.w3.org/1999/xlink" x="0px" y="0px"
	 viewBox="0 0 40 40" style="enable-background:new 0 0 40 40;" xml:space="preserve">
<style type="text/css">
	.st0{fill:none;stroke:none;}
</style>
<g id="New_icons_1_">
</g>
<g>
	<path d="M39.96875,3.0263672C39.8955078,2.8300781,39.7089844,2.7001953,39.5,2.7001953h-39c-0.2763672,0-0.5,0.2236328-0.5,0.5
		v33.5996094c0,0.1953125,0.1137695,0.3730469,0.2915039,0.4541016C0.3583984,37.2851562,0.4291992,37.2998047,0.5,37.2998047
		c0.1176758,0,0.2338867-0.0410156,0.3261719-0.1210938l39-33.5996094C39.984375,3.4423828,40.0410156,3.222168,39.96875,3.0263672z
		 M1,35.7089844V3.7001953h1.7856445v2c0,0.2763672,0.2236328,0.5,0.5,0.5s0.5-0.2236328,0.5-0.5v-2H5.6875v2
		c0,0.2763672,0.2236328,0.5,0.5,0.5s0.5-0.2236328,0.5-0.5v-2h1.7856445v2c0,0.2763672,0.2236328,0.5,0.5,0.5
		s0.5-0.2236328,0.5-0.5v-2H11.375v2c0,0.2763672,0.2236328,0.5,0.5,0.5s0.5-0.2236328,0.5-0.5v-2h1.9018555v2
		c0,0.2763672,0.2236328,0.5,0.5,0.5s0.5-0.2236328,0.5-0.5v-2H17.0625v2c0,0.2763672,0.2236328,0.5,0.5,0.5s0.5-0.2236328,0.5-0.5
		v-2h1.9013672v2c0,0.2763672,0.2236328,0.5,0.5,0.5s0.5-0.2236328,0.5-0.5v-2H22.75v2c0,0.2763672,0.2236328,0.5,0.5,0.5
		s0.5-0.2236328,0.5-0.5v-2h1.9013672v2c0,0.2763672,0.2236328,0.5,0.5,0.5s0.5-0.2236328,0.5-0.5v-2h1.9023438v2
		c0,0.2763672,0.2236328,0.5,0.5,0.5s0.5-0.2236328,0.5-0.5v-2h1.7851562v2c0,0.2763672,0.2236328,0.5,0.5,0.5
		s0.5-0.2236328,0.5-0.5v-2h1.9023438v2c0,0.2763672,0.2236328,0.5,0.5,0.5s0.5-0.2236328,0.5-0.5v-2h2.9121094L1,35.7089844z"/>
	<path d="M19.8837891,9.7001953H8.625c-0.2763672,0-0.5,0.2236328-0.5,0.5v9.699707
		c0,0.1958008,0.1137695,0.3735352,0.2915039,0.4545898C8.4833984,20.3847656,8.5541992,20.4003906,8.625,20.4003906
		c0.1176758,0,0.2338867-0.0419922,0.3261719-0.1220703l11.2587891-9.6992188
		c0.1582031-0.1367188,0.2148438-0.3569336,0.1425781-0.5527344C20.2792969,9.8300781,20.0927734,9.7001953,19.8837891,9.7001953z
		 M9.125,18.809082v-8.1088867h9.4125977L9.125,18.809082z"/>
</g>
<rect y="0" class="st0" width="40" height="40"/>
</svg>
