<?xml version="1.0" encoding="utf-8"?>
<!-- Generator: Adobe Illustrator 21.1.0, SVG Export Plug-In . SVG Version: 6.00 Build 0)  -->
<svg version="1.1" id="icon" xmlns="http://www.w3.org/2000/svg" xmlns:xlink="http://www.w3.org/1999/xlink" x="0px" y="0px"
	 viewBox="0 0 40 40" style="enable-background:new 0 0 40 40;" xml:space="preserve">
<style type="text/css">
	.st0{fill:none;stroke:none;}
</style>
<g id="New_icons_1_">
</g>
<path d="M40,22.9804688c0-4.6184082-1.6130371-9.0852661-4.5351562-12.6087646V7.9501953
	c0-1.6586914-1.3300781-3.5117188-3.0625-4.2314453c-0.9765625-0.3261719-1.8652344-0.2548828-2.4970703,0.2011719
	c-0.4455566,0.321167-0.7277832,0.8214111-0.8318481,1.4315796c-1.8201294-0.9284668-3.8206177-1.5927124-5.9727783-1.9675293
	c-0.2608032-1.4423828-1.5193481-2.541687-3.0361938-2.541687h-0.2587891c-1.512207,0-2.7689209,1.0930176-3.0344849,2.529541
	c-2.0476074,0.2706299-4.2341309,0.9932861-6.2744141,2.06604c-0.1403809-0.2380371-0.3099365-0.451416-0.5309448-0.6107178
	C9.3334961,4.371582,8.4462891,4.300293,7.434082,4.6381836c-1.6982422,0.7075195-3.0288086,2.5605469-3.0288086,4.21875v1.6721802
	C1.5266113,14.069397,0,18.3679199,0,22.9804688v5.5712891c0,0.1430054,0.0181274,0.2820435,0.0245972,0.4237061
	c-0.0111084,0.0762329-0.0098877,0.1525269,0.0130615,0.2243042c0.387146,5.5463257,5.6687012,9.9584351,12.1234741,9.9584351
	h15.6777344c6.4902954,0,11.7932129-4.460144,12.1287231-10.0489502c0.0303345-0.0839233,0.0327759-0.1735229,0.0153198-0.2634888
	C39.9860229,28.7471924,40,28.651001,40,28.5517578V22.9804688z M30.0234375,5.8769531
	c0-0.3696289,0.0810547-0.8681641,0.4658203-1.1455078c0.3662109-0.2631836,0.9306641-0.2851562,1.5625-0.0771484
	c1.3310547,0.5541992,2.4130859,2.0327148,2.4130859,3.2958984v11.5317383c0,0.4960938-0.1699219,0.8803711-0.4902344,1.1118164
	c-0.3779297,0.2714844-0.9277344,0.3105469-1.5546875,0.1035156c-1.3232422-0.5595703-2.3964844-2.0307617-2.3964844-3.2885742
	V5.8769531z M17.7143555,3.9335938c0-1.1533203,0.9379883-2.0913086,2.0913086-2.0913086h0.2587891
	c1.1533203,0,2.0917969,0.9379883,2.0917969,2.0913086v14.1230469c0,1.152832-0.9384766,2.0908203-2.0917969,2.0908203h-0.2587891
	c-1.1533203,0-2.0913086-0.9379883-2.0913086-2.0908203V3.9335938z M7.784668,5.5737305
	C8.0869141,5.4731445,8.3691406,5.4228516,8.621582,5.4228516c0.3017578,0,0.5605469,0.0722656,0.7592773,0.215332
	C9.5523682,5.7619019,9.6567383,5.9319458,9.727356,6.1123047c-0.0045776,0.0911255,0.0067139,0.1835938,0.0548706,0.269043
	c0.0070801,0.0125732,0.020813,0.017334,0.0287476,0.0290527C9.8336182,6.5404053,9.847168,6.6687012,9.847168,6.7841797v11.53125
	c0,1.2626953-1.0825195,2.7412109-2.4130859,3.2958984c-0.6035156,0.2519531-1.1376953,0.2539062-1.5029297,0.0107422
	c-0.3393555-0.2265625-0.5258789-0.6640625-0.5258789-1.2333984v-9.7349243c-0.0003052-0.0033569,0.0003052-0.0065308,0-0.0098267
	V8.8569336C5.4052734,7.5942383,6.487793,6.1157227,7.784668,5.5737305z M1,22.9804688
	c0-3.9453125,1.1763306-7.647644,3.4052734-10.7996826v8.2078857c0,0.9140625,0.3447266,1.6474609,0.9707031,2.0654297
	c0.3491211,0.2324219,0.7583008,0.3486328,1.2045898,0.3486328c0.3901367,0,0.8081055-0.0888672,1.2382812-0.2675781
	c1.6982422-0.7089844,3.0283203-2.5620117,3.0283203-4.2197266v-11.53125c0-0.1356201-0.0211792-0.2595825-0.0368042-0.3867188
	c1.9182739-1.0296631,3.9740601-1.7235718,5.9039917-2.0045776v13.6637573c0,1.7041016,1.3867188,3.0908203,3.0913086,3.0908203
	h0.2587891c1.7050781,0,3.0917969-1.3867188,3.0917969-3.0908203V4.4137573
	c2.125,0.3933105,4.0958862,1.0709839,5.8671875,2.0307007v10.9642334c0,1.6586914,1.3300781,3.5112305,3.0283203,4.2192383
	c0.0117188,0.0039062,0.0224609,0.0087891,0.0341797,0.0126953c0.3769531,0.125,0.7431641,0.1875,1.0888672,0.1875
	c0.5205078,0,0.9941406-0.1416016,1.3837891-0.4228516c0.5849609-0.4208984,0.90625-1.1044922,0.90625-1.9233398v-7.4759521
	C37.7493896,15.1779785,39,19.0196533,39,22.9804688v5.5712891c0,0.0241699-0.0040283,0.0474243-0.0042114,0.0715332
	c-3.3005981,1.647583-7.2836914,2.812439-11.6311646,3.4341431l-0.8392334-5.9675903
	c0-1.6328125-1.96875-2.9619141-4.3876953-2.9619141h-4.4052734c-2.4189453,0-4.3867188,1.3291016-4.3818359,2.8925781
	l-0.8491821,6.0638428c-4.3318481-0.5964966-8.2240601-1.7258911-11.4910889-3.3578491
	C1.0090942,28.6677856,1,28.6107178,1,28.5517578V22.9804688z M26.3730469,32.1838379
	c-2.0848389,0.2553101-4.2359009,0.4020996-6.4379883,0.4020996c-2.2321167,0-4.3777466-0.1376953-6.4414062-0.3795166
	l0.8520508-6.1165771c0-0.9277344,1.3911133-1.9619141,3.3867188-1.9619141h4.4052734
	c1.9960938,0,3.3876953,1.0341797,3.3925781,2.03125L26.3730469,32.1838379z M27.8388672,38.1582031H12.1611328
	c-5.6293335,0-10.2859497-3.6092529-11.0415649-8.2780762c5.1054688,2.4169922,11.5745239,3.7058105,18.8154907,3.7058105
	c7.1049194,0,13.7835693-1.3598022,18.9647827-3.8149414C38.2002563,34.4929199,33.5122681,38.1582031,27.8388672,38.1582031z"/>
<rect y="0" class="st0" width="40" height="40"/>
</svg>
