<?xml version="1.0" encoding="utf-8"?>
<!-- Generator: Adobe Illustrator 21.1.0, SVG Export Plug-In . SVG Version: 6.00 Build 0)  -->
<svg version="1.1" id="icon" xmlns="http://www.w3.org/2000/svg" xmlns:xlink="http://www.w3.org/1999/xlink" x="0px" y="0px"
	 viewBox="0 0 40 40" style="enable-background:new 0 0 40 40;" xml:space="preserve">
<style type="text/css">
	.st0{fill:none;stroke:none;}
</style>
<g id="New_icons_1_">
</g>
<g>
	<path d="M20,24.3867188c-2.418457,0-4.3862305-1.9677734-4.3862305-4.3867188c0-2.418457,1.9677734-4.3862305,4.3862305-4.3862305
		c2.4189453,0,4.3867188,1.9677734,4.3867188,4.3862305C24.3867188,22.4189453,22.4189453,24.3867188,20,24.3867188z M20,16.6137695
		c-1.8671875,0-3.3862305,1.519043-3.3862305,3.3862305S18.1328125,23.3867188,20,23.3867188S23.3867188,21.8671875,23.3867188,20
		S21.8671875,16.6137695,20,16.6137695z"/>
</g>
<g>
	<path d="M18.0268555,40c-0.0668945,0-0.1337891-0.0136719-0.1972656-0.0410156
		c-0.15625-0.0664062-0.2680664-0.2089844-0.2958984-0.3769531l-0.3657227-2.1953125l-3.9633789,1.4228516
		c-0.1606445,0.0576172-0.3383789,0.0292969-0.4736328-0.0742188c-0.1347656-0.1035156-0.2075195-0.2685547-0.1933594-0.4384766
		l0.1835938-2.2011719l-4.059082,0.3046875C8.5,36.4140625,8.331543,36.3398438,8.2285156,36.2060547
		c-0.1025391-0.1337891-0.1313477-0.3095703-0.0756836-0.46875l0.7353516-2.1132812l-4.0639648-0.7119141
		c-0.1650391-0.0283203-0.3051758-0.1386719-0.3720703-0.2929688c-0.0668945-0.1533203-0.0522461-0.3310547,0.0390625-0.4716797
		l1.2006836-1.8466797L1.90625,28.4580078C1.7514648,28.3828125,1.6464844,28.2333984,1.6279297,28.0625
		s0.0522461-0.3398438,0.1870117-0.4462891l1.7324219-1.3671875l-3.1435547-2.7382812
		c-0.1274414-0.1103516-0.1899414-0.2773438-0.1674805-0.4443359c0.0229492-0.1669922,0.128418-0.3115234,0.2807617-0.3837891
		l1.9125977-0.9101562l-2.34375-3.465332c-0.0957031-0.1411133-0.112793-0.3212891-0.0454102-0.4775391
		S0.25,17.5615234,0.4179688,17.5336914l2.1948242-0.3657227l-1.4228516-3.9633789
		c-0.0571289-0.1601562-0.0292969-0.3383789,0.0742188-0.4736328c0.1030273-0.1347656,0.2719727-0.2094727,0.4379883-0.1933594
		l2.2016602,0.1835938L3.5996094,8.6625977C3.5869141,8.4941406,3.659668,8.331543,3.793457,8.2285156
		c0.1328125-0.1030273,0.309082-0.1318359,0.46875-0.0756836l2.1147461,0.7353516l0.7109375-4.0639648
		C7.1171875,4.6591797,7.2270508,4.519043,7.3808594,4.4521484c0.1542969-0.0673828,0.3310547-0.0522461,0.472168,0.0390625
		L9.699707,5.6918945L11.5415039,1.90625c0.0751953-0.1547852,0.2250977-0.2597656,0.3959961-0.2783203
		c0.1757812-0.0195312,0.3393555,0.0527344,0.4462891,0.1875l1.3671875,1.7319336l2.7382812-3.144043
		c0.1108398-0.1264648,0.2744141-0.1870117,0.4448242-0.1669922c0.1669922,0.0229492,0.3110352,0.128418,0.3837891,0.2807617
		l0.9106445,1.9125977l3.4648438-2.34375c0.1396484-0.0957031,0.3203125-0.1137695,0.4775391-0.0454102
		c0.15625,0.0673828,0.2675781,0.2094727,0.2958984,0.3774414l0.3652344,2.1948242l3.9628906-1.4228516
		c0.1591797-0.0571289,0.3378906-0.0302734,0.4736328,0.0742188c0.1347656,0.1035156,0.2080078,0.2685547,0.1933594,0.4379883
		l-0.1826172,2.2016602l4.0585938-0.3041992c0.1660156-0.0087891,0.3310547,0.0600586,0.4335938,0.1938477
		c0.1025391,0.1333008,0.1308594,0.3100586,0.0761719,0.46875l-0.7363281,2.1147461l4.0634766,0.7109375
		c0.1660156,0.0292969,0.3056641,0.1391602,0.3720703,0.2929688c0.0673828,0.1542969,0.0527344,0.331543-0.0390625,0.472168
		L34.3076172,9.699707l3.7861328,1.8417969c0.1542969,0.0751953,0.2597656,0.2250977,0.2783203,0.3959961
		s-0.0517578,0.3393555-0.1875,0.4462891l-1.7314453,1.3671875l3.1425781,2.7382812
		c0.1269531,0.1108398,0.1904297,0.277832,0.1669922,0.4448242c-0.0224609,0.1669922-0.1279297,0.3110352-0.2802734,0.3837891
		l-1.9121094,0.9106445l2.34375,3.4648438c0.0957031,0.1416016,0.1123047,0.3212891,0.0449219,0.4775391
		c-0.0664062,0.15625-0.2089844,0.2675781-0.3769531,0.2958984l-2.1953125,0.3652344l1.4228516,3.9628906
		c0.0576172,0.1601562,0.0292969,0.3388672-0.0742188,0.4736328s-0.2724609,0.2041016-0.4375,0.1933594l-2.2021484-0.1826172
		l0.3046875,4.0585938c0.0117188,0.1679688-0.0605469,0.3310547-0.1943359,0.4335938
		c-0.1337891,0.1035156-0.3095703,0.1308594-0.46875,0.0761719l-2.1132812-0.7363281l-0.7119141,4.0634766
		c-0.0283203,0.1660156-0.1386719,0.3056641-0.2929688,0.3720703c-0.1533203,0.0683594-0.3310547,0.0527344-0.4716797-0.0390625
		l-1.8466797-1.2001953L28.4580078,38.09375c-0.0751953,0.1542969-0.2246094,0.2597656-0.3955078,0.2783203
		c-0.1708984,0.0175781-0.3398438-0.0527344-0.4462891-0.1875l-1.3671875-1.7314453l-2.7382812,3.1425781
		c-0.1103516,0.1279297-0.2724609,0.1894531-0.4453125,0.1669922c-0.1660156-0.0224609-0.3105469-0.1279297-0.3828125-0.2802734
		l-0.9101562-1.9121094l-3.465332,2.34375C18.2231445,39.9707031,18.125,40,18.0268555,40z M17.5625,36.2138672
		c0.0878906,0,0.175293,0.0234375,0.2529297,0.0683594c0.1279297,0.0751953,0.2158203,0.203125,0.2402344,0.3496094
		l0.3364258,2.0175781l3.3012695-2.2333984c0.1220703-0.0820312,0.2705078-0.1054688,0.4121094-0.0683594
		c0.1396484,0.0380859,0.2568359,0.1357422,0.3193359,0.2675781l0.8330078,1.7490234l2.6328125-3.0224609
		c0.0976562-0.1123047,0.2363281-0.1601562,0.3886719-0.171875c0.1494141,0.0039062,0.2880859,0.0732422,0.3808594,0.1904297
		l1.2470703,1.5800781l1.7421875-3.5791016c0.0625-0.1289062,0.1777344-0.2246094,0.3154297-0.2626953
		c0.1367188-0.0410156,0.2851562-0.0166016,0.40625,0.0625l1.6865234,1.0957031l0.6826172-3.8964844
		c0.0253906-0.1445312,0.1123047-0.2705078,0.2392578-0.3447266c0.1259766-0.0742188,0.2802734-0.0898438,0.4169922-0.0419922
		l1.9492188,0.6787109l-0.2910156-3.8828125c-0.0107422-0.1455078,0.0429688-0.2890625,0.1464844-0.3925781
		c0.1044922-0.1025391,0.25-0.1503906,0.3935547-0.1425781l2.0107422,0.1669922l-1.3623047-3.7949219
		c-0.0498047-0.1396484-0.0351562-0.2939453,0.0390625-0.421875c0.0751953-0.1279297,0.203125-0.2158203,0.3496094-0.2402344
		l2.0175781-0.3359375l-2.2333984-3.3012695c-0.0820312-0.1206055-0.1064453-0.2709961-0.0683594-0.4116211
		s0.1357422-0.2573242,0.2675781-0.3203125l1.7490234-0.8325195l-3.0224609-2.6337891
		c-0.1123047-0.0976562-0.1757812-0.2402344-0.171875-0.3891602c0.0039062-0.1484375,0.0732422-0.2880859,0.1904297-0.3803711
		l1.5791016-1.2470703l-3.578125-1.7407227c-0.1289062-0.0629883-0.2246094-0.1777344-0.2626953-0.315918
		c-0.0390625-0.1381836-0.015625-0.2861328,0.0625-0.40625l1.0957031-1.6870117l-3.8964844-0.6816406
		c-0.1445312-0.0253906-0.2705078-0.112793-0.3447266-0.2392578s-0.0898438-0.2792969-0.0419922-0.4174805l0.6787109-1.9501953
		l-3.8828125,0.2910156c-0.1435547,0.0117188-0.2890625-0.0424805-0.3916016-0.1464844
		c-0.1035156-0.1040039-0.15625-0.2475586-0.1435547-0.3935547l0.1669922-2.0107422l-3.7949219,1.3623047
		c-0.1396484,0.0498047-0.2949219,0.0351562-0.421875-0.0395508c-0.1279297-0.074707-0.2158203-0.2026367-0.2402344-0.3491211
		l-0.3359375-2.0170898l-3.3012695,2.2329102c-0.1206055,0.0820312-0.269043,0.1079102-0.4116211,0.0683594
		c-0.140625-0.0380859-0.2573242-0.1357422-0.3203125-0.2675781l-0.8325195-1.7490234l-2.6337891,3.0239258
		c-0.0976562,0.1118164-0.2094727,0.1669922-0.3891602,0.1713867c-0.1484375-0.0039062-0.2880859-0.0732422-0.3803711-0.1904297
		l-1.2470703-1.5800781l-1.7407227,3.578125c-0.0629883,0.1289062-0.1777344,0.2246094-0.315918,0.2631836
		c-0.1386719,0.0380859-0.2861328,0.015625-0.40625-0.0625L7.9423828,5.7421875L7.2607422,9.6401367
		c-0.0253906,0.144043-0.112793,0.2705078-0.2392578,0.3447266c-0.1264648,0.0737305-0.2797852,0.0893555-0.4174805,0.0410156
		L4.6538086,9.3476562l0.2910156,3.8828125c0.0112305,0.1459961-0.0424805,0.2895508-0.1464844,0.3925781
		s-0.2495117,0.1552734-0.3935547,0.1430664L2.394043,13.5986328l1.3623047,3.7949219
		c0.0498047,0.1396484,0.0356445,0.2939453-0.0395508,0.421875c-0.074707,0.1279297-0.2026367,0.2158203-0.3491211,0.2402344
		l-2.0170898,0.3364258l2.2329102,3.3012695c0.081543,0.1210938,0.1064453,0.2714844,0.0683594,0.4121094
		s-0.1357422,0.2568359-0.2675781,0.3193359l-1.7490234,0.8330078l3.0234375,2.6328125
		c0.1123047,0.0976562,0.175293,0.2402344,0.171875,0.3886719c-0.0039062,0.1494141-0.0732422,0.2880859-0.1899414,0.3808594
		l-1.5805664,1.2470703l3.578125,1.7421875c0.1289062,0.0625,0.2246094,0.1777344,0.2631836,0.3154297
		c0.0380859,0.1376953,0.015625,0.2861328-0.0625,0.40625l-1.0966797,1.6865234l3.8979492,0.6826172
		c0.144043,0.0253906,0.2705078,0.1123047,0.3447266,0.2392578c0.0742188,0.1259766,0.0893555,0.2783203,0.0410156,0.4169922
		l-0.6782227,1.9492188l3.8833008-0.2910156c0.1464844-0.0107422,0.2895508,0.0429688,0.3920898,0.1474609
		c0.1030273,0.1035156,0.1552734,0.2470703,0.1430664,0.3935547l-0.1674805,2.0097656l3.7949219-1.3623047
		C17.4482422,36.2236328,17.5053711,36.2138672,17.5625,36.2138672z"/>
</g>
<rect y="0" class="st0" width="40" height="40"/>
</svg>
