<?xml version="1.0" encoding="utf-8"?>
<!-- Generator: Adobe Illustrator 21.1.0, SVG Export Plug-In . SVG Version: 6.00 Build 0)  -->
<svg version="1.1" id="icon" xmlns="http://www.w3.org/2000/svg" xmlns:xlink="http://www.w3.org/1999/xlink" x="0px" y="0px"
	 viewBox="0 0 40 40" style="enable-background:new 0 0 40 40;" xml:space="preserve">
<style type="text/css">
	.st0{fill:none;stroke:none;}
</style>
<g id="New_icons_1_">
</g>
<path d="M32.9785156,35.7988281c-0.3144531-3.5273438-5.4091797-13.2744141-5.6259766-13.6875
	c-0.0742188-0.1425781-0.2138672-0.2402344-0.3740234-0.2626953C26.8193359,21.8261719,26.6582031,21.8828125,26.546875,22
	l-0.1558838,0.1645508c-0.8234253-1.4195557-1.8709106-2.3839111-2.8273926-3.015686
	c0.0732422-0.100769,0.1398926-0.2075806,0.1834717-0.3290405c0.6748047-1.3305664,2.4228516-10.9399414,2.5283203-12.5766602
	c0.2177734-4.4521484-2.1845703-6.0927734-2.2871094-6.1601562c-0.1347656-0.0898438-0.3046875-0.1079102-0.4541016-0.0498047
	c-0.1503906,0.0571289-0.2636719,0.184082-0.3046875,0.3398438L20.0078735,12.656189L16.7705078,0.3725586
	c-0.0410156-0.1557617-0.1547852-0.2822266-0.3051758-0.3398438c-0.1499023-0.0561523-0.3198242-0.0375977-0.4541016,0.050293
	c-0.1020508,0.0673828-2.5043945,1.7080078-2.2861328,6.1679688c0.1015625,1.5668945,2.0688477,11.2416992,2.6171875,12.5375977
	c0.0505371,0.1194458,0.111084,0.2276001,0.1752319,0.3311768c-1.2338867,0.803894-2.2071533,1.8248291-2.907959,3.0463867
	L13.4521484,22c-0.1108398-0.1181641-0.2729492-0.1708984-0.4316406-0.1513672
	c-0.159668,0.0224609-0.2988281,0.1201172-0.3740234,0.2626953c-0.2167969,0.4130859-5.3100586,10.1601562-5.6245117,13.6865234
	c-0.1035156,1.1289062,0.1567383,2.0732422,0.7724609,2.8066406c1.0385742,1.2363281,2.7080078,1.3876953,2.7788086,1.3935547
	C10.5869141,39.9990234,10.6010742,40,10.6147461,40c0.2324219,0,0.4370117-0.1621094,0.487793-0.3925781
	c0.0102539-0.0458984,1.0371094-4.6757812,2.4443359-7.875c1.4067383-3.1953125,3.1337891-5.7041016,3.1513672-5.7294922
	c0.1347656-0.1943359,0.1147461-0.4560547-0.0483398-0.6279297l-0.2856445-0.3014526
	c0.3640747-0.7056274,1.5079346-2.5805054,3.6272583-3.3191528c2.157959,0.7058105,3.2927856,2.6127319,3.645752,3.3168945
	L23.3496094,25.375c-0.1621094,0.171875-0.1826172,0.4335938-0.0478516,0.6289062
	c0.0175781,0.0244141,1.7451172,2.5332031,3.1503906,5.7285156c1.4072266,3.1972656,2.4345703,7.8291016,2.4453125,7.875
	C28.9482422,39.8378906,29.1523438,40,29.3857422,40c0.0136719,0,0.0273438-0.0009766,0.0410156-0.0019531
	c0.0703125-0.0058594,1.7402344-0.1572266,2.7783203-1.3925781C32.8212891,37.8710938,33.0820312,36.9267578,32.9785156,35.7988281z
	 M23.9824219,1.4433594c0.5878906,0.7045898,1.4208984,2.1704102,1.2949219,4.7431641
	c-0.1083984,1.6635742-1.8554688,11.0625-2.4453125,12.234375c-0.0286255,0.0773926-0.0779419,0.1461182-0.137207,0.2146606
	c-0.5265503-0.2709351-0.9785767-0.447937-1.2524414-0.536438L20.5258179,14.62146L23.9824219,1.4433594z M12.6318359,31.3300781
	c-1.1958008,2.7167969-2.097168,6.3154297-2.3984375,7.59375c-0.4560547-0.1123047-1.1831055-0.375-1.6777344-0.9677734
	c-0.4345703-0.5214844-0.6157227-1.2167969-0.5375977-2.0683594c0.253418-2.8417969,4.0522461-10.4550781,5.1928711-12.6884766
	l0.1209106,0.1275635c0.0040283,0.0046997,0.0083008,0.008728,0.0125122,0.0132446l2.3050537,2.4324341
	C15.1240234,26.5732422,13.7890625,28.7001953,12.6318359,31.3300781z M15.6407471,24.3098755l-1.3145752-1.3874512
	c0.656189-1.2506104,1.6231689-2.2808838,2.8851929-3.0679932c0.4372559,0.3171997,0.9111938,0.4871216,1.2285767,0.5684204
	l0.1416016,0.7070312c0.0100098,0.0500488,0.0477295,0.0841675,0.0713501,0.1274414
	C17.0617676,22.1341553,16.100769,23.5014038,15.6407471,24.3098755z M20.0778198,20.7297363
	c-0.012146-0.0020142-0.0231323-0.0073853-0.0354614-0.0084229c-0.1782837-0.0490112-0.3585815-0.0958252-0.5487061-0.1304932
	l-0.1381836-0.6889648c-0.0424805-0.2119141-0.2158203-0.3720703-0.4301758-0.3984375
	c-0.0126953-0.0014648-1.2700195-0.1782227-1.6621094-1.1044922c-0.4633789-1.0957031-2.434082-10.5688477-2.5395508-12.2045898
	c-0.1264648-2.5805664,0.7075195-4.0483398,1.2949219-4.7519531l3.4891968,13.2387695
	c0.0039062,0.078125,0.0205078,0.1535034,0.0579834,0.2200317l0.9821167,3.7262573
	c0.046875,0.1772461,0.1875,0.3149414,0.3652344,0.3583984c0.0321655,0.0080566,3.0999146,0.8013306,4.7672729,3.928833
	l-1.3143921,1.3875122C23.8007202,23.2825317,22.4664307,21.4011841,20.0778198,20.7297363z M31.4443359,37.9560547
	c-0.4941406,0.5927734-1.2216797,0.8554688-1.6777344,0.9677734c-0.3017578-1.2783203-1.203125-4.8769531-2.3984375-7.59375
	c-1.1572266-2.6298828-2.4921875-4.7568359-3.0175781-5.5576172l2.3070679-2.4345703
	c0.0042725-0.0046387,0.008667-0.008728,0.0127563-0.0134888l0.1186523-0.1251831
	c1.140625,2.2333984,4.9394531,9.8466797,5.1933594,12.6904297C32.0605469,36.7392578,31.8789062,37.4345703,31.4443359,37.9560547z
	"/>
<rect class="st0" width="40" height="40"/>
</svg>
