<?xml version="1.0" encoding="utf-8"?>
<!-- Generator: Adobe Illustrator 21.1.0, SVG Export Plug-In . SVG Version: 6.00 Build 0)  -->
<svg version="1.1" id="icon" xmlns="http://www.w3.org/2000/svg" xmlns:xlink="http://www.w3.org/1999/xlink" x="0px" y="0px"
	 viewBox="0 0 40 40" style="enable-background:new 0 0 40 40;" xml:space="preserve">
<style type="text/css">
	.st0{fill:none;stroke:none;}
</style>
<g id="New_icons_1_">
</g>
<path d="M38.9980469,26.203125c-0.0253906-0.0605469-0.0625-0.1162109-0.1083984-0.1621094l-9.4853516-9.4853516
	c-0.1953125-0.1953125-0.5117188-0.1953125-0.7070312,0l-4.5794678,4.5787354L13.3236084,10.34021
	c0.9910889-2.4307861,0.3068848-5.5740356-1.9412842-7.8226318c-0.0170898-0.0170898-0.0390625-0.024292-0.0578003-0.0383911
	c-0.0137939-0.0182495-0.020813-0.0397339-0.0374146-0.0563354L9.0107422,0.1464844
	c-0.1953125-0.1953125-0.5117188-0.1953125-0.7070312,0L0.1464844,8.3037109c-0.1953125,0.1953125-0.1953125,0.5117188,0,0.7070312
	l2.2763672,2.2763672c0.0166016,0.0166016,0.0380859,0.0236206,0.0563354,0.0374146
	c0.0140991,0.0187378,0.0213013,0.0407104,0.0383911,0.0578003c1.5791016,1.5791016,3.6005859,2.390625,5.5068359,2.3901367
	c0.8079224,0,1.5914917-0.1540527,2.3154297-0.4492188l10.7945557,10.7945557l-4.5787354,4.5794678
	c-0.1953125,0.1953125-0.1953125,0.5117188,0,0.7070312l9.4853516,9.4853516
	c0.0449219,0.0449219,0.0976562,0.0810547,0.15625,0.1064453c0.1542969,0.0654297,2.4248047,1.0146484,5.4492188,1.0146484
	c1.9658203,0,4.2509766-0.4013672,6.4785156-1.7070312c0.0712891-0.0419922,0.1318359-0.1015625,0.1748047-0.171875
	C41.6171875,32.6650391,39.1064453,26.4638672,38.9980469,26.203125z M24.9716797,21.6953125l4.0097656,4.0097656
	c0.4560547,0.4560547,0.7080078,1.0380859,0.7080078,1.6376953c0,0.6005859-0.2519531,1.1826172-0.7080078,1.6386719
	c-0.9121094,0.9111328-2.3642578,0.9130859-3.2763672,0l-4.0097656-4.0097656L24.9716797,21.6953125z M8.6572266,1.2070312
	l1.5693359,1.5693359l-7.4501953,7.4501953L1.2070312,8.6572266L8.6572266,1.2070312z M3.5048828,10.9121094l7.4072266-7.4072266
	c2.236084,2.4641724,2.5021362,5.9485474,0.5219727,7.9291992C9.4534302,13.4137573,5.9686279,13.1480713,3.5048828,10.9121094z
	 M11.2730103,12.8423462c0.3084717-0.2012939,0.6002808-0.4334106,0.868103-0.7012329
	c0.2681274-0.2681885,0.4967651-0.5622559,0.6981812-0.8711548l10.5714111,10.5714111l-0.784729,0.7846069l-0.7846069,0.784729
	L11.2730103,12.8423462z M37.5097656,37.5039062c-4.8359375,2.7587891-10.1064453,0.8876953-10.8339844,0.6064453
	l-9.0595703-9.0595703l3.3720703-3.3720703l4.0097656,4.0097656c0.6445312,0.6455078,1.4775391,1.0009766,2.3447266,1.0009766
	c0.8681641,0,1.7011719-0.3554688,2.3457031-1.0009766c0.6455078-0.6445312,1.0009766-1.4775391,1.0009766-2.3457031
	c0-0.8671875-0.3554688-1.7001953-1.0009766-2.3447266l-4.0097656-4.0097656l3.3720703-3.3720703l9.0576172,9.0576172
	C38.3925781,27.4248047,40.2705078,32.8261719,37.5097656,37.5039062z"/>
<rect class="st0" width="40" height="40"/>
</svg>
