<?xml version="1.0" encoding="utf-8"?>
<!-- Generator: Adobe Illustrator 21.1.0, SVG Export Plug-In . SVG Version: 6.00 Build 0)  -->
<svg version="1.1" id="icon" xmlns="http://www.w3.org/2000/svg" xmlns:xlink="http://www.w3.org/1999/xlink" x="0px" y="0px"
	 viewBox="0 0 40 40" style="enable-background:new 0 0 40 40;" xml:space="preserve">
<style type="text/css">
	.st0{fill:none;stroke:none;}
</style>
<g id="New_icons_1_">
</g>
<path d="M39.7568359,35.4746094c-1.1230469-2.4833984-2.6416016-4.8417969-4.5146484-7.0097656
	s-3.9853516-4.0136719-6.2978516-5.4970703c-1.0415649-0.6049194-2.314209-0.5819092-3.3042603,0.0272217l-1.3961182-1.6165771
	l5.8722534-5.0717773c0.8642578-0.7470703,1.2626953-1.6655273,1.1201172-2.5859375
	c-0.1533203-0.987793-0.9306641-1.8496094-2.1318359-2.3652344L3.5615234,0.4082031
	C2.3735352-0.1015625,1.3510742-0.0649414,0.6826172,0.5126953C0.0146484,1.0898438-0.1713867,2.0961914,0.159668,3.3466797
	l7.1152344,26.8623047c0.3349609,1.2646484,1.074707,2.1591797,2.0297852,2.4541016
	c0.2314453,0.0712891,0.4682617,0.1064453,0.7070312,0.1064453c0.6791992,0,1.375-0.2861328,2.0146484-0.8388672
	l11.4602051-9.8980713l1.3956299,1.6165161c-0.7459106,0.8891602-0.9530029,2.1465454-0.4984131,3.286438
	c0.4311523,0.9525146,0.9377441,1.8792725,1.4821167,2.7907715c0.0142822,0.0886841,0.0437622,0.175415,0.1067505,0.248291
	c0.020752,0.0240479,0.0490723,0.0352783,0.0730591,0.0543823c0.8342285,1.3586426,1.7775879,2.6722412,2.8517456,3.9163208
	c1.8701172,2.1650391,3.9824219,4.0107422,6.2539062,5.4677734c0.4892578,0.3583984,1.0566406,0.5341797,1.6376953,0.5341797
	c0.7304688,0,1.4814453-0.2792969,2.1171875-0.8291016C39.9316406,38.2333984,40.2763672,36.7773438,39.7568359,35.4746094z
	 M11.3730469,31.1748047c-0.5947266,0.5136719-1.2241211,0.7011719-1.7734375,0.5332031
	c-0.6181641-0.1914062-1.1132812-0.8310547-1.3579102-1.7548828L1.1264648,3.0908203
	c-0.2246094-0.8481445-0.1479492-1.512207,0.2099609-1.8212891c0.1679688-0.1450195,0.4047852-0.2172852,0.6918945-0.2172852
	c0.3237305,0,0.7124023,0.0917969,1.1396484,0.2749023l25.5419922,10.9472656
	c0.8779297,0.3764648,1.4384766,0.9594727,1.5380859,1.5991211c0.0878906,0.5678711-0.1914062,1.1630859-0.7861328,1.6762695
	l-5.871582,5.0717773l-1.6821289-1.9477539c-0.0869141-0.1005859-0.2099609-0.1621094-0.3427734-0.171875
	c-0.1337891-0.0141602-0.2626953,0.0332031-0.3632812,0.1201172l-2.4155273,2.0869141l-4.4326172-5.1318359
	c-0.1811523-0.2099609-0.4975586-0.2314453-0.7050781-0.0517578c-0.2089844,0.1806641-0.2324219,0.4960938-0.0517578,0.7050781
	l4.7592773,5.5107422c0.1811523,0.2089844,0.4975586,0.2324219,0.7050781,0.0507812l2.4160156-2.0864258l1.3555908,1.5701294
	L11.3730469,31.1748047z M25.887085,24.0497437c0.0004883-0.0004272,0.0010986-0.0004883,0.0015869-0.0009155
	c0.0007324-0.0006104,0.0009766-0.0015869,0.001709-0.0021973c0.4020386-0.3468018,0.9100952-0.5231934,1.4221191-0.5231934
	c0.3828125,0,0.7666016,0.0986328,1.1103516,0.2978516c0.7312622,0.4692383,1.43573,0.9920654,2.1271973,1.5386963
	l-4.0426025,3.4915161c-0.4371338-0.7579956-0.8487549-1.5245972-1.2027588-2.3075562
	C24.9514771,25.6589966,25.1854858,24.6573486,25.887085,24.0497437z M38.2519531,38.3613281
	c-0.7910156,0.6835938-1.7783203,0.7802734-2.5351562,0.2275391c-2.2158203-1.4228516-4.2548828-3.2050781-6.0625-5.2978516
	c-0.9827881-1.1378174-1.8547974-2.3335571-2.6279297-3.5667114l4.3120728-3.7242432
	c1.1090088,0.9451294,2.1645508,1.9813843,3.1469116,3.1190796c1.8095703,2.0947266,3.2763672,4.3720703,4.3505859,6.7470703
	C39.1894531,36.7519531,38.9550781,37.7548828,38.2519531,38.3613281z"/>
<rect class="st0" width="40" height="40"/>
</svg>
