<?xml version="1.0" encoding="utf-8"?>
<!-- Generator: Adobe Illustrator 21.1.0, SVG Export Plug-In . SVG Version: 6.00 Build 0)  -->
<svg version="1.1" id="icon" xmlns="http://www.w3.org/2000/svg" xmlns:xlink="http://www.w3.org/1999/xlink" x="0px" y="0px"
	 viewBox="0 0 40 40" style="enable-background:new 0 0 40 40;" xml:space="preserve">
<style type="text/css">
	.st0{fill:none;stroke:none;}
</style>
<g>
	<path d="M39.8828125,7.2050781C39.7880859,7.0917969,39.6474609,7.0263672,39.5,7.0263672H10.6621094
		c-0.2763672,0-0.5,0.2236328-0.5,0.5v2.0600586c0,0.2763672,0.2236328,0.5,0.5,0.5h5.0527344v12.2172852
		c0,0.1474609,0.0649414,0.2871094,0.1772461,0.3818359c0.0908203,0.0771484,0.2055664,0.1181641,0.3227539,0.1181641
		c0.0273438,0,0.0551758-0.0019531,0.0830078-0.0068359l21.3144531-3.5825195
		c0.2089844-0.0351562,0.3730469-0.1977539,0.4091797-0.40625l1.9707031-11.1948242
		C40.0175781,7.4672852,39.9775391,7.3178711,39.8828125,7.2050781z M37.0976562,18.2866211l-20.3828125,3.4262695V9.5864258
		c0-0.2763672-0.2236328-0.5-0.5-0.5h-5.0527344V8.0263672h27.7421875L37.0976562,18.2866211z"/>
	<path d="M9.1386719,23.6904297c-2.5595703,0-4.6420898,2.0820312-4.6420898,4.6416016s2.0825195,4.6416016,4.6420898,4.6416016
		s4.6416016-2.0820312,4.6416016-4.6416016S11.6982422,23.6904297,9.1386719,23.6904297z M9.1386719,31.9736328
		c-2.0083008,0-3.6420898-1.6337891-3.6420898-3.6416016s1.6337891-3.6416016,3.6420898-3.6416016
		c2.0078125,0,3.6416016,1.6337891,3.6416016,3.6416016S11.1464844,31.9736328,9.1386719,31.9736328z"/>
	<path d="M32.1494141,23.6904297c-2.5595703,0-4.6425781,2.0820312-4.6425781,4.6416016s2.0830078,4.6416016,4.6425781,4.6416016
		s4.6416016-2.0820312,4.6416016-4.6416016S34.7089844,23.6904297,32.1494141,23.6904297z M32.1494141,31.9736328
		c-2.0087891,0-3.6425781-1.6337891-3.6425781-3.6416016s1.6337891-3.6416016,3.6425781-3.6416016
		c2.0078125,0,3.6416016,1.6337891,3.6416016,3.6416016S34.1572266,31.9736328,32.1494141,31.9736328z"/>
	<path d="M25.9951172,27.8320312h-10.703125c-0.2763672,0-0.5,0.2236328-0.5,0.5s0.2236328,0.5,0.5,0.5h10.703125
		c0.2763672,0,0.5-0.2236328,0.5-0.5S26.2714844,27.8320312,25.9951172,27.8320312z"/>
	<path d="M30.1376953,22.5605469H36c0.2763672,0,0.5-0.2236328,0.5-0.5s-0.2236328-0.5-0.5-0.5h-5.8623047
		c-2.3182983,0-4.2127686,1.7131958-4.4714966,3.9042969h-9.9261475c-0.1550293-1.3131104-0.8842773-2.4572144-1.9597778-3.1593628
		v-9.3181763c0-0.2763672-0.2236328-0.5-0.5-0.5H6.2255859c-2.7978516,0-5.0776367,2.1318359-5.3032227,4.956543
		l-0.2014771,2.3743286c-0.0005493,0.0096436-0.0055542,0.0177612-0.0055542,0.0275269
		c0,0.0039673,0.0021362,0.0072632,0.0022583,0.0112305l-0.7156372,8.4331055
		c-0.012207,0.1396484,0.0351562,0.2773438,0.1298828,0.3798828C0.2265625,28.7734375,0.3598633,28.8320312,0.5,28.8320312
		h2.4536133c0.2763672,0,0.5-0.2236328,0.5-0.5s-0.2236328-0.5-0.5-0.5H1.0444336l0.1160278-1.3671875h2.0612183
		c0.2763672,0,0.5-0.2236328,0.5-0.5c0-1.8769531,1.5805664-3.4042969,3.5234375-3.4042969h4.0234375
		c1.9428711,0,3.5234375,1.5273438,3.5234375,3.4042969c0,0.2763672,0.2236328,0.5,0.5,0.5h10.703125
		c0.0211182,0,0.0391235-0.0094604,0.0595703-0.0120239c0.0204468,0.0025635,0.0384521,0.0120239,0.0595703,0.0120239
		c0.2763672,0,0.5-0.2236328,0.5-0.5C26.6142578,24.0878906,28.1953125,22.5605469,30.1376953,22.5605469z M6.2255859,13.4873047
		h1.6069336v5.8583984H1.7645874l0.1543579-1.8193359C2.1025391,15.2236328,3.9541016,13.4873047,6.2255859,13.4873047z
		 M7.2451172,21.5605469c-2.3182983,0-4.2127686,1.7131958-4.4714966,3.9042969H1.2453003l0.4343872-5.1191406h6.652832
		c0.2763672,0,0.5-0.2236328,0.5-0.5v-6.3583984h3.9477539v8.3449707c-0.4750366-0.1654053-0.9790649-0.2717285-1.5117188-0.2717285
		H7.2451172z"/>
</g>
<rect class="st0" width="40" height="40"/>
</svg>
