<?xml version="1.0" encoding="utf-8"?>
<!-- Generator: Adobe Illustrator 21.1.0, SVG Export Plug-In . SVG Version: 6.00 Build 0)  -->
<svg version="1.1" id="icon" xmlns="http://www.w3.org/2000/svg" xmlns:xlink="http://www.w3.org/1999/xlink" x="0px" y="0px"
	 viewBox="0 0 40 40" style="enable-background:new 0 0 40 40;" xml:space="preserve">
<style type="text/css">
	.st0{fill:none;stroke:none;}
</style>
<g>
	<path d="M12.512146,20.4926147c0.2556763-0.7059326,0.3960571-1.4578857,0.3960571-2.2348022
		c0-1.7431641-0.6708984-3.375-1.8901367-4.59375c-1.7553711-1.7548828-4.3134766-2.3251953-6.675293-1.4858398
		c-0.1621094,0.0571289-0.2827148,0.1933594-0.3208008,0.3608398C3.984375,12.706543,4.034668,12.8818359,4.15625,13.0029297
		l3.1586914,3.1586914c0.0585938,0.7705078-0.2460938,1.5649414-0.8334961,2.152832
		c-0.5874023,0.5874023-1.3793945,0.8925781-2.152832,0.8334961l-3.1586914-3.1586914
		c-0.1225586-0.1220703-0.2998047-0.171875-0.4682617-0.1333008c-0.1689453,0.0400391-0.3046875,0.1645508-0.359375,0.3286133
		c-0.7861328,2.359375-0.2021484,4.9765625,1.4882812,6.6669922c1.2666016,1.2666016,2.9301758,1.8994141,4.59375,1.8994141
		c0.7592773,0,1.5167236-0.1385498,2.2383423-0.4022827l13.5883179,13.5878296
		c0.4853516,0.4863281,1.1367188,0.7539062,1.8330078,0.7539062c0.7285156,0,1.421875-0.2919922,1.9511719-0.8222656
		c0.5302734-0.5292969,0.8222656-1.2226562,0.8222656-1.9511719c0-0.6962891-0.2675781-1.3476562-0.7539062-1.8330078
		L12.512146,20.4926147z M2.5375977,22.1445312c-1.2333984-1.2333984-1.765625-3.0595703-1.4536133-4.8271484l2.6616211,2.6616211
		c0.0766602,0.0766602,0.1757812,0.1264648,0.2827148,0.1411133c1.1313477,0.1640625,2.3110352-0.2490234,3.1601562-1.0986328
		c0.8496094-0.8500977,1.2602539-2.03125,1.0991211-3.1601562c-0.015625-0.1069336-0.0649414-0.2060547-0.1416016-0.2827148
		L5.4702148,12.902832c1.7587891-0.3476562,3.5561523,0.1835938,4.8408203,1.4682617
		c2.1430664,2.1430664,2.1430664,5.6298828,0,7.7734375C8.1679688,24.2861328,4.6816406,24.2880859,2.5375977,22.1445312z
		 M25.328125,37.1611328c-0.6572266,0.6601562-1.7539062,0.6875-2.3701172,0.0683594L9.6294556,23.9014282
		c0.4963989-0.2815552,0.9660645-0.6271362,1.3886108-1.0498657c0.4177856-0.4176025,0.7658691-0.8865967,1.0499268-1.3890381
		l13.3284912,13.3284912c0.2978516,0.296875,0.4609375,0.6972656,0.4609375,1.1259766
		C25.8574219,36.3779297,25.6699219,36.8203125,25.328125,37.1611328z"/>
	<path d="M39.8447266,21.2207031l-6.4970703-6.4970703c-0.0859375-0.0854492-0.1992188-0.137207-0.3203125-0.1455078
		c-1.0419922-0.0693359-1.9003906-0.4345703-2.5517578-1.0854492c-0.703125-0.7036133-1.0917969-1.5390625-1.1542969-2.4838867
		c-0.0078125-0.1210938-0.0595703-0.2348633-0.1455078-0.3203125l-1.2304688-1.230957
		c-0.09375-0.09375-0.2207031-0.1464844-0.3535156-0.1464844s-0.2597656,0.0527344-0.3535156,0.1464844l-0.8093262,0.8093262
		l-8.6057129-8.6057129c-0.0820312-0.0820312-0.1899414-0.1328125-0.3051758-0.144043l-2.1201172-0.2050781
		c-0.0071411-0.0004883-0.0140991,0.0030518-0.0212402,0.0028076c-0.0581665-0.0031738-0.1151123,0.0057373-0.1713257,0.0228271
		c-0.0085449,0.0025635-0.017334,0.0020142-0.0257568,0.0050049c-0.0667725,0.0241699-0.1300049,0.0598755-0.1835327,0.1134033
		c-0.0516968,0.0516968-0.0877075,0.1121826-0.1119995,0.1763306c-0.0072632,0.019104-0.0066528,0.0395508-0.0115356,0.0593872
		c-0.0117188,0.0479126-0.0204468,0.0952148-0.0178223,0.1442261c0.0004272,0.0075073-0.003418,0.0144043-0.0026855,0.0219116
		l0.2055664,2.1201172c0.0112305,0.1152344,0.0620117,0.2231445,0.144043,0.3051758l8.6052246,8.6057129l-0.8771973,0.8771973
		c-0.1953125,0.1953125-0.1953125,0.5117188,0,0.7070312l1.2304688,1.230957
		c0.0859375,0.0854492,0.1992188,0.137207,0.3203125,0.1455078c0.9052734,0.0600586,1.8105469,0.480957,2.484375,1.1538086
		c0.6728516,0.6733398,1.0927734,1.5786133,1.1533203,2.4838867c0.0078125,0.1210938,0.0595703,0.2348633,0.1455078,0.3203125
		l6.4970703,6.4970703c0.0869141,0.0869141,0.2021484,0.1386719,0.3242188,0.1455078
		c0.1054688,0.0058594,0.2089844,0.0097656,0.3134766,0.0097656c1.2714844,0,2.4277344-0.4619141,3.2841797-1.3183594
		c0.9257812-0.9248047,1.3896484-2.2021484,1.3076172-3.5966797C39.9833984,21.4228516,39.9316406,21.3076172,39.8447266,21.2207031
		z M15.9818115,3.1488037l1.06604,1.06604c0.0976562,0.0976562,0.2255859,0.1464844,0.3535156,0.1464844
		S17.6572266,4.3125,17.7548828,4.2148438c0.1953125-0.1953125,0.1953125-0.5117188,0-0.7070312l-1.0663452-1.0663452
		l0.5546265,0.0536499l8.4785156,8.4785156l-1.2080078,1.2080078L16.0356445,3.703125L15.9818115,3.1488037z M37.9755859,24.4345703
		c-0.8535156,0.8535156-1.90625,1.0175781-2.6464844,1.0244141l-6.2304688-6.2299805
		c-0.1191406-1.078125-0.6318359-2.1376953-1.4267578-2.9331055c-0.7958984-0.7944336-1.8554688-1.3081055-2.9326172-1.4272461
		l-0.7490234-0.7490234l3.6015625-3.6015625l0.7480469,0.7485352c0.1162109,1.1147461,0.5966797,2.1005859,1.4287109,2.9331055
		c0.7861328,0.7861328,1.7949219,1.2436523,3.0019531,1.3608398l6.2285156,6.2285156
		C39.0117188,22.5566406,38.828125,23.5820312,37.9755859,24.4345703z"/>
</g>
<rect class="st0" width="40" height="40"/>
</svg>
