<svg xmlns="http://www.w3.org/2000/svg" width="256" height="256" fill="#444444" xmlns:v="https://vecta.io/nano"><linearGradient id="A" gradientUnits="userSpaceOnUse" x1="-5.003" y1="51.8" x2="262.424" y2="206.2"><stop offset="0" stop-color="#ffffff"/><stop offset="1" stop-color="#ffffff"/></linearGradient><path fill="url(#A)" d="M209.816 4.29H47.605C23.535 4.29 4 23.825 4 47.895v162.211c0 24.07 19.535 43.605 43.605 43.605h162.211c24.07 0 43.605-19.535 43.605-43.605V47.895c0-24.07-19.535-43.605-43.605-43.605zM75.512 175.221c0 5.581-4.535 10.116-10.116 10.116h-18.14c-5.581 0-10.116-4.535-10.116-10.116V82.779c0-5.581 4.535-10.116 10.116-10.116h18.14c5.581 0 10.116 4.535 10.116 10.116v92.442zm96.629 17.442c0 5.581-4.535 10.116-10.116 10.116H95.396c-5.581 0-10.116-4.535-10.116-10.116V65.337c0-5.581 4.535-10.116 10.116-10.116h66.977c5.581 0 10.116 4.535 10.116 10.116v127.327h-.348zm48.14-17.442c0 5.581-4.535 10.116-10.116 10.116h-18.14c-5.581 0-10.116-4.535-10.116-10.116V82.779c0-5.581 4.535-10.116 10.116-10.116h18.14c5.581 0 10.116 4.535 10.116 10.116v92.442z"/></svg>