<svg xmlns="http://www.w3.org/2000/svg" width="174" height="37" viewBox="-961.931 -171.576 960.243 173.421"  xmlns:v="https://vecta.io/nano"><path d="M-736.12-41.57c-.728-.728-1.213-2.183-1.213-4.123v-92.653c0-2.911 2.425-4.123 7.519-4.123h4.608c2.668 0 4.608.243 5.579.97 1.213.728 1.698 1.698 1.698 3.153v81.738h24.74c1.455 0 2.425.485 2.911 1.455s.97 2.668.97 4.608v3.881c0 2.183-.243 3.638-.97 4.851-.485.97-1.455 1.455-2.911 1.455h-39.293c-1.698 0-2.911-.485-3.638-1.212zm60.394-8.005c-4.851-6.791-7.519-16.251-7.519-28.863s2.425-22.314 7.276-29.106 12.127-9.944 21.829-9.944 16.736 3.396 21.829 9.944c4.851 6.791 7.276 16.493 7.276 29.106s-2.425 22.314-7.519 29.106c-4.851 6.549-12.127 9.944-21.587 9.944s-16.492-3.395-21.585-10.187zm29.591-10.186c1.698-3.881 2.425-9.944 2.425-18.676s-.728-15.038-2.425-18.676-4.366-5.579-8.004-5.579-6.306 1.94-8.004 5.579-2.425 9.944-2.425 18.676.728 15.038 2.425 18.676c1.698 3.881 4.366 5.579 8.004 5.579 3.88-.001 6.548-1.941 8.004-5.579zm37.594 45.356c-4.608-3.153-6.791-8.004-6.791-14.31 0-3.881.97-7.519 2.911-10.43s4.851-5.336 8.247-7.034v-.485c-1.94-1.213-3.153-2.668-4.123-4.608s-1.455-4.123-1.455-6.306c0-5.579 2.425-9.944 7.034-13.34-7.034-3.881-10.672-10.915-10.672-20.859 0-8.247 2.183-14.553 6.791-18.919s10.915-6.549 18.676-6.549c3.153 0 6.064.243 8.489.97h19.889c1.213 0 2.183.485 2.668 1.455s.728 2.425.728 4.366v2.183c0 1.94-.243 3.396-.728 4.123-.485.97-1.213 1.213-2.425 1.213-2.668 0-4.608-.243-6.064-.485l-.243.485c1.94 3.153 2.911 7.034 2.911 11.4 0 7.276-2.183 13.098-6.306 17.221s-9.944 6.306-16.978 6.549c-5.579.243-8.489 2.668-8.489 6.791 0 2.425.97 4.366 3.153 5.093 1.94.97 5.336 1.698 9.702 2.668.97 0 2.425.243 4.366.728 5.821 1.213 10.187 3.153 13.583 6.306 3.396 2.911 5.094 7.519 5.094 13.34 0 7.276-2.668 13.098-7.761 17.221-5.336 4.123-12.612 6.064-22.072 6.064-8.735 0-15.526-1.698-20.135-4.851zm31.289-10.915c2.183-1.455 3.153-3.638 3.153-6.306 0-2.911-1.213-5.093-3.396-6.064s-5.821-1.94-10.672-2.668c-2.668-.485-4.608-.728-5.579-.97-1.94.97-3.396 2.425-4.366 4.123s-1.698 3.638-1.698 5.821c0 2.911 1.213 4.851 3.396 6.306s5.336 2.183 9.459 2.183c4.609.001 7.762-.727 9.703-2.425zm-3.396-57.726c1.698-1.698 2.668-4.851 2.668-9.217 0-4.851-.97-8.004-2.668-9.944-1.698-1.698-4.123-2.668-7.276-2.668-2.911 0-5.336.97-7.034 2.668s-2.425 5.093-2.425 9.944c0 8.004 3.153 11.885 9.702 11.885 2.667 0 5.093-.97 7.033-2.668zm37.11 33.471c-4.851-6.791-7.519-16.251-7.519-28.863s2.425-22.314 7.276-29.106 12.127-9.944 21.829-9.944 16.736 3.396 21.829 9.944c4.851 6.791 7.276 16.493 7.276 29.106s-2.425 22.314-7.519 29.106c-4.851 6.549-12.127 9.944-21.587 9.944s-16.734-3.395-21.585-10.187zm29.59-10.186c1.698-3.881 2.425-9.944 2.425-18.676s-.728-15.038-2.425-18.676-4.366-5.579-8.004-5.579-6.306 1.94-8.004 5.579-2.425 9.944-2.425 18.676.728 15.038 2.425 18.676c1.698 3.881 4.366 5.579 8.004 5.579 3.881-.001 6.307-1.941 8.004-5.579zM-455.009-52c-6.064-8.489-9.217-21.587-9.217-39.535 0-17.463 3.153-30.561 9.702-39.05 6.306-8.489 16.251-12.855 29.348-12.855 5.336 0 9.702.728 13.34 1.94 1.455.485 2.425 1.213 3.153 2.183.485.97.728 2.183.728 3.881 0 2.911-.485 5.579-1.698 8.247s-2.668 3.396-4.366 2.668c-3.396-1.455-6.791-1.94-10.43-1.94-6.791 0-11.642 2.911-14.795 8.732s-4.851 14.553-4.851 26.438 1.698 20.859 4.851 26.68 8.489 8.732 15.28 8.732c2.183 0 3.881-.243 5.579-.485 1.698-.485 3.396-.97 5.336-1.698.485-.243.97-.243 1.213-.243 1.698 0 2.911 1.213 3.881 3.396s1.213 4.851 1.213 8.004c0 1.455-.243 2.425-.728 3.396s-1.698 1.698-3.153 2.183c-1.698.728-3.881 1.213-6.549 1.698s-5.579.728-8.489.728c-13.34-.488-23.284-4.611-29.348-13.1zm61.607 6.549c-3.638-4.123-5.336-9.459-5.336-16.736 0-8.247 2.911-14.795 8.732-19.646s14.795-7.276 26.923-7.276v-3.881c0-6.549-3.396-9.944-10.187-9.944-2.668 0-4.851.243-6.791.97s-4.123 1.455-6.306 2.668c-1.213.728-2.183 1.213-2.668 1.213-1.213 0-2.668-1.213-4.366-4.123-1.698-2.668-2.425-4.608-2.425-6.064s1.213-2.911 3.396-4.366 5.336-2.425 8.974-3.396 7.519-1.213 11.4-1.213c9.217 0 16.251 2.183 20.616 6.306 4.366 4.366 6.791 10.187 6.791 17.706v28.863c0 6.549.243 11.4.97 14.553.485 3.153.97 4.851.97 5.579 0 1.455-1.698 2.425-4.851 3.153s-6.064 1.213-8.489 1.213c-1.455 0-2.425-.728-3.153-1.94s-1.455-3.153-1.94-6.064c-1.698 2.425-3.881 4.608-6.791 6.306s-6.064 2.425-9.944 2.425c-6.793-.243-11.887-2.183-15.525-6.306zm25.953-9.702c1.698-.97 3.153-2.425 4.366-4.366v-17.706c-12.37 0-18.676 4.608-18.676 13.825 0 3.153.728 5.579 2.183 7.276s3.396 2.668 6.306 2.668c2.183.001 4.123-.727 5.821-1.697zm40.505 10.672v-48.024c0-6.549-.243-11.157-.97-14.31-.485-2.911-.97-4.851-.97-5.579 0-1.455 1.698-2.425 4.851-3.153s6.064-.97 8.489-.97a3.87 3.87 0 0 1 3.396 1.94c.728 1.455 1.213 2.911 1.455 4.366.243 1.698.485 2.668.728 3.396 1.698-3.396 3.638-6.064 5.579-8.004 2.183-1.94 4.608-2.911 7.762-2.911 2.668 0 4.366.485 5.579 1.698.97 1.213 1.698 2.911 1.698 5.336 0 1.94-.243 4.366-.97 7.034-.728 2.911-1.455 4.123-2.425 4.123-.485 0-1.698-.243-2.911-.728-1.455-.485-2.668-.728-3.881-.728-1.94 0-3.881.728-5.579 2.425s-2.668 3.396-3.396 5.336v48.267c0 2.911-2.668 4.123-7.762 4.123h-2.911c-5.094.729-7.762-.726-7.762-3.637zm48.509-5.094c-4.851-6.791-7.519-16.251-7.519-28.863s2.425-22.314 7.276-29.106 12.127-9.944 21.829-9.944 16.978 3.396 21.829 9.944c4.851 6.791 7.276 16.493 7.276 29.106s-2.425 22.314-7.519 29.106c-4.851 6.549-12.127 9.944-21.587 9.944s-16.734-3.395-21.585-10.187zm29.591-10.186c1.698-3.881 2.425-9.944 2.425-18.676s-.728-15.038-2.425-18.676-4.366-5.579-8.004-5.579-6.306 1.94-8.004 5.579-2.425 9.944-2.425 18.676.728 15.038 2.425 18.676c1.698 3.881 4.366 5.579 8.004 5.579s6.306-1.941 8.004-5.579zm37.595 15.28c-2.911-3.638-4.608-8.489-4.608-15.28v-52.875c0-2.911 2.425-4.123 7.519-4.123h3.638c2.668 0 4.608.243 5.579.97 1.213.728 1.698 1.698 1.698 3.153v48.994c0 2.911.485 5.336 1.698 6.791s2.911 2.183 5.336 2.183c1.94 0 3.638-.485 5.336-1.94 1.698-1.213 2.911-2.668 4.123-4.851v-51.177c0-2.911 2.425-4.123 7.519-4.123h3.881c4.851 0 7.276 1.455 7.276 4.123v48.267c0 6.549.243 11.4.728 14.31s.728 4.851.728 5.336c0 1.455-1.698 2.668-4.851 3.396-3.396.728-6.306.97-8.974.97-1.698 0-2.668-.485-3.396-1.698-.485-1.213-.97-2.425-1.213-4.123s-.485-2.911-.728-3.881c-2.183 3.153-4.851 5.821-7.762 7.761-3.153 1.94-6.549 3.153-10.429 3.153-5.822-.243-10.188-1.94-13.098-5.336zm66.215 2.425c-4.366-1.94-6.306-4.123-6.306-6.549 0-1.698.728-3.881 2.425-6.549s3.153-3.881 4.366-3.881c.243 0 1.213.485 2.425 1.455 1.455.97 2.668 1.698 4.123 2.425s3.153.97 4.851.97c2.668 0 4.851-.728 6.306-1.94s2.183-3.153 2.183-5.336c0-2.668-.97-4.608-2.668-6.064s-4.608-3.396-8.974-5.579c-4.608-2.425-8.004-5.336-10.672-8.489-2.425-3.153-3.881-7.519-3.881-13.098 0-6.791 2.183-12.37 6.306-16.493 4.366-4.123 9.944-6.064 16.736-6.064 4.366 0 8.247.728 12.127 1.94 3.881 1.455 5.821 3.153 5.821 5.579 0 1.698-.728 3.881-1.94 6.549s-2.425 3.881-3.396 3.881c-.243 0-1.455-.485-3.396-1.455s-4.123-1.455-6.549-1.455-4.366.485-5.821 1.698c-1.455.97-2.183 2.668-2.183 4.851s.728 3.881 2.183 5.336 3.638 2.911 6.791 4.608l2.668 1.698c4.366 2.425 8.004 5.336 10.429 8.732s3.638 7.761 3.638 13.34c0 7.034-2.183 12.855-6.549 17.221s-10.429 6.549-17.706 6.549c-4.605-1.212-9.214-1.939-13.337-3.88zm53.36-7.033c-5.093-6.549-7.762-16.008-7.762-28.863 0-26.438 9.944-39.535 29.591-39.535 17.706 0 26.438 12.855 26.438 38.807 0 .97-.97 2.668-2.425 4.608-1.698 1.94-3.153 3.153-4.123 3.153h-30.561c.243 6.064 1.455 10.43 3.881 13.098 2.183 2.668 5.579 3.881 9.702 3.881 2.425 0 4.851-.243 6.791-.97s3.638-1.455 5.336-2.425 2.668-1.455 2.911-1.455c1.213 0 2.668 1.213 4.366 3.881s2.425 4.608 2.425 5.821c0 1.94-1.213 3.638-3.638 5.093s-5.336 2.668-8.974 3.638-6.791 1.213-9.702 1.213c-10.916-.244-18.92-3.397-24.256-9.945zm31.046-34.2c0-7.034-.728-12.37-2.183-15.523-1.455-3.396-3.881-4.851-7.276-4.851s-6.064 1.698-7.762 4.851-2.911 8.489-3.153 15.766h20.374v-.243zm33.472 38.808c-3.153-3.396-4.851-8.489-4.851-15.523v-85.862c0-2.668 2.668-4.123 7.762-4.123h2.911c5.093 0 7.762 1.455 7.762 4.123v85.862c0 2.183.243 3.638.97 4.608s1.698 1.455 3.153 1.455c.728 0 1.455 0 2.183-.243s1.213-.243 1.698-.243c.97 0 1.94 1.213 2.668 3.396s1.213 4.366 1.213 5.821c0 1.94-1.213 3.638-3.881 4.608s-5.336 1.455-8.489 1.455c-5.58-.241-9.946-1.938-13.099-5.334z" fill="#333"/><linearGradient id="A" gradientUnits="userSpaceOnUse" x1="-961.931" y1="-84.865" x2="-788.51" y2="-84.865"><stop offset="0" stop-color="#0f8579"/><stop offset="1" stop-color="#25ce65"/></linearGradient><path fill="url(#A)" d="M-818.829-171.576h-112.784c-16.736 0-30.318 13.583-30.318 30.318v112.784c0 16.736 13.583 30.318 30.318 30.318h112.784c16.736 0 30.318-13.583 30.318-30.318v-112.784c.001-16.735-13.582-30.318-30.318-30.318zm-93.38 118.848a7.04 7.04 0 0 1-7.034 7.034h-12.612a7.04 7.04 0 0 1-7.034-7.034v-64.275a7.04 7.04 0 0 1 7.034-7.034h12.612a7.04 7.04 0 0 1 7.034 7.034v64.275zm67.185 12.128a7.04 7.04 0 0 1-7.034 7.034h-46.326a7.04 7.04 0 0 1-7.034-7.034v-88.53a7.04 7.04 0 0 1 7.034-7.034h46.569a7.04 7.04 0 0 1 7.034 7.034v88.53h-.243zm33.472-12.128a7.04 7.04 0 0 1-7.034 7.034h-12.612a7.04 7.04 0 0 1-7.034-7.034v-64.275a7.04 7.04 0 0 1 7.034-7.034h12.612a7.04 7.04 0 0 1 7.034 7.034v64.275z"/></svg>